SplineFontDB: 3.2
FontName: AltStandard-It
FullName: Alt Standard It
FamilyName: Alt Standard
Weight: Regular
Copyright: Copyright (c) 2006-2011 Alexey Kryukov <amkryukov@gmail.com>,\nwithout Reserved Font Names.\n\nCopyright (c) 2019-2021, Robert Alessi <alessi@robertalessi.net>,\nwithout Reserved Font Names.\n\nCopyright (c) 2023, Antonis Tsolomitis <atsol@aegean.gr>,\nwithout Reserved Font Names.\n\nThis Font Software is licensed under the SIL Open Font License, Version 1.1.\nThis license is copied below, and is also available with a FAQ at:\nhttp://scripts.sil.org/OFL\n\nCopyright (c) 2025, Ioannes Bracledes, without Reserved Font Names.
Version: 2.7a
ItalicAngle: -15.2
UnderlinePosition: -158
UnderlineWidth: 40
Ascent: 760
Descent: 240
InvalidEm: 0
sfntRevision: 0x0002b333
LayerCount: 2
Layer: 0 0 "Atr+AOEA-s" 1
Layer: 1 0 "Fore" 0
XUID: [1021 149 -1843968052 10827096]
StyleMap: 0x0001
FSType: 0
OS2Version: 4
OS2_WeightWidthSlopeOnly: 0
OS2_UseTypoMetrics: 1
CreationTime: 1300612368
ModificationTime: 1769536204
PfmFamily: 17
TTFWeight: 400
TTFWidth: 5
LineGap: 236
VLineGap: 0
Panose: 2 4 5 3 5 5 5 9 3 3
OS2TypoAscent: 762
OS2TypoAOffset: 0
OS2TypoDescent: -238
OS2TypoDOffset: 0
OS2TypoLinegap: 236
OS2WinAscent: 956
OS2WinAOffset: 0
OS2WinDescent: 294
OS2WinDOffset: 0
HheadAscent: 956
HheadAOffset: 0
HheadDescent: -294
HheadDOffset: 0
OS2SubXSize: 600
OS2SubYSize: 640
OS2SubXOff: 0
OS2SubYOff: 480
OS2SupXSize: 600
OS2SupYSize: 640
OS2SupXOff: 0
OS2SupYOff: 0
OS2StrikeYSize: 40
OS2StrikeYPos: 212
OS2CapHeight: 712
OS2XHeight: 444
OS2FamilyClass: 768
OS2Vendor: 'PfEd'
OS2CodePages: 200000bf.00000000
OS2UnicodeRanges: e0000aff.5a0020ff.02000000.00000000
Lookup: 1 0 0 "'onum' Oldstyle Figures lookup 0" { "'onum' Oldstyle Figures lookup 0 subtable" ("oldstyle") } ['onum' ('DFLT' <'dflt' > 'cyrl' <'CSL ' 'SRB ' 'dflt' > 'grek' <'dflt' > 'hebr' <'dflt' > 'latn' <'AZE ' 'CRT ' 'DEU ' 'MOL ' 'NLD ' 'PLK ' 'ROM ' 'TRK ' 'dflt' > 'math' <'dflt' > ) ]

StartChar: .notdef
Encoding: 256 -1 0
Width: 500
GlyphClass: 1
Flags: MW
HStem: 0 32<124 368 368 374 124 458> 682 32<117 124 124 368>
VStem: 42 38<54.5 77 77 637> 420 38<81 633 633 657.5>
LayerCount: 2
Fore
SplineSet
80 77 m 2
 80 32 110 32 124 32 c 2
 368 32 l 2
 380 32 420 32 420 81 c 2
 420 633 l 2
 420 682 380 682 368 682 c 2
 124 682 l 2
 110 682 80 682 80 637 c 2
 80 77 l 2
42 0 m 1
 42 714 l 1
 458 714 l 1
 458 0 l 1
 42 0 l 1
EndSplineSet
EndChar

StartChar: exclam
Encoding: 258 33 2
Width: 280
GlyphClass: 2
Flags: MW
HStem: -12 124<100 136> 674 20G<260 291.5>
VStem: 56 124<32 68> 204 122<624 624>
LayerCount: 2
Fore
SplineSet
56 50 m 0
 56 86 82 112 118 112 c 0
 154 112 180 86 180 50 c 0
 180 14 154 -12 118 -12 c 0
 82 -12 56 14 56 50 c 0
130 158 m 1
 166 361 l 2
 183 452 187 537 204 624 c 0
 215 680 246 694 274 694 c 0
 309 694 326 667 326 624 c 0
 326 567 258 443 224 346 c 2
 154 158 l 1
 130 158 l 1
EndSplineSet
EndChar

StartChar: quotedbl
Encoding: 259 34 3
Width: 394
GlyphClass: 2
Flags: MW
HStem: 520 210<172 249 172 249 222 326 222 350>
VStem: 192 74<666 713> 346 74<666 713>
LayerCount: 2
Fore
SplineSet
326 520 m 1
 346 666 l 2
 348 681 356 730 396 730 c 0
 410 730 420 722 420 704 c 0
 420 693 415 679 412 671 c 2
 350 520 l 1
 326 520 l 1
172 520 m 1
 192 666 l 2
 194 681 202 730 242 730 c 0
 256 730 266 722 266 704 c 0
 266 693 261 679 258 671 c 2
 196 520 l 1
 172 520 l 1
EndSplineSet
EndChar

StartChar: numbersign
Encoding: 260 35 4
Width: 684
GlyphClass: 2
Flags: MW
HStem: 0 21G<88 132 88 88 278 322 278 278> 196 40<56 188 67 172 67 216 232 361 424 582> 450 40<136 282 125 299 136 326 342 472 532 654> 664 20G<381 425 425 425 571 615 615 615>
LayerCount: 2
Fore
SplineSet
56 196 m 1
 67 236 l 1
 188 236 l 1
 282 450 l 1
 125 450 l 1
 136 490 l 1
 299 490 l 1
 381 684 l 1
 425 684 l 1
 342 490 l 1
 488 490 l 1
 571 684 l 1
 615 684 l 1
 532 490 l 1
 665 490 l 1
 654 450 l 1
 516 450 l 1
 424 236 l 1
 593 236 l 1
 582 196 l 1
 405 196 l 1
 322 0 l 1
 278 0 l 1
 361 196 l 1
 216 196 l 1
 132 0 l 1
 88 0 l 1
 172 196 l 1
 56 196 l 1
232 236 m 1
 380 236 l 1
 472 450 l 1
 326 450 l 1
 232 236 l 1
EndSplineSet
EndChar

StartChar: dollar
Encoding: 261 36 5
Width: 580
GlyphClass: 2
Flags: MW
HStem: -16 32<227 228.5> 153 95<117 144 107 148.5> 441 93 659 32<464 473> 668 32<403 406>
VStem: 50 48<113 123 92.5 169> 160 56<507 551> 438 72<149 209.5> 550 44<560.5 579.5 516 590>
LayerCount: 2
Fore
SplineSet
129 153 m 0xf780
 105 153 98 134 98 112 c 0
 98 73 128 41 173 25 c 1
 260 348 l 1
 233 363 l 2
 194 385 160 414 160 493 c 0
 160 609 264 675 354 694 c 1
 372 762 l 1
 404 762 l 1
 387 699 l 1
 394 700 400 700 406 700 c 0xef80
 419 700 431 699 442 697 c 1
 460 762 l 1
 492 762 l 1
 473 691 l 1
 549 668 594 607 594 552 c 0
 594 480 557 441 506 441 c 0
 488 441 458 451 458 482 c 0
 458 510 477 529 504 534 c 0
 534 540 550 545 550 576 c 0
 550 604 521 642 464 659 c 1
 386 370 l 1
 419 351 l 2
 466 324 510 293 510 198 c 0
 510 100 418 9 283 -12 c 1
 264 -80 l 1
 232 -80 l 1
 250 -15 l 1
 241 -16 233 -16 224 -16 c 0
 213 -16 203 -15 194 -14 c 1
 176 -80 l 1
 144 -80 l 1
 164 -7 l 1
 87 16 50 84 50 142 c 0
 50 196 84 248 130 248 c 0
 158 248 184 234 184 201 c 0
 184 178 168 153 129 153 c 0xf780
216 529 m 0
 216 485 234 458 256 445 c 2
 282 430 l 1
 344 660 l 1
 284 644 216 603 216 529 c 0
203 18 m 1
 212 17 222 16 232 16 c 0
 241 16 250 16 258 17 c 1
 336 304 l 1
 288 332 l 1
 203 18 l 1
310 414 m 1
 358 386 l 1
 434 666 l 1
 423 667 412 668 400 668 c 0
 393 668 386 668 378 667 c 1
 310 414 l 1
291 21 m 1
 382 39 438 96 438 174 c 0
 438 245 409 263 386 276 c 2
 364 289 l 1
 291 21 l 1
EndSplineSet
EndChar

StartChar: percent
Encoding: 262 37 6
Width: 860
GlyphClass: 2
Flags: MW
HStem: -16 40<615 658> 320 24<670 723> 340 40<243 284.5> 554 24<491.5 524> 676 24<298 341> 704 20G<750 750>
VStem: 128 72<433 510> 394 28 500 72<77 154> 766 28<182 258 174 267>
LayerCount: 2
Fore
SplineSet
572 106 m 0xdfc0
 572 48 602 24 628 24 c 0
 708 24 766 126 766 238 c 0
 766 296 736 320 710 320 c 0
 630 320 572 218 572 106 c 0xdfc0
500 106 m 0
 500 202 576 344 696 344 c 0
 754 344 794 294 794 222 c 0
 794 126 718 -16 598 -16 c 0
 540 -16 500 34 500 106 c 0
128 462 m 0
 128 558 204 700 324 700 c 0
 373 700 409 664 419 610 c 1
 430 588 479 578 504 578 c 0
 582 578 669 628 718 683 c 1
 718 683 740 711 750 724 c 1
 774 700 l 1
 188 -24 l 1
 164 0 l 1
 644 593 l 1
 639 595 l 1
 597 571 544 554 504 554 c 0
 472 554 445 561 422 572 c 1
 419 476 343 340 226 340 c 0xbfc0
 168 340 128 390 128 462 c 0
200 462 m 0
 200 404 230 380 256 380 c 0
 335 380 392 478 394 588 c 1
 366 608 351 634 351 652 c 0
 351 661 353 668 357 672 c 1
 351 675 344 676 338 676 c 0
 258 676 200 574 200 462 c 0
EndSplineSet
EndChar

StartChar: ampersand
Encoding: 263 38 7
Width: 740
GlyphClass: 2
Flags: MW
HStem: -18 30<202 241 457 516> 432 26<672 688.5> 672 30<529.5 572>
VStem: 56 96<87 186 87 210> 357 72<169 406 406 406> 599 36<568 620.5> 702 54<407 408 381.5 419.5>
LayerCount: 2
Fore
SplineSet
678 367 m 0
 678 395 702 398 702 416 c 0
 702 423 695 432 682 432 c 0
 662 432 648 415 626 388 c 2
 430 140 l 1
 430 86 430 12 484 12 c 0
 548 12 642 159 664 202 c 1
 682 192 l 1
 658 144 572 -18 474 -18 c 0
 400 -18 378 28 367 72 c 1
 332 35 279 -18 203 -18 c 0
 122 -18 56 31 56 129 c 0
 56 291 232 388 301 411 c 2
 359 432 l 1
 371 557 441 702 554 702 c 0
 621 702 635 643 635 612 c 0
 635 514 536 471 488 455 c 2
 429 434 l 1
 429 169 l 1
 604 401 l 2
 617 418 648 458 692 458 c 0
 736 458 756 426 756 390 c 0
 756 373 747 337 710 337 c 0
 698 337 678 342 678 367 c 0
429 456 m 1
 478 474 l 2
 523 488 599 525 599 611 c 0
 599 630 592 672 552 672 c 0
 507 672 429 620 429 456 c 1
152 124 m 0
 152 50 179 12 225 12 c 0
 285 12 328 58 361 95 c 1
 359 101 357 117 357 131 c 2
 357 406 l 1
 321 393 l 2
 212 354 152 248 152 124 c 0
EndSplineSet
EndChar

StartChar: quotesingle
Encoding: 264 39 8
Width: 240
GlyphClass: 2
Flags: MW
HStem: 520 210<172 249 172 249>
VStem: 192 74<666 713>
LayerCount: 2
Fore
SplineSet
172 520 m 1
 192 666 l 2
 194 681 202 730 242 730 c 0
 256 730 266 722 266 704 c 0
 266 693 261 679 258 671 c 2
 196 520 l 1
 172 520 l 1
EndSplineSet
EndChar

StartChar: parenleft
Encoding: 265 40 9
Width: 370
GlyphClass: 2
Flags: MW
HStem: 710 20G<430 430>
VStem: 84 42<43 146 43 219.5>
LayerCount: 2
Fore
SplineSet
84 92 m 0
 84 347 243 591 430 730 c 1
 454 706 l 1
 158 464 126 200 126 92 c 0
 126 -6 160 -102 216 -174 c 1
 184 -198 l 1
 129 -133 84 -20 84 92 c 0
EndSplineSet
Substitution2: "'sups' Superscript lookup 21 subtable" uni207D
Substitution2: "'subs' Subscript lookup 20 subtable" uni208D
EndChar

StartChar: parenright
Encoding: 266 41 10
Width: 370
GlyphClass: 2
Flags: MW
HStem: 710 20G<208 208>
VStem: 266 42<386 489>
LayerCount: 2
Fore
SplineSet
-62 -174 m 1
 234 68 266 332 266 440 c 0
 266 538 232 634 176 706 c 1
 208 730 l 1
 263 665 308 552 308 440 c 0
 308 185 149 -59 -38 -198 c 1
 -62 -174 l 1
EndSplineSet
Substitution2: "'sups' Superscript lookup 21 subtable" uni207E
Substitution2: "'subs' Subscript lookup 20 subtable" uni208E
EndChar

StartChar: asterisk
Encoding: 267 42 11
Width: 580
GlyphClass: 2
Flags: MW
HStem: 374 84 468 54<320.5 327.5 362.5 369.5> 532 84 680 20G<333 357>
VStem: 307 76<320.5 347 643 669.5> 333 24<420 458 532 570>
LayerCount: 2
Fore
SplineSet
307 333 m 0xf8
 307 361 333 387 333 453 c 0
 333 463 330 468 325 468 c 0
 316 468 277 441 255 413 c 0
 236 387 217 374 199 374 c 0
 179 374 162 391 162 411 c 0
 162 436 184 452 229 458 c 0
 273 463 313 487 313 495 c 0
 313 504 268 527 229 532 c 0
 184 538 162 554 162 579 c 0
 162 599 179 616 199 616 c 0
 217 616 236 603 255 577 c 0
 277 549 316 522 325 522 c 0
 330 522 333 527 333 537 c 0xf4
 333 603 307 629 307 657 c 0
 307 682 321 700 345 700 c 0
 369 700 383 682 383 657 c 0xf8
 383 629 357 603 357 537 c 0
 357 527 360 522 365 522 c 0
 374 522 413 549 435 577 c 0
 454 603 473 616 491 616 c 0
 511 616 528 599 528 579 c 0
 528 554 506 538 461 532 c 0
 417 527 377 503 377 495 c 0
 377 486 422 463 461 458 c 0
 506 452 528 436 528 411 c 0
 528 391 511 374 491 374 c 0
 473 374 454 387 435 413 c 0
 413 441 374 468 365 468 c 0
 360 468 357 463 357 453 c 0xf4
 357 387 383 361 383 333 c 0
 383 308 369 290 345 290 c 0
 321 290 307 308 307 333 c 0xf8
EndSplineSet
EndChar

StartChar: plus
Encoding: 268 43 12
Width: 940
GlyphClass: 2
Flags: MW
HStem: -156 21G<456 500 456 456> 244 40<56 456 56 456 500 900> 664 20G<456 500 500 500>
VStem: 456 44<-156 244 -156 244 284 684>
LayerCount: 2
Fore
SplineSet
56 244 m 1
 56 284 l 1
 456 284 l 1
 456 684 l 1
 500 684 l 1
 500 284 l 1
 900 284 l 1
 900 244 l 1
 500 244 l 1
 500 -156 l 1
 456 -156 l 1
 456 244 l 1
 56 244 l 1
EndSplineSet
Substitution2: "'sups' Superscript lookup 21 subtable" uni207A
Substitution2: "'subs' Subscript lookup 20 subtable" uni208A
EndChar

StartChar: comma
Encoding: 269 44 13
Width: 280
GlyphClass: 2
Flags: MW
HStem: -168 21G<30 30> 25 115<103 118.5>
VStem: 145 41<-13.5 6>
LayerCount: 2
Fore
SplineSet
145 -5 m 0
 145 17 130 25 107 25 c 0
 77 25 60 52 60 77 c 0
 60 116 85 140 121 140 c 0
 166 140 186 91 186 59 c 0
 186 -86 75 -150 30 -168 c 1
 22 -152 l 1
 73 -126 145 -75 145 -5 c 0
EndSplineSet
EndChar

StartChar: hyphen
Encoding: 270 45 14
Width: 370
GlyphClass: 2
Flags: MW
HStem: 224 56<92 300 124 278>
VStem: 56 18<196 206 196 218> 328 18<298 308>
LayerCount: 2
Fore
SplineSet
56 196 m 1
 56 240 80 280 124 280 c 2
 300 280 l 2
 320 280 328 288 328 308 c 1
 346 308 l 1
 346 264 322 224 278 224 c 2
 102 224 l 2
 82 224 74 216 74 196 c 1
 56 196 l 1
EndSplineSet
EndChar

StartChar: period
Encoding: 271 46 15
Width: 280
GlyphClass: 2
Flags: MW
HStem: -12 124<104 140>
VStem: 60 124<32 68>
LayerCount: 2
Fore
SplineSet
60 50 m 0
 60 86 86 112 122 112 c 0
 158 112 184 86 184 50 c 0
 184 14 158 -12 122 -12 c 0
 86 -12 60 14 60 50 c 0
EndSplineSet
EndChar

StartChar: slash
Encoding: 272 47 16
Width: 440
GlyphClass: 2
Flags: MW
HStem: 710 20G<366 406 406 406>
LayerCount: 2
Fore
SplineSet
68 -198 m 1
 366 730 l 1
 406 730 l 1
 108 -198 l 1
 68 -198 l 1
EndSplineSet
Substitution2: "'frac' Diagonal Fractions lookup 29 subtable" uni2215.frac
EndChar

StartChar: zero
Encoding: 273 48 17
Width: 580
GlyphClass: 2
Flags: MW
HStem: -16 32<197 274 197 326> 668 32<358 433>
VStem: 72 80<177 183.5 109.5 356> 478 80<501 507 328 573.5>
LayerCount: 2
Fore
SplineSet
152 143 m 0
 152 76 168 16 226 16 c 0
 322 16 372 118 412 238 c 0
 447 343 478 462 478 540 c 0
 478 607 462 668 404 668 c 0
 312 668 258 566 218 446 c 0
 183 341 152 224 152 143 c 0
72 256 m 0
 72 456 206 700 402 700 c 0
 514 700 558 586 558 428 c 0
 558 228 424 -16 228 -16 c 0
 116 -16 72 98 72 256 c 0
EndSplineSet
Substitution2: "'lnum' Lining Figures lookup 51 subtable" zero
Substitution2: "'tnum' Tabular Numbers lookup 50 subtable" zero
Substitution2: "'pnum' Proportional Numbers lookup 49 subtable" zero.prop
Substitution2: "'sups' Superscript lookup 21 subtable" zerosuperior
Substitution2: "'subs' Subscript lookup 20 subtable" zeroinferior
AlternateSubs2: "'aalt' Access All Alternates lookup 3 subtable" zerosuperior zeroinferior
Substitution2: "'onum' Oldstyle Figures lookup 0 subtable" zero.oldstyle
EndChar

StartChar: one
Encoding: 274 49 18
Width: 580
GlyphClass: 2
Flags: MW
HStem: 0 32<54 155 62 155 155 165 302 392> 516 20<197 204> 664 20G<421 452 452 452>
VStem: 421 31<684 684>
LayerCount: 2
Fore
SplineSet
54 0 m 1
 62 32 l 1
 155 32 l 2
 175 32 186 39 191 58 c 2
 328 563 l 1
 298 543 248 531 204 516 c 1
 197 536 l 1
 264 556 365 590 421 684 c 1
 452 684 l 1
 282 58 l 2
 281 54 280 50 280 47 c 0
 280 36 287 32 302 32 c 2
 400 32 l 1
 392 0 l 1
 54 0 l 1
EndSplineSet
Substitution2: "'lnum' Lining Figures lookup 51 subtable" one
Substitution2: "'tnum' Tabular Numbers lookup 50 subtable" one
Substitution2: "'pnum' Proportional Numbers lookup 49 subtable" one.prop
Substitution2: "'sups' Superscript lookup 21 subtable" onesuperior
Substitution2: "'subs' Subscript lookup 20 subtable" oneinferior
AlternateSubs2: "'aalt' Access All Alternates lookup 3 subtable" onesuperior oneinferior
Substitution2: "'onum' Oldstyle Figures lookup 0 subtable" one.oldstyle
EndChar

StartChar: two
Encoding: 275 50 19
Width: 580
GlyphClass: 2
Flags: MW
HStem: -17 104<284.5 353.5 284.5 360.5> -8 21G<56.5 79.5> 114 29<116 144 116 146.5> 410 97<211.5 218 204 248.5> 668 32<314.5 399.5>
VStem: 32 42<58.5 67.5> 156 39<534 558> 470 96<494 569>
LayerCount: 2
Fore
SplineSet
74 70 m 0xbf
 74 47 98 47 98 23 c 0
 98 9 91 -8 68 -8 c 0x7f
 45 -8 32 7 32 26 c 0
 32 109 78 186 174 235 c 1
 310 315 l 2
 385 359 470 448 470 540 c 0
 470 598 446 668 353 668 c 0
 276 668 195 590 195 540 c 0
 195 528 196 507 212 507 c 0
 224 507 233 520 252 520 c 0
 283 520 296 498 296 474 c 0
 296 440 269 410 228 410 c 0
 195 410 156 442 156 499 c 0
 156 617 264 700 362 700 c 0
 489 700 566 626 566 522 c 0
 566 389 413 318 331 280 c 2
 216 227 l 2
 146 195 116 161 116 143 c 1
 172 143 240 87 329 87 c 0
 378 87 426 108 445 155 c 2
 464 201 l 1
 483 201 l 1
 466 113 416 -17 305 -17 c 0
 195 -17 179 114 114 114 c 0
 88 114 74 106 74 70 c 0xbf
EndSplineSet
Substitution2: "'lnum' Lining Figures lookup 51 subtable" two
Substitution2: "'tnum' Tabular Numbers lookup 50 subtable" two
Substitution2: "'pnum' Proportional Numbers lookup 49 subtable" two.prop
Substitution2: "'sups' Superscript lookup 21 subtable" twosuperior
Substitution2: "'subs' Subscript lookup 20 subtable" twoinferior
AlternateSubs2: "'aalt' Access All Alternates lookup 3 subtable" twosuperior twoinferior
Substitution2: "'onum' Oldstyle Figures lookup 0 subtable" two.oldstyle
EndChar

StartChar: three
Encoding: 276 51 20
Width: 580
GlyphClass: 2
Flags: MW
HStem: -16 32<192 280 192 296> 126 94<106.5 167> 328 63<240 254.5> 366 25<299.5 343 343 356> 477 85<241 246 241 267.5> 668 32<338 407.5>
VStem: 52 42<75 111.5 70.5 155.5> 186 47<575 596> 392 96<233.5 269 165.5 294> 472 86<557.5 581.5 488 600.5>
LayerCount: 2
Fore
SplineSet
320 366 m 0xdf80
 279 366 274 328 235 328 c 0
 212 328 200 339 200 354 c 0
 200 370 213 391 240 391 c 2xef80
 343 391 l 2
 383 391 424 425 448 466 c 0
 468 500 472 540 472 575 c 0
 472 626 444 668 371 668 c 0
 305 668 233 631 233 583 c 0
 233 567 238 562 244 562 c 0
 248 562 263 568 269 568 c 0
 295 568 304 554 304 530 c 0
 304 504 287 477 248 477 c 0
 211 477 186 508 186 548 c 0
 186 644 284 700 377 700 c 0
 485 700 558 629 558 534 c 0xdf40
 558 442 460 386 398 376 c 1
 397 369 l 1
 434 355 488 312 488 226 c 0
 488 105 379 -16 213 -16 c 0
 144 -16 52 30 52 120 c 0
 52 191 107 220 147 220 c 0
 187 220 200 189 200 166 c 0
 200 138 180 116 150 116 c 0
 132 116 129 126 112 126 c 0
 101 126 94 118 94 105 c 0
 94 36 168 16 216 16 c 0
 344 16 392 189 392 278 c 0
 392 310 392 366 320 366 c 0xdf80
EndSplineSet
Substitution2: "'lnum' Lining Figures lookup 51 subtable" three
Substitution2: "'tnum' Tabular Numbers lookup 50 subtable" three
Substitution2: "'pnum' Proportional Numbers lookup 49 subtable" three.prop
Substitution2: "'sups' Superscript lookup 21 subtable" threesuperior
Substitution2: "'subs' Subscript lookup 20 subtable" threeinferior
AlternateSubs2: "'aalt' Access All Alternates lookup 3 subtable" threesuperior threeinferior
Substitution2: "'onum' Oldstyle Figures lookup 0 subtable" three.oldstyle
EndChar

StartChar: four
Encoding: 277 52 21
Width: 580
GlyphClass: 2
Flags: MW
HStem: 0 32<126 219 219 228.5 370 454 117 219> 208 36<64 74 74 74 116 294 398 546> 674 20G<462 544 544 544>
VStem: 461 17<535 535> 462 82<694 694>
LayerCount: 2
Fore
SplineSet
64 208 m 1xf0
 74 244 l 1
 290 438 l 1
 362 509 447 632 462 694 c 1
 544 694 l 1xe8
 533 644 494 590 409 510 c 2
 116 244 l 1
 303 244 l 1
 347 396 l 1
 402 434 442 489 461 535 c 1
 478 535 l 1
 398 244 l 1
 556 244 l 1
 546 208 l 1
 389 208 l 1
 349 58 l 2
 348 54 347 50 347 47 c 0
 347 36 354 32 370 32 c 2
 463 32 l 1
 454 0 l 1
 117 0 l 1
 126 32 l 1
 219 32 l 2
 238 32 249 39 254 58 c 2
 294 208 l 1
 64 208 l 1xf0
EndSplineSet
Substitution2: "'lnum' Lining Figures lookup 51 subtable" four
Substitution2: "'tnum' Tabular Numbers lookup 50 subtable" four
Substitution2: "'pnum' Proportional Numbers lookup 49 subtable" four.prop
Substitution2: "'sups' Superscript lookup 21 subtable" foursuperior
Substitution2: "'subs' Subscript lookup 20 subtable" fourinferior
AlternateSubs2: "'aalt' Access All Alternates lookup 3 subtable" foursuperior fourinferior
Substitution2: "'onum' Oldstyle Figures lookup 0 subtable" four.oldstyle
EndChar

StartChar: five
Encoding: 278 53 22
Width: 580
GlyphClass: 2
Flags: MW
HStem: -16 32<184 292.5 184 313.5> 103 104<126 136> 418 34<316.5 351> 566 60<383.5 439.5 383.5 443.5> 680 20G<287 287 559 559>
VStem: 62 44<75 89 62.5 141.5> 137 58 414 94<269 337 219.5 342.5>
LayerCount: 2
Fore
SplineSet
508 284 m 0
 508 155 405 -16 222 -16 c 0
 126 -16 62 36 62 114 c 0
 62 169 98 207 140 207 c 0
 178 207 200 187 200 150 c 0
 200 125 182 102 149 102 c 0
 145 102 139 103 133 103 c 0
 119 103 106 96 106 82 c 0
 106 43 152 16 216 16 c 0
 369 16 414 226 414 312 c 0
 414 373 389 418 313 418 c 0
 276 418 220 395 195 317 c 0
 190 300 179 286 166 286 c 0
 155 286 137 288 137 310 c 0
 137 355 186 370 202 422 c 2
 252 585 l 2
 262 618 266 638 266 658 c 0
 266 666 265 674 263 683 c 1
 287 700 l 1
 308 676 357 626 410 626 c 0
 469 626 518 646 559 700 c 1
 574 685 l 1
 544 638 496 566 391 566 c 0
 344 566 313 589 292 609 c 1
 236 423 l 1
 240 420 l 1
 258 436 303 452 330 452 c 0
 443 452 508 390 508 284 c 0
EndSplineSet
Substitution2: "'lnum' Lining Figures lookup 51 subtable" five
Substitution2: "'tnum' Tabular Numbers lookup 50 subtable" five
Substitution2: "'pnum' Proportional Numbers lookup 49 subtable" five.prop
Substitution2: "'sups' Superscript lookup 21 subtable" fivesuperior
Substitution2: "'subs' Subscript lookup 20 subtable" fiveinferior
AlternateSubs2: "'aalt' Access All Alternates lookup 3 subtable" fivesuperior fiveinferior
Substitution2: "'onum' Oldstyle Figures lookup 0 subtable" five.oldstyle
EndChar

StartChar: six
Encoding: 279 54 23
Width: 580
GlyphClass: 2
Flags: MW
HStem: -16 32<235 311.5 235 336.5> 390 36<328.5 369.5> 668 32<377.5 432 326 449>
VStem: 90 88<131.5 142.5 90 306.5> 422 87<223 307 206 313> 500 48<606.5 638.5>
LayerCount: 2
Fore
SplineSet
260 16 m 0xf8
 363 16 422 162 422 284 c 0
 422 342 397 390 342 390 c 0
 291 390 243 355 203 265 c 0
 184 223 178 165 178 120 c 0
 178 60 210 16 260 16 c 0xf8
429 545 m 0
 429 612 500 588 500 625 c 0xf4
 500 652 469 668 429 668 c 0
 326 668 225 510 203 347 c 1
 210 342 l 1
 245 397 302 426 355 426 c 0
 455 426 509 353 509 261 c 0xf8
 509 151 421 -16 252 -16 c 0
 164 -16 90 51 90 212 c 0
 90 401 221 700 431 700 c 0
 433 700 548 700 548 595 c 0xf4
 548 538 514 502 477 502 c 0
 449 502 429 518 429 545 c 0
EndSplineSet
Substitution2: "'lnum' Lining Figures lookup 51 subtable" six
Substitution2: "'tnum' Tabular Numbers lookup 50 subtable" six
Substitution2: "'pnum' Proportional Numbers lookup 49 subtable" six.prop
Substitution2: "'sups' Superscript lookup 21 subtable" sixsuperior
Substitution2: "'subs' Subscript lookup 20 subtable" sixinferior
AlternateSubs2: "'aalt' Access All Alternates lookup 3 subtable" sixsuperior sixinferior
Substitution2: "'onum' Oldstyle Figures lookup 0 subtable" six.oldstyle
EndChar

StartChar: seven
Encoding: 280 55 24
Width: 580
GlyphClass: 2
Flags: MW
HStem: -17 21G<188.5 227> 530 50<420 530> 612 32<245 322.5> 682 20G<219 238 238 238>
VStem: 144 128<37 94> 219 19<702 702> 554 38<613.5 617.5>
LayerCount: 2
Fore
SplineSet
554 606 m 0xf6
 554 629 528 621 528 651 c 0
 528 673 544 681 555 681 c 0
 586 681 592 654 592 633 c 0
 592 594 557 553 512 501 c 0
 342 303 272 222 272 62 c 0
 272 12 246 -17 208 -17 c 0
 169 -17 144 6 144 54 c 0xfa
 144 134 256 259 320 330 c 2
 508 538 l 1
 504 542 l 1
 491 533 473 530 464 530 c 0
 376 530 354 612 291 612 c 0
 247 612 222 576 191 515 c 2
 170 474 l 1
 151 474 l 1
 219 702 l 1
 238 702 l 1
 235 692 234 682 234 673 c 0
 234 657 239 644 251 644 c 1
 279 669 310 692 354 692 c 0
 433 692 450 580 514 580 c 0
 546 580 554 596 554 606 c 0xf6
EndSplineSet
Substitution2: "'lnum' Lining Figures lookup 51 subtable" seven
Substitution2: "'tnum' Tabular Numbers lookup 50 subtable" seven
Substitution2: "'pnum' Proportional Numbers lookup 49 subtable" seven.prop
Substitution2: "'sups' Superscript lookup 21 subtable" sevensuperior
Substitution2: "'subs' Subscript lookup 20 subtable" seveninferior
AlternateSubs2: "'aalt' Access All Alternates lookup 3 subtable" sevensuperior seveninferior
Substitution2: "'onum' Oldstyle Figures lookup 0 subtable" seven.oldstyle
EndChar

StartChar: eight
Encoding: 281 56 25
Width: 580
GlyphClass: 2
Flags: MW
HStem: -16 32<210 302 210 314.5> 668 32<363 432>
VStem: 68 44<117 176.5> 184 70<504.5 559.5> 414 72<125 162> 524 54<517.5 567.5>
LayerCount: 2
Fore
SplineSet
254 526 m 0
 254 483 266 464 290 443 c 2
 381 363 l 1
 468 376 524 452 524 522 c 0
 524 613 478 668 386 668 c 0
 340 668 254 637 254 526 c 0
486 192 m 0
 486 58 381 -16 248 -16 c 0
 168 -16 68 40 68 161 c 0
 68 192 78 324 251 354 c 1
 220 376 184 430 184 497 c 0
 184 622 281 700 390 700 c 0
 502 700 578 644 578 544 c 0
 578 491 555 430 513 398 c 0
 482 374 435 352 404 347 c 1
 458 301 486 256 486 192 c 0
112 162 m 0
 112 72 160 16 260 16 c 0
 344 16 414 72 414 142 c 0
 414 182 405 223 376 248 c 2
 271 336 l 1
 235 328 200 320 166 287 c 0
 138 260 112 215 112 162 c 0
EndSplineSet
Substitution2: "'lnum' Lining Figures lookup 51 subtable" eight
Substitution2: "'tnum' Tabular Numbers lookup 50 subtable" eight
Substitution2: "'pnum' Proportional Numbers lookup 49 subtable" eight.prop
Substitution2: "'sups' Superscript lookup 21 subtable" eightsuperior
Substitution2: "'subs' Subscript lookup 20 subtable" eightinferior
AlternateSubs2: "'aalt' Access All Alternates lookup 3 subtable" eightsuperior eightinferior
Substitution2: "'onum' Oldstyle Figures lookup 0 subtable" eight.oldstyle
EndChar

StartChar: nine
Encoding: 282 57 26
Width: 580
GlyphClass: 2
Flags: MW
HStem: -16 32<204 258.5 187 310> 258 36<266.5 307.5> 668 32<324.5 401>
VStem: 88 48<45.5 77.5 45.5 117.5> 127 87<377 461 371 478> 458 88<541.5 552.5 377.5 594>
LayerCount: 2
Fore
SplineSet
376 668 m 0xec
 273 668 214 522 214 400 c 0
 214 342 239 294 294 294 c 0
 345 294 393 329 433 419 c 0
 452 461 458 519 458 564 c 0
 458 624 426 668 376 668 c 0xec
207 139 m 0
 207 72 136 96 136 59 c 0xf4
 136 32 167 16 207 16 c 0
 310 16 411 174 433 337 c 1
 426 342 l 1
 391 287 334 258 281 258 c 0
 181 258 127 331 127 423 c 0xec
 127 533 215 700 384 700 c 0
 472 700 546 633 546 472 c 0
 546 283 415 -16 205 -16 c 0
 203 -16 88 -16 88 89 c 0xf4
 88 146 122 182 159 182 c 0
 187 182 207 166 207 139 c 0
EndSplineSet
Substitution2: "'lnum' Lining Figures lookup 51 subtable" nine
Substitution2: "'tnum' Tabular Numbers lookup 50 subtable" nine
Substitution2: "'pnum' Proportional Numbers lookup 49 subtable" nine.prop
Substitution2: "'sups' Superscript lookup 21 subtable" ninesuperior
Substitution2: "'subs' Subscript lookup 20 subtable" nineinferior
AlternateSubs2: "'aalt' Access All Alternates lookup 3 subtable" ninesuperior nineinferior
Substitution2: "'onum' Oldstyle Figures lookup 0 subtable" nine.oldstyle
EndChar

StartChar: colon
Encoding: 283 58 27
Width: 280
GlyphClass: 2
Flags: MW
HStem: -12 124<104 140> 332 124<196 232>
VStem: 60 124<32 68> 152 124<376 412>
LayerCount: 2
Fore
SplineSet
152 394 m 0xd0
 152 430 178 456 214 456 c 0
 250 456 276 430 276 394 c 0
 276 358 250 332 214 332 c 0
 178 332 152 358 152 394 c 0xd0
60 50 m 0xe0
 60 86 86 112 122 112 c 0
 158 112 184 86 184 50 c 0
 184 14 158 -12 122 -12 c 0
 86 -12 60 14 60 50 c 0xe0
EndSplineSet
EndChar

StartChar: semicolon
Encoding: 284 59 28
AltUni2: 00037e.ffffffff.0 00037e.ffffffff.0
Width: 280
GlyphClass: 2
Flags: MW
HStem: -168 21G<30 30> 25 115<103 118.5> 332 124<196 232>
VStem: 145 41<-13.5 6> 152 124<376 412>
LayerCount: 2
Fore
SplineSet
152 394 m 0xe8
 152 430 178 456 214 456 c 0
 250 456 276 430 276 394 c 0
 276 358 250 332 214 332 c 0
 178 332 152 358 152 394 c 0xe8
145 -5 m 0xf0
 145 17 130 25 107 25 c 0
 77 25 60 52 60 77 c 0
 60 116 85 140 121 140 c 0
 166 140 186 91 186 59 c 0
 186 -86 75 -150 30 -168 c 1
 22 -152 l 1
 73 -126 145 -75 145 -5 c 0xf0
EndSplineSet
EndChar

StartChar: less
Encoding: 285 60 29
Width: 940
GlyphClass: 2
Flags: MW
HStem: -156 21G<840 840> 664 20G<840 840>
LayerCount: 2
Fore
SplineSet
84 250 m 1
 84 278 l 1
 840 684 l 1
 860 648 l 1
 146 264 l 1
 860 -120 l 1
 840 -156 l 1
 84 250 l 1
EndSplineSet
EndChar

StartChar: equal
Encoding: 286 61 30
Width: 940
GlyphClass: 2
Flags: MW
HStem: 148 40<56 900 56 900> 338 40<56 900 56 900>
LayerCount: 2
Fore
SplineSet
56 338 m 1
 56 378 l 1
 900 378 l 1
 900 338 l 1
 56 338 l 1
56 148 m 1
 56 188 l 1
 900 188 l 1
 900 148 l 1
 56 148 l 1
EndSplineSet
Substitution2: "'sups' Superscript lookup 21 subtable" uni207C
Substitution2: "'subs' Subscript lookup 20 subtable" uni208C
EndChar

StartChar: greater
Encoding: 287 62 31
Width: 940
GlyphClass: 2
Flags: MW
HStem: -156 21G<100 100> 664 20G<100 100>
LayerCount: 2
Fore
SplineSet
80 -120 m 1
 794 264 l 1
 80 648 l 1
 100 684 l 1
 856 278 l 1
 856 250 l 1
 100 -156 l 1
 80 -120 l 1
EndSplineSet
EndChar

StartChar: question
Encoding: 288 63 32
Width: 436
GlyphClass: 2
Flags: MW
HStem: -12 124<156 192> 154 30<217 255> 664 30<290.5 356>
VStem: 112 124<32 68> 136 42<217.5 252 217.5 267.5> 138 48<561 583.5> 310 20<244 264.5 226 266> 420 72<520 578>
LayerCount: 2
Fore
SplineSet
112 50 m 0xf3
 112 86 138 112 174 112 c 0
 210 112 236 86 236 50 c 0
 236 14 210 -12 174 -12 c 0
 138 -12 112 14 112 50 c 0xf3
186 581 m 0xe7
 186 541 230 564 230 515 c 0
 230 500 217 478 191 478 c 0
 157 478 138 504 138 541 c 0xe7
 138 626 248 694 333 694 c 0
 442 694 492 623 492 534 c 0
 492 472 442 417 382 388 c 2
 249 324 l 2
 206 300 178 268 178 236 c 0
 178 199 204 184 230 184 c 0
 290 184 310 226 310 262 c 0
 310 270 306 284 300 291 c 1
 312 300 l 1
 320 292 330 275 330 254 c 0
 330 198 284 154 226 154 c 0
 178 154 136 188 136 242 c 0xeb
 136 293 172 337 218 364 c 2
 342 438 l 2
 386 462 420 496 420 544 c 0
 420 612 388 664 324 664 c 0
 215 664 186 607 186 581 c 0xe7
EndSplineSet
EndChar

StartChar: at
Encoding: 289 64 33
Width: 820
GlyphClass: 2
Flags: MW
HStem: -18 28<366 509 366 510> 131 24<359 396 593 665> 555 24<471 514> 702 28<372 551>
VStem: 96 48<244.5 439.5 235 458> 254 68<212.5 281.5 201 294> 766 48<349.5 474.5 327.5 493.5>
LayerCount: 2
Fore
SplineSet
96 355 m 0
 96 561 260 730 468 730 c 0
 693 730 814 572 814 377 c 0
 814 278 744 131 586 131 c 0
 536 131 497 159 491 206 c 1
 486 207 l 1
 471 184 426 131 366 131 c 0
 312 131 254 170 254 255 c 0
 254 333 275 426 321 481 c 0
 381 553 445 579 497 579 c 0
 535 579 564 543 568 524 c 1
 573 524 l 1
 584 567 l 1
 656 567 l 1
 572 257 l 2
 568 241 566 226 566 214 c 0
 566 175 584 155 602 155 c 0
 734 155 766 302 766 397 c 0
 766 590 643 702 459 702 c 0
 285 702 144 544 144 335 c 0
 144 135 264 10 468 10 c 0
 550 10 612 47 644 68 c 1
 660 45 l 1
 631 24 562 -18 458 -18 c 0
 231 -18 96 134 96 355 c 0
497 555 m 0
 373 555 322 340 322 223 c 0
 322 179 348 155 370 155 c 0
 442 155 498 246 522 335 c 2
 545 420 l 2
 548 431 550 444 550 457 c 0
 550 504 531 555 497 555 c 0
EndSplineSet
EndChar

StartChar: A
Encoding: 290 65 34
Width: 728
GlyphClass: 2
Flags: MW
HStem: 0 32<-44 1 -36 1 1 31 201 248 368 430 430 441.5 608 656> 244 32<285 472 285 472 263 472> 692 20G<536 560 560 560>
VStem: 472 88<78 244 244 244 276 552 552 552>
AnchorPoint: "Anchor-2" 312 0 basechar 0
AnchorPoint: "Anchor-1" 556 782 basechar 0
AnchorPoint: "Anchor-0" 550 762 basechar 0
LayerCount: 2
Fore
SplineSet
285 276 m 1
 472 276 l 1
 472 552 l 1
 285 276 l 1
-44 0 m 1
 -36 32 l 1
 1 32 l 2
 61 32 104 70 125 104 c 2
 536 712 l 1
 560 712 l 1
 560 75 l 2
 563 40 581 32 608 32 c 2
 664 32 l 1
 656 0 l 1
 360 0 l 1
 368 32 l 1
 430 32 l 2
 453 32 472 37 472 78 c 2
 472 244 l 1
 263 244 l 1
 195 144 l 2
 181 124 161 90 161 66 c 0
 161 48 170 32 201 32 c 2
 256 32 l 1
 248 0 l 1
 -44 0 l 1
EndSplineSet
Substitution2: "'c2sc' Capitals to Small Capitals lookup 2 subtable" a.sc
EndChar

StartChar: B
Encoding: 291 66 35
Width: 690
GlyphClass: 2
Flags: MW
HStem: 0 32<-10 74 -2 74 74 83.5 218 364> 362 32<290 419 281 424> 680 32<182 250 174 530 385 394 394 499>
VStem: 538 106<173.5 258.5> 610 96<528.5 603>
AnchorPoint: "Anchor-2" 226 0 basechar 0
AnchorPoint: "Anchor-1" 458 782 basechar 0
AnchorPoint: "Anchor-0" 452 762 basechar 0
LayerCount: 2
Fore
SplineSet
199 59 m 2xf0
 198 55 197 51 197 48 c 0
 197 37 204 32 218 32 c 2
 381 32 l 2
 480 32 538 132 538 215 c 0
 538 302 500 362 419 362 c 2
 281 362 l 1
 199 59 l 2xf0
-10 0 m 1
 -2 32 l 1
 74 32 l 2
 93 32 103 41 108 59 c 2
 269 653 l 2
 270 657 271 662 271 665 c 0
 271 676 264 680 250 680 c 2
 174 680 l 1
 182 712 l 1
 530 712 l 2
 620 712 706 662 706 559 c 0xe8
 706 438 570 388 485 376 c 1
 484 374 l 1
 568 370 644 310 644 220 c 0
 644 82 486 0 364 0 c 2
 -10 0 l 1
290 394 m 1
 424 394 l 2
 573 394 610 496 610 561 c 0
 610 645 568 680 499 680 c 2
 394 680 l 2
 376 680 365 672 360 653 c 2
 290 394 l 1
EndSplineSet
Substitution2: "'c2sc' Capitals to Small Capitals lookup 2 subtable" b.sc
EndChar

StartChar: C
Encoding: 292 67 36
Width: 670
GlyphClass: 2
Flags: MW
HStem: -18 32<291.5 379.5 291.5 388> 698 32<432.5 502 379 538> 702 20G<677 700 700 700>
VStem: 92 96<156 263 113 369> 613 23<416 416> 677 23<722 722>
AnchorPoint: "Anchor-2" 306 0 basechar 0
AnchorPoint: "Anchor-1" 494 782 basechar 0
AnchorPoint: "Anchor-0" 488 762 basechar 0
LayerCount: 2
Fore
SplineSet
614 479 m 0xbc
 614 519 606 698 470 698 c 0
 395 698 332 660 266 536 c 0
 225 459 188 330 188 196 c 0
 188 30 262 14 321 14 c 0
 438 14 540 126 581 242 c 1
 612 231 l 1
 570 106 472 -18 304 -18 c 0
 208 -18 92 60 92 252 c 0
 92 486 284 730 474 730 c 0xdc
 530 730 567 702 585 684 c 2
 603 666 l 2
 615 654 621 649 632 649 c 0
 661 649 674 702 677 722 c 1
 700 722 l 1
 636 416 l 1
 613 416 l 1
 614 436 614 456 614 479 c 0xbc
EndSplineSet
Substitution2: "'c2sc' Capitals to Small Capitals lookup 2 subtable" c.sc
EndChar

StartChar: D
Encoding: 293 68 37
Width: 750
GlyphClass: 2
Flags: MW
HStem: 0 32<-2 74 74 83.5 218 334 -10 74> 680 32<183 250 174 504 385 394 394 482>
VStem: 630 96<382 528 349 547>
AnchorPoint: "Anchor-2" 226 0 basechar 0
AnchorPoint: "Anchor-1" 464 782 basechar 0
AnchorPoint: "Anchor-0" 458 762 basechar 0
LayerCount: 2
Fore
SplineSet
726 453 m 0
 726 245 566 0 334 0 c 2
 -10 0 l 1
 -2 32 l 1
 74 32 l 2
 93 32 103 41 108 59 c 2
 269 653 l 2
 270 657 271 662 271 665 c 0
 271 676 264 680 250 680 c 2
 174 680 l 1
 183 712 l 1
 504 712 l 2
 647 712 726 603 726 453 c 0
344 32 m 2
 527 32 630 264 630 500 c 0
 630 594 596 680 482 680 c 2
 394 680 l 2
 376 680 365 672 360 653 c 2
 199 59 l 2
 198 55 197 51 197 48 c 0
 197 37 204 32 218 32 c 2
 344 32 l 2
EndSplineSet
Substitution2: "'c2sc' Capitals to Small Capitals lookup 2 subtable" d.sc
EndChar

StartChar: E
Encoding: 294 69 38
Width: 700
GlyphClass: 2
Flags: MW
HStem: 0 32<-10 74 -2 74 74 83.5 218 404 404 418.5> 352 32<287 380 279 395> 680 32<182 250 174 734 385 394 394 558>
VStem: 430 25<202 202> 516 25<526 526>
AnchorPoint: "Anchor-2" 312 0 basechar 0
AnchorPoint: "Anchor-1" 484 782 basechar 0
AnchorPoint: "Anchor-0" 478 762 basechar 0
LayerCount: 2
Fore
SplineSet
-10 0 m 1
 -2 32 l 1
 74 32 l 2
 93 32 103 41 108 59 c 2
 269 653 l 2
 270 657 271 662 271 665 c 0
 271 676 264 680 250 680 c 2
 174 680 l 1
 182 712 l 1
 734 712 l 1
 688 484 l 1
 663 484 l 1
 663 484 666 505 666 532 c 0
 666 650 624 680 558 680 c 2
 394 680 l 2
 376 680 365 672 360 653 c 2
 287 384 l 1
 395 384 l 2
 479 384 501 468 516 526 c 1
 541 526 l 1
 455 202 l 1
 430 202 l 1
 435 224 440 252 440 277 c 0
 440 320 427 352 380 352 c 2
 279 352 l 1
 199 59 l 2
 198 55 197 51 197 48 c 0
 197 37 204 32 218 32 c 2
 404 32 l 2
 433 32 487 45 528 84 c 0
 591 146 634 268 634 268 c 1
 658 268 l 1
 574 0 l 1
 -10 0 l 1
EndSplineSet
Substitution2: "'c2sc' Capitals to Small Capitals lookup 2 subtable" e.sc
EndChar

StartChar: F
Encoding: 295 70 39
Width: 680
GlyphClass: 2
Flags: MW
HStem: 0 32<-10 74 -2 74 74 83.5 218 322> 352 32<287 379 279 394> 680 32<182 250 174 734 385 394 394 558>
VStem: 429 25<202 202> 515 25<526 526>
AnchorPoint: "Anchor-2" 180 0 basechar 0
AnchorPoint: "Anchor-1" 484 782 basechar 0
AnchorPoint: "Anchor-0" 478 762 basechar 0
LayerCount: 2
Fore
SplineSet
-10 0 m 1
 -2 32 l 1
 74 32 l 2
 93 32 103 41 108 59 c 2
 269 653 l 2
 270 657 271 662 271 665 c 0
 271 676 264 680 250 680 c 2
 174 680 l 1
 182 712 l 1
 734 712 l 1
 688 484 l 1
 663 484 l 1
 663 484 666 505 666 532 c 0
 666 650 624 680 558 680 c 2
 394 680 l 2
 376 680 365 672 360 653 c 2
 287 384 l 1
 394 384 l 2
 478 384 500 468 515 526 c 1
 540 526 l 1
 454 202 l 1
 429 202 l 1
 434 224 439 252 439 277 c 0
 439 320 426 352 379 352 c 2
 279 352 l 1
 199 59 l 2
 198 55 197 51 197 48 c 0
 197 37 204 32 218 32 c 2
 330 32 l 1
 322 0 l 1
 -10 0 l 1
EndSplineSet
Substitution2: "'c2sc' Capitals to Small Capitals lookup 2 subtable" f.sc
EndChar

StartChar: G
Encoding: 296 71 40
Width: 740
GlyphClass: 2
Flags: MW
HStem: -18 32<289 340> 304 32<420 512 412 730 648.5 658 658 722> 698 32<432.5 490> 702 20G<701 724 724 724>
VStem: 92 96<168 263 111 369> 537 25<-14 56> 637 23<416 416> 701 23<722 722>
AnchorPoint: "Anchor-2" 312 0 basechar 0
AnchorPoint: "Anchor-1" 494 782 basechar 0
AnchorPoint: "Anchor-0" 488 762 basechar 0
LayerCount: 2
Fore
SplineSet
474 730 m 0xef
 588 730 625 649 657 649 c 0
 687 649 697 700 701 722 c 1
 724 722 l 1xdf
 660 416 l 1
 637 416 l 1
 638 435 638 456 638 479 c 0
 638 507 637 598 595 647 c 0
 562 685 510 698 470 698 c 0
 395 698 333 662 266 536 c 0
 225 459 188 330 188 196 c 0
 188 26 264 14 314 14 c 0
 420 14 502 133 521 224 c 2
 532 277 l 2
 533 281 533 285 533 288 c 0
 533 298 527 304 512 304 c 2
 412 304 l 1
 420 336 l 1
 730 336 l 1
 722 304 l 1
 658 304 l 2
 639 304 628 295 623 277 c 2
 562 -14 l 1
 537 -14 l 1
 537 56 l 2
 537 64 537 97 522 97 c 0
 510 97 498 85 485 70 c 0
 437 19 376 -18 304 -18 c 0
 188 -18 92 84 92 252 c 0
 92 486 282 730 474 730 c 0xef
EndSplineSet
Substitution2: "'salt' Stylistic Alternatives lookup 19 subtable" uniA77D
Substitution2: "'ss02' Style Set 2 lookup 13 subtable" uniA77D
AlternateSubs2: "'aalt' Access All Alternates lookup 3 subtable" uniA77D
Substitution2: "'c2sc' Capitals to Small Capitals lookup 2 subtable" g.sc
EndChar

StartChar: H
Encoding: 297 72 41
Width: 800
GlyphClass: 2
Flags: MW
HStem: 0 32<-10 74 -2 74 74 83.5 218 286 398 474 474 483 618 686> 352 32<287 588 279 596> 680 32<182 250 174 478 384.5 394 394 470 582 650 784.5 794 794 870>
AnchorPoint: "Anchor-2" 346 0 basechar 0
AnchorPoint: "Anchor-1" 558 782 basechar 0
AnchorPoint: "Anchor-0" 552 762 basechar 0
LayerCount: 2
Fore
SplineSet
-10 0 m 1
 -2 32 l 1
 74 32 l 2
 93 32 103 41 108 59 c 2
 269 653 l 2
 270 657 271 661 271 664 c 0
 271 675 264 680 250 680 c 2
 174 680 l 1
 182 712 l 1
 478 712 l 1
 470 680 l 1
 394 680 l 2
 375 680 365 671 360 653 c 2
 287 384 l 1
 596 384 l 1
 669 653 l 2
 670 657 671 661 671 664 c 0
 671 674 664 680 650 680 c 2
 574 680 l 1
 582 712 l 1
 878 712 l 1
 870 680 l 1
 794 680 l 2
 775 680 765 671 760 653 c 2
 599 59 l 2
 598 55 597 51 597 48 c 0
 597 37 604 32 618 32 c 2
 694 32 l 1
 686 0 l 1
 390 0 l 1
 398 32 l 1
 474 32 l 2
 492 32 503 41 508 59 c 2
 588 352 l 1
 279 352 l 1
 199 59 l 2
 198 55 197 51 197 48 c 0
 197 37 204 32 218 32 c 2
 294 32 l 1
 286 0 l 1
 -10 0 l 1
EndSplineSet
Substitution2: "'c2sc' Capitals to Small Capitals lookup 2 subtable" h.sc
EndChar

StartChar: I
Encoding: 298 73 42
Width: 400
GlyphClass: 2
Flags: MW
HStem: 0 32<-10 74 -2 74 74 83.5 218 286> 680 32<182 250 174 478 385 394 394 470>
AnchorPoint: "Anchor-2" 145 0 basechar 0
AnchorPoint: "Anchor-1" 352 782 basechar 0
AnchorPoint: "Anchor-0" 346 762 basechar 0
LayerCount: 2
Fore
SplineSet
-10 0 m 1
 -2 32 l 1
 74 32 l 2
 93 32 103 41 108 59 c 2
 269 653 l 2
 270 657 271 662 271 665 c 0
 271 676 264 680 250 680 c 2
 174 680 l 1
 182 712 l 1
 478 712 l 1
 470 680 l 1
 394 680 l 2
 376 680 365 672 360 653 c 2
 199 59 l 2
 198 55 197 51 197 48 c 0
 197 37 204 32 218 32 c 2
 294 32 l 1
 286 0 l 1
 -10 0 l 1
EndSplineSet
Substitution2: "'c2sc' Capitals to Small Capitals lookup 2 subtable" i.sc
EndChar

StartChar: J
Encoding: 299 74 43
Width: 540
GlyphClass: 2
Flags: MW
HStem: -18 32<130.5 190.5 130.5 200> 91 125<93.5 121.5 79.5 122> 680 32<308 412 300 640 547 556 556 632>
VStem: 14 66<51.5 142.5>
AnchorPoint: "Anchor-2" 172 0 basechar 0
AnchorPoint: "Anchor-1" 494 782 basechar 0
AnchorPoint: "Anchor-0" 488 762 basechar 0
LayerCount: 2
Fore
SplineSet
14 110 m 0
 14 175 55 216 104 216 c 0
 139 216 166 193 166 159 c 0
 166 121 144 91 100 91 c 0
 87 91 80 80 80 68 c 0
 80 35 105 14 156 14 c 0
 225 14 275 74 292 139 c 2
 431 653 l 2
 432 657 433 661 433 665 c 0
 433 675 426 680 412 680 c 2
 300 680 l 1
 308 712 l 1
 640 712 l 1
 632 680 l 1
 556 680 l 2
 538 680 527 672 522 653 c 2
 395 185 l 2
 360 56 252 -18 148 -18 c 0
 63 -18 14 38 14 110 c 0
EndSplineSet
Substitution2: "'c2sc' Capitals to Small Capitals lookup 2 subtable" j.sc
EndChar

StartChar: K
Encoding: 300 75 44
Width: 756
GlyphClass: 2
Flags: MW
HStem: 0 32<-10 74 -2 74 74 83.5 218 286 390 442 442 450.5 640 674> 680 32<182 250 174 478 385 394 394 470 570 586 818 836>
AnchorPoint: "Anchor-2" 336 0 basechar 0
AnchorPoint: "Anchor-1" 538 782 basechar 0
AnchorPoint: "Anchor-0" 532 762 basechar 0
LayerCount: 2
Fore
SplineSet
-10 0 m 1
 -2 32 l 1
 74 32 l 2
 93 32 103 41 108 59 c 2
 269 653 l 2
 270 657 271 662 271 665 c 0
 271 676 264 680 250 680 c 2
 174 680 l 1
 182 712 l 1
 478 712 l 1
 470 680 l 1
 394 680 l 2
 376 680 365 672 360 653 c 2
 280 356 l 1
 578 580 l 2
 615 608 640 628 640 654 c 0
 640 674 612 680 586 680 c 2
 562 680 l 1
 570 712 l 1
 844 712 l 1
 836 680 l 1
 800 680 759 672 691 622 c 2
 448 442 l 1
 570 76 l 2
 582 44 596 32 640 32 c 2
 682 32 l 1
 674 0 l 1
 382 0 l 1
 390 32 l 1
 442 32 l 2
 459 32 477 39 477 61 c 0
 477 66 476 72 474 78 c 2
 375 387 l 1
 267 307 l 1
 199 59 l 2
 198 55 197 51 197 48 c 0
 197 37 204 32 218 32 c 2
 294 32 l 1
 286 0 l 1
 -10 0 l 1
EndSplineSet
Substitution2: "'c2sc' Capitals to Small Capitals lookup 2 subtable" k.sc
EndChar

StartChar: L
Encoding: 301 76 45
Width: 680
GlyphClass: 2
Flags: MW
HStem: 0 32<-10 74 -2 74 74 83.5 218 404 404 418.5> 680 32<183 250 174 478 385 394 394 470>
AnchorPoint: "Anchor-2" 312 0 basechar 0
AnchorPoint: "Anchor-1" 350 782 basechar 0
AnchorPoint: "Anchor-0" 344 762 basechar 0
LayerCount: 2
Fore
SplineSet
-10 0 m 1
 -2 32 l 1
 74 32 l 2
 93 32 103 41 108 59 c 2
 269 653 l 2
 270 657 271 662 271 665 c 0
 271 676 264 680 250 680 c 2
 174 680 l 1
 183 712 l 1
 478 712 l 1
 470 680 l 1
 394 680 l 2
 376 680 365 672 360 653 c 2
 199 59 l 2
 198 55 197 51 197 48 c 0
 197 37 204 32 218 32 c 2
 404 32 l 2
 433 32 487 45 528 84 c 0
 591 146 634 268 634 268 c 1
 658 268 l 1
 574 0 l 1
 -10 0 l 1
EndSplineSet
Substitution2: "'c2sc' Capitals to Small Capitals lookup 2 subtable" l.sc
EndChar

StartChar: M
Encoding: 302 77 46
Width: 894
GlyphClass: 2
Flags: MW
HStem: -12 21G<348 373 348 348> 0 32<-10 46 -2 46 46 69 220 260 492 568 568 577.5 714 782> 680 32<182 261 174 436 328 328 328 348 755 755 755 770 878.5 888 888 964>
VStem: 348 88<157 680 680 680>
AnchorPoint: "Anchor-2" 386 0 basechar 0
AnchorPoint: "Anchor-1" 592 782 basechar 0
AnchorPoint: "Anchor-0" 586 762 basechar 0
LayerCount: 2
Fore
SplineSet
-10 0 m 1x70
 -2 32 l 1
 46 32 l 2
 92 32 123 76 137 126 c 2
 280 653 l 2
 281 657 282 662 282 665 c 0
 282 676 275 680 261 680 c 2
 174 680 l 1
 182 712 l 1
 436 712 l 1
 436 157 l 1
 740 712 l 1
 972 712 l 1
 964 680 l 1
 888 680 l 2
 869 680 859 672 854 653 c 2
 693 59 l 2
 692 55 691 52 691 49 c 0
 691 38 699 32 714 32 c 2
 790 32 l 1
 782 0 l 1
 484 0 l 1
 492 32 l 1
 568 32 l 2x70
 587 32 597 41 602 59 c 2
 770 680 l 1
 755 680 l 1
 373 -12 l 1
 348 -12 l 1xb0
 348 680 l 1
 328 680 l 1
 176 126 l 2
 172 111 170 97 170 84 c 0
 170 54 183 32 220 32 c 2
 268 32 l 1
 260 0 l 1
 -10 0 l 1x70
EndSplineSet
Substitution2: "'c2sc' Capitals to Small Capitals lookup 2 subtable" m.sc
EndChar

StartChar: N
Encoding: 303 78 47
Width: 790
GlyphClass: 2
Flags: MW
HStem: -18 21G<533 573 533 533> 0 32<-10 46 -2 46 46 68.5 220 260> 680 32<182 261 174 364 614 654 809.5 828 828 876>
AnchorPoint: "Anchor-2" 376 0 basechar 0
AnchorPoint: "Anchor-1" 546 782 basechar 0
AnchorPoint: "Anchor-0" 540 762 basechar 0
LayerCount: 2
Fore
SplineSet
-10 0 m 1x60
 -2 32 l 1
 46 32 l 2x60
 91 32 124 76 137 126 c 2
 280 653 l 2
 281 657 282 661 282 664 c 0
 282 675 275 680 261 680 c 2
 174 680 l 1
 182 712 l 1
 364 712 l 1
 573 129 l 1
 698 586 l 2
 703 603 705 617 705 629 c 0
 705 664 687 680 654 680 c 2
 606 680 l 1
 614 712 l 1
 884 712 l 1
 876 680 l 1
 828 680 l 2
 791 680 753 646 737 586 c 2
 573 -18 l 1
 533 -18 l 1xa0
 312 603 l 1
 307 603 l 1
 176 126 l 2
 172 111 170 96 170 83 c 0
 170 53 182 32 220 32 c 2
 268 32 l 1
 260 0 l 1
 -10 0 l 1x60
EndSplineSet
Substitution2: "'c2sc' Capitals to Small Capitals lookup 2 subtable" n.sc
EndChar

StartChar: O
Encoding: 304 79 48
Width: 710
GlyphClass: 2
Flags: MW
HStem: -18 32<273 396> 698 32<382 505>
VStem: 92 96<176 316 133 383> 590 96<396 534 327 579>
AnchorPoint: "Anchor-2" 310 0 basechar 0
AnchorPoint: "Anchor-1" 500 782 basechar 0
AnchorPoint: "Anchor-0" 494 762 basechar 0
LayerCount: 2
Fore
SplineSet
466 698 m 0
 296 698 188 440 188 192 c 0
 188 74 234 14 312 14 c 0
 482 14 590 272 590 520 c 0
 590 638 544 698 466 698 c 0
92 248 m 0
 92 518 290 730 474 730 c 0
 606 730 686 606 686 462 c 0
 686 192 488 -18 304 -18 c 0
 172 -18 92 104 92 248 c 0
EndSplineSet
Substitution2: "'c2sc' Capitals to Small Capitals lookup 2 subtable" o.sc
EndChar

StartChar: P
Encoding: 305 80 49
Width: 654
GlyphClass: 2
Flags: MW
HStem: 0 32<-10 74 -2 74 74 83.5 218 322> 328 32<281 394 272 415> 680 32<183 250 174 524 385 394 394 502>
VStem: 594 96<507 605.5 495 611>
AnchorPoint: "Anchor-2" 180 0 basechar 0
AnchorPoint: "Anchor-1" 458 782 basechar 0
AnchorPoint: "Anchor-0" 452 762 basechar 0
LayerCount: 2
Fore
SplineSet
-10 0 m 1
 -2 32 l 1
 74 32 l 2
 93 32 103 41 108 59 c 2
 269 653 l 2
 270 658 271 662 271 665 c 0
 271 675 265 680 250 680 c 2
 174 680 l 1
 183 712 l 1
 524 712 l 2
 620 712 690 657 690 554 c 0
 690 436 576 328 394 328 c 2
 272 328 l 1
 199 59 l 2
 198 55 198 51 198 48 c 0
 198 35 204 32 218 32 c 2
 330 32 l 1
 322 0 l 1
 -10 0 l 1
415 360 m 2
 508 360 594 442 594 572 c 0
 594 650 549 680 502 680 c 2
 394 680 l 2
 376 680 365 672 360 653 c 2
 281 360 l 1
 415 360 l 2
EndSplineSet
Substitution2: "'c2sc' Capitals to Small Capitals lookup 2 subtable" p.sc
EndChar

StartChar: Q
Encoding: 306 81 50
Width: 710
GlyphClass: 2
Flags: MW
HStem: -184 52<434.5 448> -30 20G<548 548> -18 32<296.5 310.5> 155 28<300 330> 698 32<383 505>
VStem: 92 96<176 322 151.5 383> 231 28<73.5 106.5 58 120.5> 324 88<-123 -39> 548 24<-17 -10> 590 96<419 534 338 579>
AnchorPoint: "Anchor-2" 176 0 basechar 0
AnchorPoint: "Anchor-1" 500 782 basechar 0
AnchorPoint: "Anchor-0" 494 762 basechar 0
LayerCount: 2
Fore
SplineSet
188 192 m 0x9fc0
 188 111 209 63 240 38 c 1
 244 38 l 1
 236 49 231 65 231 82 c 0
 231 159 278 183 322 183 c 0
 374 183 405 129 411 45 c 1
 526 128 590 318 590 520 c 0
 590 638 544 698 466 698 c 0
 300 698 188 452 188 192 c 0x9fc0
92 248 m 0
 92 518 290 730 474 730 c 0
 606 730 686 608 686 460 c 0
 686 216 523 45 412 5 c 1
 412 -39 l 2
 412 -72 412 -132 457 -132 c 0
 506 -132 533 -64 548 -10 c 1xdfc0
 572 -17 l 1
 539 -158 472 -184 424 -184 c 0
 369 -184 324 -155 324 -91 c 0
 324 -78 327 -59 331 -40 c 2
 337 -15 l 1
 322 -18 317 -18 304 -18 c 0xbfc0
 172 -18 92 104 92 248 c 0
259 82 m 0
 259 34 282 14 311 14 c 0xbfc0
 323 14 334 16 344 18 c 1
 352 55 l 2
 354 63 355 70 355 81 c 0
 355 110 352 155 308 155 c 0
 278 155 259 131 259 82 c 0
EndSplineSet
Substitution2: "'c2sc' Capitals to Small Capitals lookup 2 subtable" q.sc
EndChar

StartChar: R
Encoding: 307 82 51
Width: 720
GlyphClass: 2
Flags: MW
HStem: -12 52<565.5 598.5> 0 32<-10 74 -2 74 74 83.5 218 310> 356 32<288 410 410 414 279 410> 680 32<182 250 174 493 385 394 394 474>
VStem: 454 94<64 91 64 115.5> 490 80<253 267.5 196.5 304.5> 576 96<514.5 604 506 610> 669 25<155 162>
AnchorPoint: "Anchor-2" 336 0 basechar 0
AnchorPoint: "Anchor-1" 458 782 basechar 0
AnchorPoint: "Anchor-0" 452 762 basechar 0
LayerCount: 2
Fore
SplineSet
-10 0 m 1x74
 -2 32 l 1
 74 32 l 2
 93 32 103 41 108 59 c 2
 269 653 l 2
 270 657 271 662 271 665 c 0
 271 676 264 680 250 680 c 2
 174 680 l 1
 182 712 l 1
 493 712 l 2
 605 712 672 658 672 550 c 0
 672 462 578 387 480 369 c 1
 479 365 l 1
 510 350 570 315 570 220 c 0x76
 570 173 548 110 548 72 c 0
 548 56 555 40 576 40 c 0xba
 632 40 657 120 669 162 c 1
 694 155 l 1
 680 107 651 -12 546 -12 c 0
 499 -12 454 8 454 81 c 0xb9
 454 150 490 229 490 277 c 0
 490 332 456 356 414 356 c 2
 279 356 l 1
 199 59 l 2
 198 55 198 51 198 48 c 0
 198 37 204 32 218 32 c 2
 318 32 l 1
 310 0 l 1
 -10 0 l 1x74
288 388 m 1
 410 388 l 2
 510 388 576 455 576 574 c 0
 576 646 539 680 474 680 c 2
 394 680 l 2
 376 680 365 672 360 653 c 2
 288 388 l 1
EndSplineSet
Substitution2: "'c2sc' Capitals to Small Capitals lookup 2 subtable" r.sc
EndChar

StartChar: S
Encoding: 308 83 52
Width: 620
GlyphClass: 2
Flags: MW
HStem: -18 32<268.5 375 268.5 389> -10 21G<34 34 34 57> 698 32<334.5 423.5 334.5 434.5> 702 20G<605 628 628 628>
VStem: 34 23<-10 -10> 114 23<306 306> 177 54<529.5 593> 491 64<132.5 181> 547 23<462 472 462 519> 605 23<722 722>
AnchorPoint: "Anchor-2" 282 0 basechar 0
AnchorPoint: "Anchor-1" 431 782 basechar 0
AnchorPoint: "Anchor-0" 425 762 basechar 0
LayerCount: 2
Fore
SplineSet
34 -10 m 1x4f40
 114 306 l 1
 137 306 l 1
 134 288 132 271 132 253 c 0
 132 124 218 14 319 14 c 0
 431 14 491 61 491 152 c 0
 491 210 457 239 410 268 c 2
 294 339 l 2
 218 384 177 428 177 520 c 0
 177 666 273 730 396 730 c 0xaf40
 451 730 506 689 525 672 c 0
 538 660 545 656 554 656 c 0
 579 656 599 701 605 722 c 1
 628 722 l 1
 570 462 l 1
 547 462 l 1
 547 472 l 2x1ec0
 547 566 482 698 387 698 c 0
 279 698 231 629 231 565 c 0
 231 494 289 460 333 435 c 2
 427 380 l 2
 507 332 555 294 555 198 c 0
 555 67 467 -18 311 -18 c 0xaf40
 215 -18 148 44 139 53 c 0
 127 65 118 73 109 73 c 0
 84 73 63 10 57 -10 c 1
 34 -10 l 1x4f40
EndSplineSet
Substitution2: "'c2sc' Capitals to Small Capitals lookup 2 subtable" s.sc
EndChar

StartChar: T
Encoding: 309 84 53
Width: 690
GlyphClass: 2
Flags: MW
HStem: 0 32<106 214 114 214 214 223 356 448> 444 21G<116 141 116 116 656 656 656 681> 680 32<331 357 357 390 525.5 535 535 568>
VStem: 116 25<444 444.5>
AnchorPoint: "Anchor-2" 278 0 basechar 0
AnchorPoint: "Anchor-1" 484 782 basechar 0
AnchorPoint: "Anchor-0" 478 762 basechar 0
LayerCount: 2
Fore
SplineSet
106 0 m 1
 114 32 l 1
 214 32 l 2
 232 32 242 41 247 59 c 2
 408 653 l 2
 409 658 410 662 410 665 c 0
 410 676 402 680 390 680 c 2
 357 680 l 2
 305 680 259 643 242 627 c 0
 177 564 141 445 141 444 c 1
 116 444 l 1
 196 712 l 1
 744 712 l 1
 681 444 l 1
 656 444 l 1
 656 444 668 494 668 548 c 0
 668 659 607 680 568 680 c 2
 535 680 l 2
 516 680 503 672 499 653 c 2
 338 59 l 2
 337 55 337 51 337 48 c 0
 337 37 342 32 356 32 c 2
 456 32 l 1
 448 0 l 1
 106 0 l 1
EndSplineSet
Substitution2: "'c2sc' Capitals to Small Capitals lookup 2 subtable" t.sc
EndChar

StartChar: U
Encoding: 310 85 54
Width: 784
GlyphClass: 2
Flags: MW
HStem: -18 32<323.5 434.5 323.5 444> 680 32<164 232 156 460 366.5 376 376 452 610 650 803 824 824 872>
VStem: 130 84<123.5 163 109.5 185.5>
AnchorPoint: "Anchor-2" 344 0 basechar 0
AnchorPoint: "Anchor-1" 550 782 basechar 0
AnchorPoint: "Anchor-0" 544 762 basechar 0
LayerCount: 2
Fore
SplineSet
130 176 m 0
 130 195 134 217 139 238 c 2
 251 653 l 2
 252 657 253 661 253 664 c 0
 253 675 246 680 232 680 c 2
 156 680 l 1
 164 712 l 1
 460 712 l 1
 452 680 l 1
 376 680 l 2
 357 680 347 672 342 653 c 2
 223 211 l 2
 218 190 214 172 214 154 c 0
 214 65 278 14 369 14 c 0
 500 14 564 108 588 198 c 2
 695 588 l 2
 698 600 701 620 701 630 c 0
 701 653 691 680 650 680 c 2
 602 680 l 1
 610 712 l 1
 880 712 l 1
 872 680 l 1
 824 680 l 2
 782 680 747 639 733 586 c 2
 629 208 l 2
 595 83 527 -18 361 -18 c 0
 202 -18 130 71 130 176 c 0
EndSplineSet
Substitution2: "'c2sc' Capitals to Small Capitals lookup 2 subtable" u.sc
EndChar

StartChar: V
Encoding: 311 86 55
Width: 752
GlyphClass: 2
Flags: MW
HStem: -18 21G<248 273 248 248> 680 32<140 452 148 200 357.5 374 374 444 558 594 780 807 807 846>
VStem: 248 88<139 633 139 636 139 636>
AnchorPoint: "Anchor-2" 278 0 basechar 0
AnchorPoint: "Anchor-1" 502 782 basechar 0
AnchorPoint: "Anchor-0" 496 762 basechar 0
LayerCount: 2
Fore
SplineSet
140 680 m 1
 148 712 l 1
 452 712 l 1
 444 680 l 1
 374 680 l 2
 341 680 336 660 336 633 c 2
 336 139 l 1
 596 536 l 2
 621 574 638 606 638 638 c 0
 638 662 623 680 594 680 c 2
 550 680 l 1
 558 712 l 1
 854 712 l 1
 846 680 l 1
 807 680 l 2
 753 680 708 642 687 607 c 2
 273 -18 l 1
 248 -18 l 1
 248 636 l 1
 244 672 227 680 200 680 c 2
 140 680 l 1
EndSplineSet
Substitution2: "'c2sc' Capitals to Small Capitals lookup 2 subtable" v.sc
EndChar

StartChar: W
Encoding: 312 87 56
Width: 1078
GlyphClass: 2
Flags: MW
HStem: -18 21G<244 269 244 244 607 632 607 607> 680 32<140 444 148 197 351.5 368 368 436 516 560 730 747 747 804 884 931 1102.5 1128 1128 1172>
VStem: 244 88<145 633 145 636 145 636> 607 88<156 517 517 517 156 654>
AnchorPoint: "Anchor-2" 468 0 basechar 0
AnchorPoint: "Anchor-1" 674 782 basechar 0
AnchorPoint: "Anchor-0" 668 762 basechar 0
LayerCount: 2
Fore
SplineSet
140 680 m 1
 148 712 l 1
 444 712 l 1
 436 680 l 1
 368 680 l 2
 335 680 332 660 332 633 c 2
 332 145 l 1
 576 536 l 2
 605 580 607 620 607 636 c 0
 607 672 587 680 560 680 c 2
 508 680 l 1
 516 712 l 1
 812 712 l 1
 804 680 l 1
 747 680 l 2
 713 680 695 654 695 617 c 2
 695 156 l 1
 933 531 l 2
 951 559 971 599 971 636 c 0
 971 654 954 680 931 680 c 2
 876 680 l 1
 884 712 l 1
 1180 712 l 1
 1172 680 l 1
 1128 680 l 2
 1077 680 1046 640 1025 605 c 2
 632 -18 l 1
 607 -18 l 1
 607 517 l 1
 269 -18 l 1
 244 -18 l 1
 244 636 l 1
 240 672 224 680 197 680 c 2
 140 680 l 1
EndSplineSet
Substitution2: "'c2sc' Capitals to Small Capitals lookup 2 subtable" w.sc
EndChar

StartChar: X
Encoding: 313 88 57
Width: 840
GlyphClass: 2
Flags: MW
HStem: 0 32<10 62 19 62 62 92 305 330 440 504 504 514 699 752> 680 32<160 220 152 472 411.5 419 419 464 574 603 822.5 842 842 878>
AnchorPoint: "Anchor-2" 376 0 basechar 0
AnchorPoint: "Anchor-1" 542 782 basechar 0
AnchorPoint: "Anchor-0" 536 762 basechar 0
LayerCount: 2
Fore
SplineSet
10 0 m 1
 19 32 l 1
 62 32 l 2
 122 32 163 66 201 108 c 2
 418 345 l 1
 289 630 l 2
 274 663 266 680 220 680 c 2
 152 680 l 1
 160 712 l 1
 472 712 l 1
 464 680 l 1
 419 680 l 2
 404 680 383 666 383 645 c 0
 383 640 384 635 386 630 c 2
 483 417 l 1
 634 582 l 2
 648 597 654 613 654 638 c 0
 654 668 633 680 603 680 c 2
 566 680 l 1
 574 712 l 1
 886 712 l 1
 878 680 l 1
 842 680 l 2
 803 680 758 667 722 628 c 2
 499 381 l 1
 642 68 l 2
 657 36 672 32 699 32 c 2
 760 32 l 1
 752 0 l 1
 432 0 l 1
 440 32 l 1
 504 32 l 2
 524 32 542 42 542 62 c 0
 542 67 541 73 538 80 c 2
 434 309 l 1
 281 140 l 2
 259 116 253 100 253 74 c 0
 253 35 286 32 305 32 c 2
 339 32 l 1
 330 0 l 1
 10 0 l 1
EndSplineSet
Substitution2: "'c2sc' Capitals to Small Capitals lookup 2 subtable" x.sc
EndChar

StartChar: Y
Encoding: 314 89 58
Width: 720
GlyphClass: 2
Flags: MW
HStem: 0 32<106 214 114 214 214 223 356 448> 680 32<122 188 114 438 357 371 371 430 534 569 749.5 775 775 822>
AnchorPoint: "Anchor-2" 278 0 basechar 0
AnchorPoint: "Anchor-1" 496 782 basechar 0
AnchorPoint: "Anchor-0" 490 762 basechar 0
LayerCount: 2
Fore
SplineSet
106 0 m 1
 114 32 l 1
 214 32 l 2
 232 32 242 40 247 58 c 2
 317 318 l 1
 238 636 l 2
 227 669 215 680 188 680 c 2
 114 680 l 1
 122 712 l 1
 438 712 l 1
 430 680 l 1
 371 680 l 2
 343 680 327 663 327 645 c 0
 327 641 327 637 329 633 c 2
 395 355 l 1
 567 553 l 2
 586 575 617 609 617 641 c 0
 617 661 608 680 569 680 c 2
 526 680 l 1
 534 712 l 1
 830 712 l 1
 822 680 l 1
 775 680 l 2
 724 680 683 639 656 607 c 2
 411 329 l 1
 338 58 l 2
 336 54 336 49 336 46 c 0
 336 36 342 32 356 32 c 2
 456 32 l 1
 448 0 l 1
 106 0 l 1
EndSplineSet
Substitution2: "'c2sc' Capitals to Small Capitals lookup 2 subtable" y.sc
EndChar

StartChar: Z
Encoding: 315 90 59
Width: 680
GlyphClass: 2
Flags: MW
HStem: 0 32<158 380 380 395.5 158 560> 680 32<343 372 372 552 664 664>
VStem: 116 25<480 480.5>
AnchorPoint: "Anchor-2" 278 0 basechar 0
AnchorPoint: "Anchor-1" 434 782 basechar 0
AnchorPoint: "Anchor-0" 428 762 basechar 0
LayerCount: 2
Fore
SplineSet
36 0 m 1
 44 31 l 1
 552 680 l 1
 372 680 l 2
 314 680 269 657 216 602 c 0
 159 543 141 481 141 480 c 1
 116 480 l 1
 200 712 l 1
 672 712 l 1
 664 680 l 1
 158 32 l 1
 380 32 l 2
 411 32 458 37 506 79 c 0
 576 140 621 268 621 268 c 1
 646 268 l 1
 560 0 l 1
 36 0 l 1
EndSplineSet
Substitution2: "'c2sc' Capitals to Small Capitals lookup 2 subtable" z.sc
EndChar

StartChar: bracketleft
Encoding: 316 91 60
Width: 380
GlyphClass: 2
Flags: MW
HStem: -198 30<125 234> 682 30<354 474 354 354>
LayerCount: 2
Fore
SplineSet
24 -198 m 1
 272 712 l 1
 482 712 l 1
 474 682 l 1
 354 682 l 2
 338 680 333 678 328 662 c 2
 111 -136 l 2
 110 -140 110 -143 110 -147 c 0
 110 -158 114 -166 125 -168 c 2
 242 -168 l 1
 234 -198 l 1
 24 -198 l 1
EndSplineSet
EndChar

StartChar: backslash
Encoding: 317 92 61
Width: 440
GlyphClass: 2
Flags: MW
HStem: 710 20G<72 112 112 112>
LayerCount: 2
Fore
SplineSet
72 730 m 1
 112 730 l 1
 410 -198 l 1
 370 -198 l 1
 72 730 l 1
EndSplineSet
EndChar

StartChar: bracketright
Encoding: 318 93 62
Width: 380
GlyphClass: 2
Flags: MW
HStem: -198 30<-90 38 -82 38 -82 120> 682 30<158 267 150 368>
LayerCount: 2
Fore
SplineSet
-90 -198 m 1
 -82 -168 l 1
 38 -168 l 2
 54 -166 59 -164 64 -148 c 2
 281 650 l 2
 282 654 282 657 282 661 c 0
 282 672 278 680 267 682 c 2
 150 682 l 1
 158 712 l 1
 368 712 l 1
 120 -198 l 1
 -90 -198 l 1
EndSplineSet
EndChar

StartChar: asciicircum
Encoding: 319 94 63
Width: 580
GlyphClass: 2
Flags: MW
HStem: 680 20G<316 316>
LayerCount: 2
Fore
SplineSet
88 336 m 1
 316 700 l 1
 544 336 l 1
 496 336 l 1
 316 622 l 1
 136 336 l 1
 88 336 l 1
EndSplineSet
EndChar

StartChar: underscore
Encoding: 320 95 64
Width: 520
GlyphClass: 2
Flags: MW
HStem: -158 40<-41 489 -31 479>
LayerCount: 2
Fore
SplineSet
-41 -158 m 1
 -31 -118 l 1
 489 -118 l 1
 479 -158 l 1
 -41 -158 l 1
EndSplineSet
EndChar

StartChar: grave
Encoding: 321 96 65
AltUni2: 0002cb.ffffffff.0 0002cb.ffffffff.0
Width: 440
GlyphClass: 2
Flags: MW
HStem: 508 168<235 313>
VStem: 214 76<637 637 637 645>
LayerCount: 2
Fore
SplineSet
214 640 m 0
 214 650 220 676 250 676 c 0
 271 676 281 664 290 637 c 2
 330 518 l 1
 313 508 l 1
 228 605 l 2
 219 615 214 629 214 640 c 0
EndSplineSet
EndChar

StartChar: a
Encoding: 322 97 66
Width: 536
GlyphClass: 2
Flags: MW
HStem: -12 24<142 189> -12 34<373 396> 424 20G<395 461 461 461> 432 24<235.5 296 217 297.5>
VStem: 42 72<84.5 150.5 68.5 210.5> 304 58<40.5 100>
AnchorPoint: "Anchor-2" 212 0 basechar 0
AnchorPoint: "Anchor-1" 328 528 basechar 0
AnchorPoint: "Anchor-0" 322 508 basechar 0
LayerCount: 2
Fore
SplineSet
42 125 m 0x8c
 42 296 157 456 277 456 c 0x9c
 315 456 354 432 369 368 c 1
 373 366 l 1
 395 444 l 1
 461 444 l 1
 376 129 l 2
 372 113 362 73 362 49 c 0
 362 32 366 22 380 22 c 0
 418 22 459 92 489 182 c 1
 509 176 l 1
 481 94 430 -12 362 -12 c 0x6c
 310 -12 304 50 304 90 c 0
 304 110 305 117 305 117 c 1
 302 119 l 1
 282 76 224 -12 154 -12 c 0
 82 -12 42 44 42 125 c 0x8c
277 432 m 0
 194 432 114 216 114 85 c 0
 114 52 124 12 160 12 c 0
 265 12 344 256 344 340 c 0
 344 400 318 432 277 432 c 0
EndSplineSet
Substitution2: "'smcp' Lowercase to Small Capitals lookup 1 subtable" a.sc
EndChar

StartChar: b
Encoding: 323 98 67
Width: 480
GlyphClass: 2
Flags: MW
HStem: -12 24<170 219> 432 24<308 345.5> 688 24<109 191 102 286>
VStem: 68 70<92 144> 374 72<307.5 344.5 266 365.5>
AnchorPoint: "Anchor-2" 196 0 basechar 0
AnchorPoint: "Anchor-1" 372 528 basechar 0
LayerCount: 2
Fore
SplineSet
330 432 m 0
 229 432 138 216 138 106 c 0
 138 78 138 12 202 12 c 0
 253 12 289 75 313 120 c 0
 348 186 374 266 374 349 c 0
 374 382 361 432 330 432 c 0
68 136 m 0
 68 152 69 168 74 185 c 2
 206 666 l 2
 207 670 208 674 208 677 c 0
 208 686 202 688 191 688 c 2
 102 688 l 1
 109 712 l 1
 286 712 l 1
 188 353 l 1
 193 349 l 1
 226 407 278 456 338 456 c 0
 413 456 446 379 446 310 c 0
 446 222 387 106 335 52 c 0
 294 10 250 -12 188 -12 c 0
 126 -12 68 42 68 136 c 0
EndSplineSet
Substitution2: "'smcp' Lowercase to Small Capitals lookup 1 subtable" b.sc
EndChar

StartChar: c
Encoding: 324 99 68
Width: 424
GlyphClass: 2
Flags: MW
HStem: -12 24<175 227.5> 432 24<259 305>
VStem: 52 72<112.5 152.5 66 196.5> 333 53<336 406>
AnchorPoint: "Anchor-2" 180 0 basechar 0
AnchorPoint: "Anchor-1" 320 528 basechar 0
AnchorPoint: "Anchor-0" 314 508 basechar 0
LayerCount: 2
Fore
SplineSet
286 432 m 0
 185 432 124 207 124 98 c 0
 124 34 159 12 191 12 c 0
 289 12 339 133 347 155 c 1
 368 148 l 1
 338 62 269 -12 186 -12 c 0
 103 -12 52 67 52 158 c 0
 52 235 80 318 140 381 c 0
 183 426 228 456 290 456 c 0
 333 456 386 432 386 356 c 0
 386 316 360 286 329 286 c 0
 302 286 290 307 290 324 c 0
 290 348 307 365 322 376 c 0
 332 384 333 394 333 402 c 0
 333 410 324 432 286 432 c 0
EndSplineSet
Substitution2: "'smcp' Lowercase to Small Capitals lookup 1 subtable" c.sc
EndChar

StartChar: d
Encoding: 325 100 69
Width: 530
GlyphClass: 2
Flags: MW
HStem: -12 24<142 189> -12 34<373 396> 432 24<235.5 297.5> 688 24<357 438 350 534>
VStem: 42 72<84.5 150.5 68.5 187> 304 58<40.5 100>
AnchorPoint: "Anchor-2" 212 0 basechar 0
AnchorPoint: "Anchor-1" 286 528 basechar 0
LayerCount: 2
Fore
SplineSet
277 432 m 0xbc
 194 432 114 216 114 85 c 0
 114 52 124 12 160 12 c 0
 265 12 344 256 344 340 c 0
 344 400 318 432 277 432 c 0xbc
42 125 m 0
 42 249 141 456 283 456 c 0
 321 456 358 427 369 368 c 1
 373 366 l 1
 454 666 l 2
 454 667 455 670 455 673 c 0
 455 680 452 688 438 688 c 2
 350 688 l 1
 357 712 l 1
 534 712 l 1
 376 129 l 2
 372 113 362 73 362 49 c 0
 362 32 366 22 380 22 c 0
 418 22 460 94 489 182 c 1
 509 176 l 1
 480 94 430 -12 362 -12 c 0x7c
 310 -12 304 50 304 90 c 0
 304 110 305 117 305 117 c 1
 302 119 l 1
 282 76 224 -12 154 -12 c 0
 82 -12 42 44 42 125 c 0
EndSplineSet
Substitution2: "'smcp' Lowercase to Small Capitals lookup 1 subtable" d.sc
EndChar

StartChar: e
Encoding: 326 101 70
Width: 410
GlyphClass: 2
Flags: MW
HStem: -12 24<175 227.5> 432 24<261.5 302>
VStem: 52 72<112.5 119 66 240> 333 48<344 398.5>
AnchorPoint: "Anchor-2" 182 0 basechar 0
AnchorPoint: "Anchor-1" 318 528 basechar 0
AnchorPoint: "Anchor-0" 312 508 basechar 0
LayerCount: 2
Fore
SplineSet
52 158 m 0
 52 322 177 456 290 456 c 0
 338 456 381 436 381 372 c 0
 381 316 340 275 280 247 c 0
 229 223 174 218 138 215 c 1
 132 191 124 140 124 98 c 0
 124 34 159 12 191 12 c 0
 289 12 339 133 347 155 c 1
 368 148 l 1
 338 62 269 -12 186 -12 c 0
 103 -12 52 67 52 158 c 0
144 240 m 1
 190 243 333 253 333 378 c 0
 333 419 313 432 291 432 c 0
 232 432 182 364 164 313 c 0
 159 298 146 249 144 240 c 1
EndSplineSet
Substitution2: "'smcp' Lowercase to Small Capitals lookup 1 subtable" e.sc
EndChar

StartChar: f
Encoding: 327 102 71
Width: 316
GlyphClass: 2
Flags: HMW
HStem: -238 24<-88.5027 -61.5027 -88.5027 -22.5027> 428 28<80.9973 176.997 74.9973 184.997 252.997 358.997> 678 24<377.497 404.497>
VStem: -160 52<-181.5 -180 -198 -147.5> 424 52<644 645.5 611.5 662>
LayerCount: 2
Fore
SplineSet
366 601 m 0
 364 634 396 633 394 655 c 0
 394 669 381 678 364 678 c 0
 327 678 280 660 247 506 c 2
 237 456 l 1
 349 456 l 1
 345 428 l 1
 231 428 l 1
 143 -5 l 2
 121 -112 71 -238 -52 -238 c 0
 -100 -238 -130 -197 -132 -166 c 0
 -134 -129 -113 -104 -85 -104 c 0
 -64 -104 -52 -117 -50 -137 c 0
 -48 -170 -80 -169 -78 -191 c 0
 -78 -205 -65 -214 -48 -214 c 0
 -11 -214 37 -196 69 -42 c 2
 163 428 l 1
 61 428 l 1
 65 456 l 1
 169 456 l 1
 173 469 l 2
 198 576 244 702 368 702 c 0
 416 702 446 661 448 630 c 0
 450 593 429 568 401 568 c 0
 380 568 368 581 366 601 c 0
EndSplineSet
Substitution2: "'smcp' Lowercase to Small Capitals lookup 1 subtable" f.sc
EndChar

StartChar: g
Encoding: 328 103 72
Width: 480
GlyphClass: 2
Flags: MW
HStem: -248 24<76 108.5 76 167.5> -12 24<142 189> 424 20G<395 461 461 461> 432 24<235.5 297.5>
VStem: -17 66<-201 -130> 42 72<84.5 150.5 68.5 187>
AnchorPoint: "Anchor-1" 328 528 basechar 0
AnchorPoint: "Anchor-0" 322 508 basechar 0
LayerCount: 2
Fore
SplineSet
277 432 m 0xd4
 194 432 114 216 114 85 c 0
 114 52 124 12 160 12 c 0
 265 12 344 256 344 340 c 0
 344 400 318 432 277 432 c 0xd4
42 125 m 0
 42 249 141 456 283 456 c 0xd4
 321 456 358 427 369 368 c 1
 373 366 l 1
 395 444 l 1
 461 444 l 1
 338 -7 l 2
 313 -98 235 -248 100 -248 c 0
 30 -248 -17 -212 -17 -150 c 0
 -17 -110 11 -90 37 -90 c 0
 65 -90 77 -112 77 -130 c 0
 77 -148 68 -162 58 -170 c 0
 51 -176 49 -180 49 -192 c 0xe8
 49 -210 60 -224 92 -224 c 0
 125 -224 213 -224 268 -16 c 2
 268 -16 303 106 305 117 c 1
 302 119 l 1
 282 76 224 -12 154 -12 c 0
 82 -12 42 44 42 125 c 0
EndSplineSet
Substitution2: "'salt' Stylistic Alternatives lookup 19 subtable" uni1D79
Substitution2: "'ss02' Style Set 2 lookup 13 subtable" uni1D79
AlternateSubs2: "'aalt' Access All Alternates lookup 3 subtable" uni1D79
Substitution2: "'smcp' Lowercase to Small Capitals lookup 1 subtable" g.sc
EndChar

StartChar: h
Encoding: 329 104 73
Width: 512
GlyphClass: 2
Flags: MW
HStem: -12 30<342 371.5> 0 21G<24 24 24 90> 426 30<333.5 361> 688 24<109 190 102 286>
VStem: 275 52<50 59 41.5 98.5> 375 52<385 392 345.5 402.5>
AnchorPoint: "Anchor-2" 200 0 basechar 0
AnchorPoint: "Anchor-1" 363 772 basechar 0
AnchorPoint: "Anchor-0" 356 752 basechar 0
LayerCount: 2
Fore
SplineSet
24 0 m 1x7c
 206 666 l 2
 207 670 208 673 208 676 c 0
 208 685 202 688 190 688 c 2
 102 688 l 1
 109 712 l 1
 286 712 l 1
 154 233 l 1
 158 230 l 1
 193 293 267 456 362 456 c 0
 401 456 427 424 427 360 c 0
 427 331 417 281 407 258 c 2
 343 109 l 2
 338 98 327 68 327 50 c 0
 327 33 334 18 350 18 c 0
 402 18 449 130 468 182 c 1
 488 176 l 1
 456 82 404 -12 339 -12 c 0xbc
 306 -12 275 16 275 84 c 0
 275 113 284 160 295 186 c 2
 359 335 l 2
 364 346 375 376 375 394 c 0
 375 411 369 426 353 426 c 0
 314 426 272 391 226 313 c 0
 170 219 127 123 110 66 c 2
 90 0 l 1
 24 0 l 1x7c
EndSplineSet
Substitution2: "'smcp' Lowercase to Small Capitals lookup 1 subtable" h.sc
EndChar

StartChar: i
Encoding: 330 105 74
Width: 334
GlyphClass: 2
Flags: MW
HStem: -12 30<164 193.5> 426 30<153.5 183> 586 104<253 283>
VStem: 97 52<50 59 41.5 98.5> 197 52<385 392 345.5 402.5> 216 104<623 653>
AnchorPoint: "Anchor-2" 158 0 basechar 0
LayerCount: 2
Fore
SplineSet
216 638 m 0xf4
 216 668 238 690 268 690 c 0
 298 690 320 668 320 638 c 0
 320 608 298 586 268 586 c 0
 238 586 216 608 216 638 c 0xf4
36 268 m 1
 68 362 121 456 186 456 c 0
 219 456 249 424 249 360 c 0
 249 331 239 281 229 258 c 2
 165 109 l 2
 160 98 149 68 149 50 c 0
 149 33 156 18 172 18 c 0
 224 18 271 130 290 182 c 1
 310 176 l 1
 278 82 226 -12 161 -12 c 0
 128 -12 97 16 97 84 c 0
 97 113 106 160 117 186 c 2
 181 335 l 2
 186 346 197 376 197 394 c 0xf8
 197 411 191 426 175 426 c 0
 123 426 75 314 56 262 c 1
 36 268 l 1
EndSplineSet
Substitution2: "Single Substitution lookup 31 subtable" dotlessi
AlternateSubs2: "'aalt' Access All Alternates lookup 3 subtable" dotlessi
Substitution2: "'smcp' Lowercase to Small Capitals lookup 1 subtable" i.sc
EndChar

StartChar: j
Encoding: 331 106 75
Width: 326
GlyphClass: 2
Flags: MW
HStem: -248 24<-17 10 -17 30> 422 34<177 204> 586 104<277 307>
VStem: -97 59<-193.5 -183 -205.5 -144> 218 62<378 394.5 371 399> 240 104<623 653>
LayerCount: 2
Fore
SplineSet
240 638 m 0xf4
 240 668 262 690 292 690 c 0
 322 690 344 668 344 638 c 0
 344 608 322 586 292 586 c 0
 262 586 240 608 240 638 c 0xf4
1 -133 m 0
 1 -174 -38 -170 -38 -196 c 0
 -38 -215 -27 -224 -7 -224 c 0
 27 -224 66 -203 87 -127 c 0
 94 -102 104 -49 112 -21 c 2
 204 318 l 2
 208 335 218 364 218 392 c 0
 218 406 212 422 196 422 c 0
 149 422 101 326 76 254 c 1
 56 260 l 1
 82 337 138 456 216 456 c 0
 270 456 280 407 280 382 c 0xf8
 280 360 273 323 269 306 c 2
 173 -46 l 2
 146 -145 73 -248 -13 -248 c 0
 -46 -248 -97 -224 -97 -163 c 0
 -97 -125 -67 -95 -37 -95 c 0
 -13 -95 1 -110 1 -133 c 0
EndSplineSet
Substitution2: "Single Substitution lookup 31 subtable" dotlessj
AlternateSubs2: "'aalt' Access All Alternates lookup 3 subtable" dotlessj
Substitution2: "'smcp' Lowercase to Small Capitals lookup 1 subtable" j.sc
EndChar

StartChar: k
Encoding: 332 107 76
Width: 490
GlyphClass: 2
Flags: MW
HStem: -12 35<316.5 329 316.5 341.5> 0 21G<24 90 24 24> 226 24<160 214 154 223> 416 40<357 415> 688 24<109 190 102 286>
VStem: 236 68<47 67 47 92> 260 64<164 185.5 140.5 194> 386 70<393.5 401 365.5 405>
AnchorPoint: "Anchor-2" 196 0 basechar 0
AnchorPoint: "Anchor-1" 286 782 basechar 0
AnchorPoint: "Anchor-0" 280 762 basechar 0
LayerCount: 2
Fore
SplineSet
370 356 m 0x7b
 370 378 386 387 386 400 c 0
 386 410 382 416 367 416 c 0
 347 416 338 399 331 377 c 0
 318 334 287 254 259 243 c 1
 258 238 l 1
 289 235 324 209 324 162 c 0x7b
 324 119 304 81 304 53 c 0
 304 41 308 23 325 23 c 0
 333 23 337 24 350 34 c 0
 390 64 416 140 432 182 c 1
 452 176 l 1
 423 92 375 -12 308 -12 c 0
 273 -12 236 8 236 68 c 0xbd
 236 116 260 147 260 181 c 0
 260 207 254 226 214 226 c 2
 154 226 l 1
 90 0 l 1
 24 0 l 1
 206 666 l 2
 207 670 208 673 208 676 c 0
 208 685 202 688 190 688 c 2
 102 688 l 1
 109 712 l 1
 286 712 l 1
 160 250 l 1
 223 250 l 2
 262 250 292 324 309 379 c 0
 328 442 366 456 394 456 c 0
 436 456 456 418 456 384 c 0
 456 347 434 322 406 322 c 0
 390 322 370 333 370 356 c 0x7b
EndSplineSet
Substitution2: "'smcp' Lowercase to Small Capitals lookup 1 subtable" k.sc
EndChar

StartChar: l
Encoding: 333 108 77
Width: 290
GlyphClass: 2
Flags: MW
HStem: -12 34<123.5 150> 688 24<109 190 102 284>
VStem: 54 58<40.5 100>
AnchorPoint: "Anchor-2" 112 0 basechar 0
AnchorPoint: "Anchor-1" 260 782 basechar 0
AnchorPoint: "Anchor-0" 254 762 basechar 0
LayerCount: 2
Fore
SplineSet
54 90 m 0
 54 110 61 138 64 150 c 2
 206 666 l 2
 207 670 208 673 208 676 c 0
 208 685 202 688 190 688 c 2
 102 688 l 1
 109 712 l 1
 284 712 l 1
 128 138 l 2
 124 122 112 74 112 49 c 0
 112 32 116 22 131 22 c 0
 172 22 213 105 239 182 c 1
 259 176 l 1
 236 112 188 -12 112 -12 c 0
 61 -12 54 50 54 90 c 0
EndSplineSet
Substitution2: "'smcp' Lowercase to Small Capitals lookup 1 subtable" l.sc
EndChar

StartChar: m
Encoding: 334 109 78
Width: 806
GlyphClass: 2
Flags: MW
HStem: -12 30<636 665.5> 0 21G<84 150 84 84 318 384 318 318> 426 30<365.5 395.5 627.5 655>
VStem: 183 58<343 402.5> 418 58<374 387.5 345 401> 569 52<50 59 41.5 98.5> 669 52<385 392 345.5 402.5>
AnchorPoint: "Anchor-2" 352 0 basechar 0
AnchorPoint: "Anchor-1" 494 528 basechar 0
AnchorPoint: "Anchor-0" 488 508 basechar 0
LayerCount: 2
Fore
SplineSet
36 268 m 1x7e
 57 328 107 456 182 456 c 0
 235 456 241 393 241 353 c 0
 241 333 227 260 214 233 c 1
 218 230 l 1
 254 296 332 456 399 456 c 0
 458 456 476 414 476 361 c 0
 476 329 454 250 449 233 c 1
 452 230 l 1
 487 293 561 456 656 456 c 0
 695 456 721 424 721 360 c 0
 721 331 711 281 701 258 c 2
 637 109 l 2
 632 98 621 68 621 50 c 0
 621 33 628 18 644 18 c 0
 696 18 743 130 762 182 c 1
 782 176 l 1
 750 82 698 -12 633 -12 c 0xbe
 600 -12 569 16 569 84 c 0
 569 113 578 160 589 186 c 2
 653 335 l 2
 658 346 669 376 669 394 c 0
 669 411 663 426 647 426 c 0
 608 426 566 391 520 313 c 0
 464 219 421 123 404 66 c 2
 384 0 l 1
 318 0 l 1
 401 309 l 2
 406 328 418 361 418 387 c 0
 418 415 405 426 386 426 c 0
 329 426 198 157 170 66 c 2
 150 0 l 1
 84 0 l 1
 168 309 l 2
 172 325 183 369 183 394 c 0
 183 411 179 422 164 422 c 0
 116 422 75 315 56 262 c 1
 36 268 l 1x7e
EndSplineSet
Substitution2: "'smcp' Lowercase to Small Capitals lookup 1 subtable" m.sc
EndChar

StartChar: n
Encoding: 335 110 79
Width: 572
GlyphClass: 2
Flags: MW
HStem: -12 30<402 431.5> 0 21G<84 150 84 84> 422 34<145 171.5>
VStem: 183 58<340 403.5> 335 52<50 59 41.5 98.5> 435 52<385 392 345.5 402.5>
AnchorPoint: "Anchor-2" 260 0 basechar 0
AnchorPoint: "Anchor-1" 356 528 basechar 0
AnchorPoint: "Anchor-0" 350 508 basechar 0
LayerCount: 2
Fore
SplineSet
36 268 m 1x7c
 57 328 107 456 183 456 c 0
 234 456 241 394 241 354 c 0
 241 326 224 255 215 233 c 1
 218 230 l 1
 253 293 327 456 422 456 c 0
 461 456 487 424 487 360 c 0
 487 331 477 281 467 258 c 2
 403 109 l 2
 398 98 387 68 387 50 c 0
 387 33 394 18 410 18 c 0
 462 18 509 130 528 182 c 1
 548 176 l 1
 516 82 464 -12 399 -12 c 0xbc
 366 -12 335 16 335 84 c 0
 335 113 344 160 355 186 c 2
 419 335 l 2
 424 346 435 376 435 394 c 0
 435 411 429 426 413 426 c 0
 374 426 332 391 286 313 c 0
 230 219 187 123 170 66 c 2
 150 0 l 1
 84 0 l 1
 168 310 l 2
 172 326 183 370 183 395 c 0
 183 412 179 422 164 422 c 0
 123 422 82 339 56 262 c 1
 36 268 l 1x7c
EndSplineSet
Substitution2: "'smcp' Lowercase to Small Capitals lookup 1 subtable" n.sc
EndChar

StartChar: o
Encoding: 336 111 80
Width: 462
GlyphClass: 2
Flags: MW
HStem: -12 24<168 220 168 251> 432 24<234.5 312>
VStem: 52 72<104 149 78 234> 354 72<308 340 210 366>
AnchorPoint: "Anchor-2" 191 0 basechar 0
AnchorPoint: "Anchor-1" 320 528 basechar 0
AnchorPoint: "Anchor-0" 314 508 basechar 0
LayerCount: 2
Fore
SplineSet
290 432 m 0
 179 432 124 194 124 104 c 0
 124 52 146 12 190 12 c 0
 250 12 283 74 307 130 c 0
 334 193 354 276 354 340 c 0
 354 392 334 432 290 432 c 0
52 164 m 0
 52 304 164 456 294 456 c 0
 358 456 426 400 426 280 c 0
 426 140 316 -12 186 -12 c 0
 122 -12 52 44 52 164 c 0
EndSplineSet
Substitution2: "'smcp' Lowercase to Small Capitals lookup 1 subtable" o.sc
EndChar

StartChar: p
Encoding: 337 112 81
Width: 540
GlyphClass: 2
Flags: HMW
HStem: -238 28<-68 6 6 14 116 230 -76 6> -12 24<248 308.5 246.5 327> 422 34<144 169.5> 432 24<355 402>
VStem: 182 58<351 404.5> 430 72<293.5 359.5 233.5 375.5>
AnchorPoint: "Anchor-1" 354 528 basechar 0
AnchorPoint: "Anchor-0" 348 508 basechar 0
LayerCount: 2
Fore
SplineSet
384 432 m 0xdc
 279 432 200 188 200 104 c 0
 200 44 226 12 267 12 c 0
 350 12 430 228 430 359 c 0
 430 392 420 432 384 432 c 0xdc
502 319 m 0
 502 148 387 -12 267 -12 c 0
 229 -12 190 12 175 76 c 1
 171 78 l 1
 101 -188 l 2
 100 -192 99 -195 99 -198 c 0
 99 -206 104 -210 116 -210 c 2
 238 -210 l 1
 230 -238 l 1
 -76 -238 l 1
 -68 -210 l 1
 6 -210 l 2
 22 -210 29 -204 33 -188 c 2
 170 321 l 2
 172.142890048 328.961540399 179.918724251 364.773103015 187 391 c 0
 192.098632812 409.883789062 194 416 196 422 c 0
 202.016601562 440.049804688 128 327 95 264 c 1
 54 271 l 1
 78 306 89 322 190 472 c 4
 220.181299226 516.823711721 220.969635242 530.368121129 243 532 c 0xec
 270 534 249.933618117 405.557454115 244 366 c 0
 241 346 239 327 239 327 c 1
 242 325 l 1
 262 368 320 456 390 456 c 0
 462 456 502 400 502 319 c 0
EndSplineSet
Substitution2: "'smcp' Lowercase to Small Capitals lookup 1 subtable" p.sc
EndChar

StartChar: q
Encoding: 338 113 82
Width: 480
GlyphClass: 2
Flags: MW
HStem: -238 28<74 195 195 203 307 373 66 195> -12 24<142 189> 424 20G<444 462 462 462> 432 24<235.5 297.5>
VStem: 42 72<84.5 150.5 68.5 187>
AnchorPoint: "Anchor-1" 328 528 basechar 0
AnchorPoint: "Anchor-0" 322 508 basechar 0
LayerCount: 2
Fore
SplineSet
277 432 m 0xd8
 194 432 114 216 114 85 c 0
 114 52 124 12 160 12 c 0
 265 12 344 256 344 340 c 0
 344 400 318 432 277 432 c 0xd8
42 125 m 0
 42 249 141 456 283 456 c 0xd8
 320 456 361 430 373 349 c 1
 378 349 l 1
 444 444 l 1
 462 444 l 1xe8
 290 -188 l 2
 289 -191 289 -194 289 -197 c 0
 289 -206 294 -210 307 -210 c 2
 381 -210 l 1
 373 -238 l 1
 66 -238 l 1
 74 -210 l 1
 195 -210 l 2
 211 -210 218 -204 222 -188 c 2
 222 -188 303 106 305 117 c 1
 302 119 l 1
 277 65 224 -12 154 -12 c 0
 82 -12 42 44 42 125 c 0
EndSplineSet
Substitution2: "'smcp' Lowercase to Small Capitals lookup 1 subtable" q.sc
EndChar

StartChar: r
Encoding: 339 114 83
Width: 430
GlyphClass: 2
Flags: MW
HStem: 0 21G<84 150 84 84> 422 34<145 171.5>
VStem: 183 58<344 403.5> 367 79<403 404 371 412>
AnchorPoint: "Anchor-2" 128 0 basechar 0
AnchorPoint: "Anchor-1" 296 528 basechar 0
AnchorPoint: "Anchor-0" 290 508 basechar 0
LayerCount: 2
Fore
SplineSet
345 362 m 0
 345 393 367 397 367 409 c 0
 367 415 366 421 354 421 c 0
 304 421 203 174 169 62 c 2
 150 0 l 1
 84 0 l 1
 168 310 l 2
 172 326 183 370 183 395 c 0
 183 412 179 422 164 422 c 0
 123 422 81 336 56 262 c 1
 36 268 l 1
 57 328 107 456 183 456 c 0
 234 456 241 394 241 354 c 0
 241 334 235 306 232 296 c 1
 239 294 l 1
 273 365 322 456 379 456 c 0
 426 456 446 421 446 387 c 0
 446 355 424 320 384 320 c 0
 361 320 345 338 345 362 c 0
EndSplineSet
Substitution2: "'smcp' Lowercase to Small Capitals lookup 1 subtable" r.sc
EndChar

StartChar: s
Encoding: 340 115 84
Width: 420
GlyphClass: 2
Flags: MW
HStem: -12 24<154 208.5 154 220> 432 24<242 283>
VStem: 24 45<77.5 90 45 118.5> 118 48<327 363> 280 56<100.5 108.5> 345 53<330.5 396.5>
AnchorPoint: "Anchor-2" 156 0 basechar 0
AnchorPoint: "Anchor-1" 296 528 basechar 0
AnchorPoint: "Anchor-0" 290 508 basechar 0
LayerCount: 2
Fore
SplineSet
306 324 m 0
 306 362 345 360 345 380 c 0
 345 413 300 432 266 432 c 0
 218 432 166 404 166 345 c 0
 166 309 177 301 195 289 c 2
 288 219 l 2
 311 202 336 180 336 136 c 0
 336 65 275 -12 165 -12 c 0
 69 -12 24 49 24 106 c 0
 24 131 39 172 79 172 c 0
 97 172 116 158 116 133 c 0
 116 87 69 113 69 67 c 0
 69 23 137 12 171 12 c 0
 246 12 280 52 280 96 c 0
 280 121 270 147 248 163 c 2
 165 226 l 2
 137 244 118 272 118 317 c 0
 118 409 200 456 272 456 c 0
 359 456 398 380 398 344 c 0
 398 317 383 287 346 287 c 0
 327 287 306 301 306 324 c 0
EndSplineSet
Substitution2: "'smcp' Lowercase to Small Capitals lookup 1 subtable" s.sc
EndChar

StartChar: t
Encoding: 341 116 85
Width: 320
GlyphClass: 2
Flags: MW
HStem: -12 35<128 163.5 128 163.5> 416 28<73 135 66 143 209 315> 664 20G<208 274 274 274>
VStem: 52 58<47.5 59.5 47.5 89.5> 237 20<176 182>
AnchorPoint: "Anchor-2" 120 0 basechar 0
AnchorPoint: "Anchor-1" 266 782 basechar 0
AnchorPoint: "Anchor-0" 260 762 basechar 0
LayerCount: 2
Fore
SplineSet
139 23 m 0
 188 23 215 104 237 182 c 1
 257 176 l 1
 235 85 201 -12 126 -12 c 0
 83 -12 52 19 52 72 c 0
 52 107 59 138 63 154 c 2
 135 416 l 1
 66 416 l 1
 73 444 l 1
 143 444 l 1
 208 684 l 1
 274 684 l 1
 209 444 l 1
 322 444 l 1
 315 416 l 1
 201 416 l 1
 118 108 l 2
 114 95 110 67 110 52 c 0
 110 43 117 23 139 23 c 0
EndSplineSet
Substitution2: "'smcp' Lowercase to Small Capitals lookup 1 subtable" t.sc
EndChar

StartChar: u
Encoding: 342 117 86
Width: 572
GlyphClass: 2
Flags: MW
HStem: -12 30<163 190.5 163 209.5> 424 20G<434 500 500 500> 426 30<152.5 182>
VStem: 97 52<52 59 41.5 98.5> 197 52<385 394 345.5 402.5> 343 58<40.5 104>
AnchorPoint: "Anchor-2" 262 0 basechar 0
AnchorPoint: "Anchor-1" 354 528 basechar 0
AnchorPoint: "Anchor-0" 348 508 basechar 0
LayerCount: 2
Fore
SplineSet
36 268 m 1xbc
 68 362 120 456 185 456 c 0xbc
 218 456 249 428 249 360 c 0
 249 331 240 284 229 258 c 2
 165 109 l 2
 160 98 149 68 149 50 c 0
 149 33 155 18 171 18 c 0
 210 18 252 53 298 131 c 0
 354 225 397 321 414 378 c 2
 434 444 l 1
 500 444 l 1xdc
 416 134 l 2
 412 118 401 74 401 49 c 0
 401 32 405 22 420 22 c 0
 461 22 502 105 528 182 c 1
 548 176 l 1
 527 116 477 -12 401 -12 c 0
 350 -12 343 50 343 90 c 0
 343 118 360 189 369 211 c 1
 366 214 l 1
 331 151 257 -12 162 -12 c 0
 123 -12 97 20 97 84 c 0
 97 113 107 163 117 186 c 2
 181 335 l 2
 186 346 197 376 197 394 c 0
 197 411 190 426 174 426 c 0
 122 426 75 314 56 262 c 1
 36 268 l 1xbc
EndSplineSet
Substitution2: "'smcp' Lowercase to Small Capitals lookup 1 subtable" u.sc
EndChar

StartChar: v
Encoding: 343 118 87
Width: 472
GlyphClass: 2
Flags: MW
HStem: -12 24<174.5 257 174.5 276> 348 108 426 30<152.5 182>
VStem: 97 52<52 59 37 98.5> 197 52<385 394 345.5 402.5> 416 36<303 324.5>
AnchorPoint: "Anchor-2" 182 0 basechar 0
AnchorPoint: "Anchor-1" 312 528 basechar 0
AnchorPoint: "Anchor-0" 306 508 basechar 0
LayerCount: 2
Fore
SplineSet
36 268 m 1xbc
 68 362 120 456 185 456 c 0xbc
 218 456 249 428 249 360 c 0
 249 331 240 284 229 258 c 2
 165 109 l 2
 160 98 149 68 149 50 c 0
 149 24 159 12 190 12 c 0
 324 12 416 220 416 310 c 0
 416 339 399 345 386 348 c 0
 366 352 332 370 332 406 c 0
 332 437 352 456 381 456 c 0xdc
 435 456 452 394 452 344 c 0
 452 262 374 -12 178 -12 c 0
 139 -12 97 20 97 84 c 0
 97 113 107 163 117 186 c 2
 181 335 l 2
 186 346 197 376 197 394 c 0
 197 411 190 426 174 426 c 0
 122 426 75 314 56 262 c 1
 36 268 l 1xbc
EndSplineSet
Substitution2: "'smcp' Lowercase to Small Capitals lookup 1 subtable" v.sc
EndChar

StartChar: w
Encoding: 344 119 88
Width: 716
GlyphClass: 2
Flags: MW
HStem: -12 24<172 205.5 422.5 501> 348 108 424 20G<434 500 500 500> 426 30<152.5 182>
VStem: 97 52<52 59 37 98.5> 197 52<385 394 345.5 402.5> 343 58<44 53 38 93> 660 36<303 324.5>
AnchorPoint: "Anchor-2" 324 0 basechar 0
AnchorPoint: "Anchor-1" 462 528 basechar 0
AnchorPoint: "Anchor-0" 456 508 basechar 0
LayerCount: 2
Fore
SplineSet
36 268 m 1x9f
 68 362 120 456 185 456 c 0x9f
 218 456 249 428 249 360 c 0
 249 331 240 284 229 258 c 2
 165 109 l 2
 160 98 149 68 149 50 c 0
 149 24 160 12 184 12 c 0
 262 12 368 202 402 324 c 2
 434 444 l 1
 500 444 l 1xaf
 409 108 l 2
 403 85 401 60 401 46 c 0
 401 30 411 12 434 12 c 0
 568 12 660 220 660 310 c 0
 660 339 645 345 630 348 c 0
 610 352 576 370 576 406 c 0
 576 437 596 456 625 456 c 0xcf
 679 456 696 394 696 344 c 0
 696 262 618 -12 422 -12 c 0
 380 -12 343 10 343 78 c 0
 343 108 346 123 352 145 c 1
 346 147 l 1
 307 68 237 -12 174 -12 c 0
 132 -12 97 20 97 84 c 0
 97 113 107 163 117 186 c 2
 181 335 l 2
 186 346 197 376 197 394 c 0
 197 411 190 426 174 426 c 0
 122 426 75 314 56 262 c 1
 36 268 l 1x9f
EndSplineSet
Substitution2: "'smcp' Lowercase to Small Capitals lookup 1 subtable" w.sc
EndChar

StartChar: x
Encoding: 345 120 89
Width: 564
GlyphClass: 2
Flags: MW
HStem: -12 24<94.5 128 325 372> 432 24<197 244 441 474.5>
VStem: 25 54<23 77.5> 490 54<398.5 403 366.5 421>
AnchorPoint: "Anchor-2" 230 0 basechar 0
AnchorPoint: "Anchor-1" 360 528 basechar 0
AnchorPoint: "Anchor-0" 356 508 basechar 0
LayerCount: 2
Fore
SplineSet
469 456 m 0
 519 456 544 421 544 385 c 0
 544 348 521 306 480 306 c 0
 458 306 442 322 442 346 c 0
 442 396 490 381 490 416 c 0
 490 426 481 432 468 432 c 0
 400 432 354 340 325 242 c 2
 300 150 l 2
 292 123 292 98 292 84 c 0
 292 46 306 12 344 12 c 0
 400 12 458 90 485 155 c 1
 506 148 l 1
 477 76 417 -12 336 -12 c 0
 274 -12 251 41 248 89 c 1
 244 91 l 1
 205 30 156 -12 100 -12 c 0
 50 -12 25 23 25 59 c 0
 25 96 48 138 89 138 c 0
 111 138 127 122 127 98 c 0
 127 72 112 57 96 50 c 0
 83 44 79 41 79 28 c 0
 79 18 88 12 101 12 c 0
 169 12 217 102 244 202 c 2
 269 294 l 2
 277 323 277 346 277 360 c 0
 277 398 263 432 225 432 c 0
 169 432 111 354 84 289 c 1
 63 296 l 1
 92 368 152 456 233 456 c 0
 295 456 318 403 321 355 c 1
 325 353 l 1
 364 414 413 456 469 456 c 0
EndSplineSet
Substitution2: "'smcp' Lowercase to Small Capitals lookup 1 subtable" x.sc
EndChar

StartChar: y
Encoding: 346 121 90
Width: 512
GlyphClass: 2
Flags: MW
HStem: -248 24<117 155.5 117 221.5> -12 24<172 205.5> 424 20G<435 501 501 501> 426 30<152.5 182>
VStem: 24 66<-201 -130> 97 52<52 59 37 98.5> 197 52<385 394 345.5 402.5>
AnchorPoint: "Anchor-2" 156 -206 basechar 0
AnchorPoint: "Anchor-1" 354 528 basechar 0
AnchorPoint: "Anchor-0" 348 508 basechar 0
LayerCount: 2
Fore
SplineSet
24 -150 m 0xee
 24 -110 52 -90 78 -90 c 0
 106 -90 118 -112 118 -130 c 0
 118 -148 109 -162 99 -170 c 0
 92 -176 90 -180 90 -192 c 0
 90 -210 101 -224 133 -224 c 0
 178 -224 208 -213 243 -170 c 0
 282 -122 300 -50 309 -16 c 2
 352 145 l 1
 346 147 l 1
 307 68 237 -12 174 -12 c 0
 132 -12 97 20 97 84 c 0
 97 113 107 163 117 186 c 2
 181 335 l 2
 186 346 197 376 197 394 c 0
 197 411 190 426 174 426 c 0
 122 426 75 314 56 262 c 1
 36 268 l 1
 68 362 120 456 185 456 c 0xde
 218 456 249 428 249 360 c 0
 249 331 240 284 229 258 c 2
 165 109 l 2
 160 98 149 68 149 50 c 0
 149 24 160 12 184 12 c 0
 262 12 368 202 402 324 c 2
 435 444 l 1
 501 444 l 1
 383 0 l 2
 367 -57 299 -248 144 -248 c 0
 74 -248 24 -212 24 -150 c 0xee
EndSplineSet
Substitution2: "'smcp' Lowercase to Small Capitals lookup 1 subtable" y.sc
EndChar

StartChar: z
Encoding: 347 122 91
Width: 440
GlyphClass: 2
Flags: MW
HStem: -12 64<207.5 276.5> 336 30<323.5 325.5> 384 72<178 224>
VStem: 26 34<50.5 68 50.5 81> 78 16<286 293> 361 19<163 171> 369 41<355.5 421 379 393>
AnchorPoint: "Anchor-2" 168 0 basechar 0
AnchorPoint: "Anchor-1" 300 528 basechar 0
AnchorPoint: "Anchor-0" 294 508 basechar 0
LayerCount: 2
Fore
SplineSet
60 60 m 0xfc
 60 41 92 48 92 19 c 0
 92 4 84 -12 62 -12 c 0
 41 -12 26 5 26 30 c 0
 26 132 122 206 197 237 c 0
 311 284 353 309 371 352 c 1
 371 352 369 355 369 356 c 1
 349 341 333 336 318 336 c 0
 257 336 246 384 202 384 c 0
 136 384 108 322 94 286 c 1
 78 293 l 1
 92 344 140 456 216 456 c 0
 286 456 307 366 340 366 c 0
 360 366 369 374 369 384 c 0
 369 402 344 398 344 424 c 0
 344 441 352 456 372 456 c 0
 399 456 410 434 410 408 c 0xfa
 410 341 332 256 239 216 c 0
 105 159 81 143 73 107 c 1
 159 86 171 52 244 52 c 0
 312 52 346 124 361 171 c 1
 380 163 l 1
 359 94 320 -12 233 -12 c 0
 139 -12 119 76 81 76 c 0
 75 76 60 76 60 60 c 0xfc
EndSplineSet
Substitution2: "'smcp' Lowercase to Small Capitals lookup 1 subtable" z.sc
EndChar

StartChar: braceleft
Encoding: 348 123 92
Width: 420
GlyphClass: 2
Flags: MW
HStem: 258 18<125 146> 706 24<466 472>
VStem: 106 48<-100.5 -63.5 -119 -23.5> 208 48<167 201.5 122.5 228.5> 260 74<425 536 475 536 475 549.5>
LayerCount: 2
Fore
SplineSet
106 -71 m 0
 106 24 208 127 208 207 c 0
 208 250 172 258 120 258 c 1
 125 276 l 1
 197 276 260 286 260 425 c 2
 260 473 l 2
 260 626 341 692 466 730 c 1
 472 706 l 1
 373 675 337 654 334 536 c 2
 334 475 l 2
 331 398 305 301 194 268 c 1
 193 266 l 1
 224 255 256 229 256 174 c 0
 256 71 154 -28 154 -99 c 0
 154 -139 192 -156 234 -172 c 1
 215 -196 l 1
 145 -171 106 -130 106 -71 c 0
EndSplineSet
EndChar

StartChar: bar
Encoding: 349 124 93
Width: 284
GlyphClass: 2
Flags: MW
HStem: 710 20G<144 188 188 188>
VStem: 144 44<-198 730 -198 730>
LayerCount: 2
Fore
SplineSet
144 -198 m 1
 144 730 l 1
 188 730 l 1
 188 -198 l 1
 144 -198 l 1
EndSplineSet
EndChar

StartChar: braceright
Encoding: 350 125 94
Width: 420
GlyphClass: 2
Flags: MW
HStem: -196 24<-8 -2> 258 18<318 339> 710 20G<249 249>
VStem: 130 74<-2 59 59 59> 208 48<332.5 367 305.5 411.5> 310 48<597.5 634.5 557.5 653>
LayerCount: 2
Fore
SplineSet
-8 -172 m 1
 91 -141 127 -120 130 -2 c 2
 130 59 l 2
 133 136 159 233 270 266 c 1
 271 268 l 1
 240 279 208 305 208 360 c 0
 208 463 310 562 310 633 c 0
 310 673 272 690 230 706 c 1
 249 730 l 1
 319 705 358 664 358 605 c 0
 358 510 256 407 256 327 c 0
 256 284 292 276 344 276 c 1
 339 258 l 1
 267 258 204 248 204 109 c 2
 204 61 l 2
 204 -92 123 -158 -2 -196 c 1
 -8 -172 l 1
EndSplineSet
EndChar

StartChar: asciitilde
Encoding: 351 126 95
Width: 660
GlyphClass: 2
Flags: MW
HStem: 170 62<504 548.5> 290 62<135.5 178.5>
VStem: 60 34<234 258.5 229 277> 590 34<263.5 288 245 293>
LayerCount: 2
Fore
SplineSet
510 170 m 0
 390 170 223 290 134 290 c 0
 114 290 94 273 94 244 c 0
 94 214 111 197 136 184 c 1
 124 163 l 1
 82 182 60 215 60 253 c 0
 60 301 97 352 174 352 c 0
 295 352 458 232 550 232 c 0
 570 232 590 249 590 278 c 0
 590 308 573 325 548 338 c 1
 560 359 l 1
 602 340 624 307 624 269 c 0
 624 221 587 170 510 170 c 0
EndSplineSet
EndChar

StartChar: exclamdown
Encoding: 353 161 97
Width: 280
GlyphClass: 2
Flags: MW
HStem: -248 21G<30.5 62> 334 124<186 222>
VStem: -4 122<4.29497e+09 4.29497e+09> 142 124<378 414>
LayerCount: 2
Fore
SplineSet
142 396 m 0
 142 432 168 458 204 458 c 0
 240 458 266 432 266 396 c 0
 266 360 240 334 204 334 c 0
 168 334 142 360 142 396 c 0
-4 -178 m 0
 -4 -121 64 3 98 100 c 2
 168 288 l 1
 192 288 l 1
 156 85 l 2
 139 -6 135 -91 118 -178 c 0
 107 -234 76 -248 48 -248 c 0
 13 -248 -4 -221 -4 -178 c 0
EndSplineSet
EndChar

StartChar: cent
Encoding: 354 162 98
Width: 580
GlyphClass: 2
Flags: MW
HStem: -12 24<268 270 262 275> 432 24<325.5 365 390 401>
VStem: 136 72<118.5 176.5> 437 53<336 404>
LayerCount: 2
Fore
SplineSet
136 158 m 0
 136 198 143 295 224 381 c 0
 267 427 309 453 365 456 c 1
 398 576 l 1
 422 576 l 1
 390 456 l 1
 434 456 490 422 490 356 c 0
 490 316 464 286 433 286 c 0
 406 286 394 304 394 321 c 0
 394 342 411 359 426 370 c 0
 436 378 437 386 437 393 c 0
 437 415 419 432 383 432 c 1
 268 12 l 1
 275 12 l 2
 345 12 399 65 429 126 c 1
 450 119 l 1
 424 64 365 -12 270 -12 c 2
 262 -12 l 1
 232 -120 l 1
 208 -120 l 1
 239 -8 l 1
 174 9 136 79 136 158 c 0
208 98 m 0
 208 59 221 30 246 18 c 1
 358 432 l 1
 293 432 208 255 208 98 c 0
EndSplineSet
EndChar

StartChar: sterling
Encoding: 355 163 99
Width: 720
GlyphClass: 2
Flags: MW
HStem: -16 24<41 78.5> -16 68<421 458.5> 102 34<78.5 89> 294 28<460.5 502 460.5 502> 328 28<178 216> 510 82<639.5 646> 678 22<512 606>
VStem: -32 28<26 61 26 73> 290 78 297 79 656 20<219 225> 660 36<602 606 563 623.5>
LayerCount: 2
Fore
SplineSet
267 106 m 1xbf80
 320 87 394 52 448 52 c 0
 583 52 638 144 656 225 c 1
 676 219 l 1
 666 166 640 89 590 45 c 0
 543 3 500 -16 417 -16 c 0x7fa0
 359 -16 305 12 250 42 c 2
 221 57 l 1
 169 9 109 -16 48 -16 c 0
 11 -16 -32 0 -32 41 c 0
 -32 105 45 136 112 136 c 0
 150 136 186 130 219 121 c 1
 252 179 273 251 290 320 c 1xbfa0
 261 324 232 328 200 328 c 0
 156 328 138 320 108 306 c 1
 100 328 l 1
 120 342 156 356 200 356 c 0
 236 356 267 352 297 347 c 1
 331 480 405 700 574 700 c 0
 672 700 696 624 696 588 c 0
 696 538 662 510 630 510 c 0
 606 510 569 521 569 561 c 0
 569 590 592 600 606 600 c 0
 617 600 635 592 644 592 c 0
 654 592 660 595 660 609 c 0
 660 638 639 678 573 678 c 0
 451 678 415 520 392 400 c 0
 388 376 382 351 376 332 c 1xbf50
 408 326 441 322 480 322 c 0
 524 322 549 332 572 344 c 1
 580 322 l 1
 563 309 524 294 480 294 c 0
 439 294 403 299 368 305 c 1
 343 225 308 157 267 106 c 1xbf80
-4 43 m 0
 -4 9 30 8 52 8 c 0xbf
 109 8 153 34 187 73 c 1
 149 90 110 102 68 102 c 0
 34 102 -4 79 -4 43 c 0
EndSplineSet
EndChar

StartChar: currency
Encoding: 356 164 100
Width: 580
GlyphClass: 2
Flags: MW
HStem: 122 40<291.5 344.5> 524 40<291.5 344.5 291.5 370>
VStem: 98 40<315.5 368.5> 498 40<315.5 368.5 315.5 394>
LayerCount: 2
Fore
SplineSet
138 342 m 0
 138 238 214 162 318 162 c 0
 422 162 498 238 498 342 c 0
 498 446 422 524 318 524 c 0
 214 524 138 446 138 342 c 0
80 136 m 1
 147 203 l 1
 116 241 98 289 98 342 c 0
 98 395 117 444 148 482 c 1
 80 550 l 1
 111 581 l 1
 178 514 l 1
 216 545 265 564 318 564 c 0
 371 564 420 545 458 514 c 1
 525 581 l 1
 556 550 l 1
 488 482 l 1
 519 444 538 395 538 342 c 0
 538 289 520 241 489 203 c 1
 556 136 l 1
 525 105 l 1
 458 172 l 1
 420 141 371 122 318 122 c 0
 265 122 216 141 178 172 c 1
 111 105 l 1
 80 136 l 1
EndSplineSet
EndChar

StartChar: yen
Encoding: 357 165 101
Width: 580
GlyphClass: 2
Flags: MW
HStem: 0 32<73 149 149 158.5 293 360 64 149> 206 32<93 224 84 233 321 452> 298 32<118 249 109 252 346 477> 652 32<102 156 93 362 299 312 312 353 458 491 628.5 643 643 681>
LayerCount: 2
Fore
SplineSet
312 652 m 2
 286 652 280 642 280 626 c 0
 280 620 281 614 282 610 c 2
 335 358 l 1
 503 562 l 2
 510 571 524 594 524 612 c 0
 524 624 519 652 491 652 c 2
 449 652 l 1
 458 684 l 1
 690 684 l 1
 681 652 l 1
 643 652 l 2
 614 652 593 629 567 598 c 2
 346 330 l 1
 486 330 l 1
 477 298 l 1
 337 298 l 1
 321 238 l 1
 461 238 l 1
 452 206 l 1
 312 206 l 1
 272 60 l 2
 271 56 270 52 270 49 c 0
 270 38 277 32 293 32 c 2
 369 32 l 1
 360 0 l 1
 64 0 l 1
 73 32 l 1
 149 32 l 2
 168 32 179 41 184 60 c 2
 224 206 l 1
 84 206 l 1
 93 238 l 1
 233 238 l 1
 249 298 l 1
 109 298 l 1
 118 330 l 1
 252 330 l 1
 190 613 l 2
 185 634 180 652 156 652 c 2
 93 652 l 1
 102 684 l 1
 362 684 l 1
 353 652 l 1
 312 652 l 2
EndSplineSet
EndChar

StartChar: brokenbar
Encoding: 358 166 102
Width: 284
GlyphClass: 2
Flags: MW
HStem: -168 21G<144 144 144 188> 710 20G<144 188 188 188>
VStem: 144 44<-168 192 -168 192 370 730>
LayerCount: 2
Fore
SplineSet
144 370 m 1
 144 730 l 1
 188 730 l 1
 188 370 l 1
 144 370 l 1
144 -168 m 1
 144 192 l 1
 188 192 l 1
 188 -168 l 1
 144 -168 l 1
EndSplineSet
EndChar

StartChar: section
Encoding: 359 167 103
Width: 620
GlyphClass: 2
Flags: MW
HStem: -186 30<185.5 241 185.5 245> -48 80<127.5 131.5> 484 83<465.5 472.5> 672 30<359 414.5>
VStem: 72 44<-83 -69 -95 -30> 104 52<273.5 292.5> 212 52<515.5 581.5> 336 52<-65.5 -3.5> 444 52<223.5 242.5> 484 44<585 599 546 611>
LayerCount: 2
Fore
SplineSet
469 567 m 0xf740
 481 567 484 580 484 590 c 0xf740
 484 632 445 672 384 672 c 0
 334 672 264 631 264 537 c 0
 264 494 289 476 320 454 c 2
 436 367 l 2
 484 330 496 290 496 256 c 0
 496 191 432 111 368 79 c 1
 380 60 388 33 388 -5 c 0
 388 -126 284 -186 206 -186 c 0
 118 -186 72 -112 72 -54 c 0
 72 -6 105 32 150 32 c 0
 167 32 194 21 194 -12 c 0
 194 -37 175 -55 155 -55 c 0
 145 -55 136 -48 127 -48 c 0
 116 -48 116 -64 116 -74 c 0xfb80
 116 -116 155 -156 216 -156 c 0
 266 -156 336 -120 336 -26 c 0
 336 19 306 42 274 66 c 2
 164 149 l 2
 116 186 104 226 104 260 c 0
 104 325 168 405 232 437 c 1
 220 456 212 483 212 521 c 0
 212 642 316 702 394 702 c 0
 482 702 528 628 528 570 c 0
 528 522 495 484 450 484 c 0
 433 484 406 495 406 528 c 0
 406 553 425 571 445 571 c 0
 455 571 462 567 469 567 c 0xf740
156 290 m 0
 156 257 178 234 196 220 c 2
 331 118 l 2
 340 111 349 103 358 93 c 1
 406 121 444 174 444 226 c 0xf780
 444 259 422 282 404 296 c 2
 269 398 l 2
 260 405 251 413 242 423 c 1
 194 395 156 342 156 290 c 0
EndSplineSet
EndChar

StartChar: dieresis
Encoding: 360 168 104
Width: 440
GlyphClass: 2
Flags: MW
HStem: 548 96<225 251 413 439>
VStem: 190 96<583 609> 378 96<583 609>
LayerCount: 2
Fore
SplineSet
378 596 m 0
 378 622 400 644 426 644 c 0
 452 644 474 622 474 596 c 0
 474 570 452 548 426 548 c 0
 400 548 378 570 378 596 c 0
190 596 m 0
 190 622 212 644 238 644 c 0
 264 644 286 622 286 596 c 0
 286 570 264 548 238 548 c 0
 212 548 190 570 190 596 c 0
EndSplineSet
EndChar

StartChar: copyright
Encoding: 361 169 105
Width: 820
GlyphClass: 2
Flags: MW
HStem: -18 28<340 528 340 537> 110 24<401.5 491 401.5 498> 566 24<401.5 467 383.5 472> 702 28<340 528>
VStem: 72 28<262 450 262 459> 244 88<299 396 299 411> 572 18<420 584 576 584> 574 24<278 278> 768 28<262 450>
LayerCount: 2
Fore
SplineSet
100 356 m 0xfc80
 100 168 246 10 434 10 c 0
 622 10 768 168 768 356 c 0
 768 544 622 702 434 702 c 0
 246 702 100 544 100 356 c 0xfc80
72 356 m 0
 72 562 228 730 434 730 c 0
 640 730 796 562 796 356 c 0
 796 150 640 -18 434 -18 c 0
 228 -18 72 150 72 356 c 0
244 338 m 0
 244 484 319 590 448 590 c 0
 486 590 521 564 530 557 c 0
 538 551 540 550 550 550 c 0
 562 550 572 568 572 584 c 1
 590 584 l 1
 590 420 l 1
 572 420 l 1xfe80
 564 500 496 566 448 566 c 0
 355 566 332 454 332 338 c 0
 332 260 357 134 446 134 c 0
 536 134 566 213 574 278 c 1
 598 278 l 1xfd80
 593 203 550 110 446 110 c 0
 311 110 244 228 244 338 c 0
EndSplineSet
EndChar

StartChar: ordfeminine
Encoding: 362 170 106
Width: 380
GlyphClass: 2
Flags: MW
HStem: 362 24<88 336 95 329> 412 18<178.5 199> 412 27<312.5 325> 682 18<228 268.5 209 272>
VStem: 108 52<476.5 521.5 464.5 542.5> 256 50<450.5 458>
LayerCount: 2
Fore
SplineSet
88 362 m 1x9c
 95 386 l 1
 336 386 l 1
 329 362 l 1
 88 362 l 1x9c
160 475 m 0
 160 454 167 430 190 430 c 0xdc
 227 430 268 499 285 563 c 2
 293 594 l 2
 298 610 298 626 298 636 c 0
 298 655 289 682 255 682 c 0
 201 682 160 568 160 475 c 0
108 503 m 0
 108 582 164 700 254 700 c 0
 283 700 304 676 308 658 c 1
 311 658 l 1
 320 694 l 1
 370 694 l 1
 315 497 l 2
 312 487 306 465 306 453 c 0
 306 448 308 439 317 439 c 0
 344 439 374 493 389 534 c 1
 401 529 l 1
 384 483 345 412 305 412 c 0xbc
 265 412 256 442 256 454 c 0
 256 462 256 464 259 471 c 1
 257 472 l 1
 245 449 214 412 184 412 c 0
 134 412 108 450 108 503 c 0
EndSplineSet
EndChar

StartChar: guillemotleft
Encoding: 363 171 107
Width: 440
GlyphClass: 2
Flags: MW
VStem: 181 17<18 28> 281 17<74 84>
LayerCount: 2
Fore
SplineSet
202 228 m 1
 258 272 320 334 365 382 c 1
 376 372 l 1
 269 228 l 1
 298 84 l 1
 281 74 l 1
 262 122 234 184 202 228 c 1
54 228 m 1
 134 288 203 350 295 438 c 1
 306 428 l 1
 144 228 l 1
 198 28 l 1
 181 18 l 1
 137 106 102 168 54 228 c 1
EndSplineSet
EndChar

StartChar: logicalnot
Encoding: 364 172 108
Width: 580
GlyphClass: 2
Flags: MW
HStem: 406 40<72 556 72 512>
VStem: 512 44<240 406 406 406>
LayerCount: 2
Fore
SplineSet
72 406 m 1
 72 446 l 1
 556 446 l 1
 556 240 l 1
 512 240 l 1
 512 406 l 1
 72 406 l 1
EndSplineSet
EndChar

StartChar: softhyphen
Encoding: 365 173 109
Width: 370
GlyphClass: 2
Flags: MW
HStem: 224 56<92 300 124 278>
VStem: 56 18<196 206 196 218> 328 18<298 308>
LayerCount: 2
Fore
SplineSet
56 196 m 1
 56 240 80 280 124 280 c 2
 300 280 l 2
 320 280 328 288 328 308 c 1
 346 308 l 1
 346 264 322 224 278 224 c 2
 102 224 l 2
 82 224 74 216 74 196 c 1
 56 196 l 1
EndSplineSet
EndChar

StartChar: registered
Encoding: 366 174 110
Width: 820
GlyphClass: 2
Flags: MW
HStem: -18 28<340 528 340 537> 118 36<600.5 631.5> 130 24<224 266 266 274 382 426 224 266> 358 24<360 437 437 438 360 437> 562 24<224 266 224 452 374 382 382 436> 702 28<340 528>
VStem: 72 28<262 450 262 459> 288 72<176 358 382 540> 510 88<441.5 496.5> 660 18<231.5 244> 768 28<262 450>
LayerCount: 2
Fore
SplineSet
593 118 m 0xdfe0
 565 118 505 129 505 219 c 2
 505 273 l 2
 505 344 464 358 438 358 c 2
 360 358 l 1
 360 176 l 2
 360 160 366 154 382 154 c 2
 426 154 l 1
 426 130 l 1
 224 130 l 1
 224 154 l 1
 266 154 l 2xbfe0
 282 154 288 160 288 176 c 2
 288 540 l 2
 288 556 282 562 266 562 c 2
 224 562 l 1
 224 586 l 1
 452 586 l 2
 531 586 598 550 598 476 c 0
 598 397 517 375 490 370 c 1
 490 366 l 1
 519 360 572 339 581 251 c 0
 586 204 583 154 618 154 c 0
 655 154 660 219 660 244 c 1
 678 244 l 1
 678 204 670 118 593 118 c 0xdfe0
360 382 m 1
 437 382 l 2
 480 382 510 413 510 470 c 0
 510 523 490 562 436 562 c 2
 382 562 l 2
 366 562 360 556 360 540 c 2
 360 382 l 1
100 356 m 0
 100 168 246 10 434 10 c 0
 622 10 768 168 768 356 c 0
 768 544 622 702 434 702 c 0
 246 702 100 544 100 356 c 0
72 356 m 0
 72 562 228 730 434 730 c 0
 640 730 796 562 796 356 c 0
 796 150 640 -18 434 -18 c 0
 228 -18 72 150 72 356 c 0
EndSplineSet
EndChar

StartChar: macron
Encoding: 367 175 111
AltUni2: 0002c9.ffffffff.0 0002c9.ffffffff.0
Width: 440
GlyphClass: 2
Flags: MW
HStem: 546 40<164 488 174 478>
VStem: 164 324<546 586>
LayerCount: 2
Fore
SplineSet
164 546 m 1
 174 586 l 1
 488 586 l 1
 478 546 l 1
 164 546 l 1
EndSplineSet
EndChar

StartChar: degree
Encoding: 368 176 112
Width: 580
GlyphClass: 2
Flags: MW
HStem: 340 40<309 352> 676 24<364 417>
VStem: 194 72<433 510> 460 28<538 614 530 623>
LayerCount: 2
Fore
SplineSet
266 462 m 0
 266 404 296 380 322 380 c 0
 402 380 460 482 460 594 c 0
 460 652 430 676 404 676 c 0
 324 676 266 574 266 462 c 0
194 462 m 0
 194 558 270 700 390 700 c 0
 448 700 488 650 488 578 c 0
 488 482 412 340 292 340 c 0
 234 340 194 390 194 462 c 0
EndSplineSet
EndChar

StartChar: plusminus
Encoding: 369 177 113
Width: 940
GlyphClass: 2
Flags: MW
HStem: -40 40<64 900 64 900> 338 40<64 464 64 464 508 908>
VStem: 464 44<64 338 64 338 378 652>
LayerCount: 2
Fore
SplineSet
64 338 m 1
 64 378 l 1
 464 378 l 1
 464 652 l 1
 508 652 l 1
 508 378 l 1
 908 378 l 1
 908 338 l 1
 508 338 l 1
 508 64 l 1
 464 64 l 1
 464 338 l 1
 64 338 l 1
64 0 m 1
 900 0 l 1
 900 -40 l 1
 64 -40 l 1
 64 0 l 1
EndSplineSet
EndChar

StartChar: twosuperior
Encoding: 370 178 114
Width: 380
GlyphClass: 2
Flags: MW
HStem: 270 67<235.5 276 235.5 276.5> 528 63<179 187 179 203.5> 678 24<244 294.5>
VStem: 56 32<319 326.5> 144 30<602.5 615> 342 64<568 618.5>
LayerCount: 2
Fore
SplineSet
247 270 m 0
 184 270 158 350 123 350 c 0
 111 350 88 350 88 325 c 0
 88 313 100 306 100 294 c 0
 100 284 96 271 79 271 c 0
 64 271 56 278 56 294 c 0
 56 359 97 393 153 420 c 2
 237 465 l 2
 285 489 342 538 342 598 c 0
 342 639 323 678 266 678 c 0
 218 678 174 636 174 606 c 0
 174 599 176 591 182 591 c 0
 192 591 194 599 206 599 c 0
 222 599 234 590 234 571 c 0
 234 549 216 528 191 528 c 0
 161 528 144 552 144 583 c 0
 144 647 209 702 279 702 c 0
 357 702 406 657 406 594 c 0
 406 517 327 479 269 452 c 2
 170 405 l 2
 152 397 136 388 136 377 c 0
 136 357 210 337 261 337 c 0
 291 337 320 358 332 378 c 2
 344 403 l 1
 355 403 l 1
 336 350 306 270 247 270 c 0
EndSplineSet
Substitution2: "Single Substitution lookup 48 subtable" two.dnom
EndChar

StartChar: threesuperior
Encoding: 371 179 115
Width: 380
GlyphClass: 2
Flags: MW
HStem: 270 24<163 218 163 225.5> 361 70<128.5 144> 473 43<182 193.5> 492 24<224.5 256 256 259> 562 60<194 198 194 214.5> 682 20<253.5 296>
VStem: 76 35<338.5 356 333.5 390> 160 31<629 636> 296 64<390 445 373 451> 342 58<592 641 575.5 643.5>
LayerCount: 2
Fore
SplineSet
196 622 m 0xdf40
 200 622 209 626 213 626 c 0
 232 626 238 614 238 600 c 0
 238 581 227 562 202 562 c 0
 174 562 160 583 160 607 c 0
 160 665 221 702 278 702 c 0
 347 702 400 672 400 610 c 0xdf40
 400 541 329 511 290 506 c 1
 289 502 l 1
 322 492 360 473 360 417 c 0
 360 329 268 270 183 270 c 0
 118 270 76 309 76 368 c 0
 76 412 110 431 132 431 c 0
 161 431 168 411 168 393 c 0
 168 375 155 361 133 361 c 0
 124 361 111 361 111 351 c 0
 111 316 142 294 184 294 c 0
 252 294 296 356 296 424 c 0
 296 478 282 492 236 492 c 0xdf80
 213 492 205 473 182 473 c 0
 168 473 160 482 160 494 c 0
 160 503 166 516 182 516 c 2xef80
 256 516 l 2
 302 516 342 566 342 618 c 0
 342 669 318 682 274 682 c 0
 233 682 191 661 191 632 c 0
 191 626 192 622 196 622 c 0xdf40
EndSplineSet
Substitution2: "Single Substitution lookup 48 subtable" three.dnom
EndChar

StartChar: acute
Encoding: 372 180 116
AltUni2: 0002ca.ffffffff.0 0002ca.ffffffff.0
Width: 440
GlyphClass: 2
Flags: MW
HStem: 508 162<304 457>
VStem: 292 182<520 647.5>
LayerCount: 2
Fore
SplineSet
292 520 m 1
 398 643 l 2
 416 664 430 670 446 670 c 0
 468 670 474 654 474 641 c 0
 474 616 453 602 442 595 c 2
 304 508 l 1
 292 520 l 1
EndSplineSet
EndChar

StartChar: mu1
Encoding: 373 181 117
Width: 572
GlyphClass: 2
Flags: MW
HStem: -282 21G<69.5 105> -12 36<187.5 216 397.5 421.5> 424 20G<166 232 232 232 412 480 480 480>
VStem: 30 45 104 55<93 97> 317 64<53 66.5>
LayerCount: 2
Fore
SplineSet
75 -24 m 0
 75 -160 128 -190 128 -241 c 0
 128 -260 118 -282 92 -282 c 0
 47 -282 30 -225 30 -182 c 0
 30 -100 42 0 82 144 c 2
 166 444 l 1
 232 444 l 1
 178 244 l 2
 174 223 159 142 159 116 c 0
 159 70 167 24 208 24 c 0
 265 24 319 101 344 194 c 2
 412 444 l 1
 480 444 l 1
 388 101 l 2
 385 90 381 74 381 62 c 0
 381 44 384 24 411 24 c 0
 450 24 499 104 537 176 c 1
 552 167 l 1
 521 104 460 -12 383 -12 c 0
 339 -12 317 23 317 62 c 0
 317 71 318 77 320 84 c 1
 313 86 l 1
 286 41 243 -12 189 -12 c 0
 135 -12 104 43 104 97 c 1
 97 100 l 1
 79 15 l 2
 76 1 75 -12 75 -24 c 0
EndSplineSet
EndChar

StartChar: paragraph
Encoding: 374 182 118
Width: 540
GlyphClass: 2
Flags: MW
HStem: -156 21G<148 148 148 186 286 286 286 324> 678 34<412 512 412 412 550 618 550 550>
LayerCount: 2
Fore
SplineSet
148 -156 m 1
 295 386 l 1
 215 386 164 429 164 499 c 0
 164 594 255 712 384 712 c 2
 628 712 l 1
 618 678 l 1
 550 678 l 1
 324 -156 l 1
 286 -156 l 1
 512 678 l 1
 412 678 l 1
 186 -156 l 1
 148 -156 l 1
EndSplineSet
EndChar

StartChar: periodcentered
Encoding: 375 183 119
Width: 280
GlyphClass: 2
Flags: MW
HStem: 254 124<176 212>
VStem: 132 124<298 334>
LayerCount: 2
Fore
SplineSet
132 316 m 0
 132 352 158 378 194 378 c 0
 230 378 256 352 256 316 c 0
 256 280 230 254 194 254 c 0
 158 254 132 280 132 316 c 0
EndSplineSet
Substitution2: "'locl' Localized Forms in Greek lookup 9 subtable" anoteleia
EndChar

StartChar: cedilla
Encoding: 376 184 120
Width: 440
GlyphClass: 2
Flags: MW
HStem: -212 22<116 152 116 160.5> -154 57<99.5 107.5 85 108>
VStem: 56 37<-170 -162 -171.5 -137> 163 26<-52 -42> 187 50<-148 -116.5>
LayerCount: 2
Fore
SplineSet
189 -36 m 0xf0
 189 -68 237 -81 237 -126 c 0
 237 -174 191 -212 130 -212 c 0
 96 -212 56 -192 56 -148 c 0
 56 -126 72 -97 98 -97 c 0
 117 -97 126 -110 126 -128 c 0
 126 -142 114 -154 102 -154 c 0
 97 -154 93 -159 93 -165 c 0
 93 -178 100 -190 132 -190 c 0
 172 -190 187 -160 187 -136 c 0xe8
 187 -97 163 -76 163 -47 c 0xf0
 163 -37 165 -26 172 -13 c 2
 187 12 l 1xe8
 206 0 l 1
 193 -21 l 2
 190 -26 189 -31 189 -36 c 0xf0
EndSplineSet
EndChar

StartChar: onesuperior
Encoding: 377 185 121
Width: 380
GlyphClass: 2
Flags: MW
HStem: 280 24<108 170 115 170 170 176 268 316> 576 21<194 197> 672 20G<338 360 360 360>
VStem: 338 22<692 692>
LayerCount: 2
Fore
SplineSet
108 280 m 1
 115 304 l 1
 170 304 l 2
 182 304 188 308 191 319 c 2
 271 601 l 1
 250 589 222 581 197 576 c 1
 194 597 l 1
 236 605 299 633 338 692 c 1
 360 692 l 1
 255 319 l 2
 252 308 256 304 268 304 c 2
 323 304 l 1
 316 280 l 1
 108 280 l 1
EndSplineSet
Substitution2: "Single Substitution lookup 48 subtable" one.dnom
EndChar

StartChar: ordmasculine
Encoding: 378 186 122
Width: 380
GlyphClass: 2
Flags: MW
HStem: 362 24<88 336 95 329> 410 18<211.5 257.5 211.5 267.5> 680 18<263 309.5>
VStem: 134 52<479.5 521 468 548.5> 336 52<583.5 627 558 637.5>
LayerCount: 2
Fore
SplineSet
88 362 m 1
 95 386 l 1
 336 386 l 1
 329 362 l 1
 88 362 l 1
186 484 m 0
 186 452 197 428 226 428 c 0
 289 428 336 546 336 621 c 0
 336 654 325 680 294 680 c 0
 232 680 186 558 186 484 c 0
134 508 m 0
 134 589 207 698 299 698 c 0
 354 698 388 656 388 598 c 0
 388 518 314 410 221 410 c 0
 168 410 134 451 134 508 c 0
EndSplineSet
EndChar

StartChar: guillemotright
Encoding: 379 187 123
Width: 440
GlyphClass: 2
Flags: MW
VStem: 150 17<372 382> 250 17<428 438>
LayerCount: 2
Fore
SplineSet
72 84 m 1
 179 228 l 1
 150 372 l 1
 167 382 l 1
 186 334 214 272 246 228 c 1
 190 184 128 122 83 74 c 1
 72 84 l 1
142 28 m 1
 304 228 l 1
 250 428 l 1
 267 438 l 1
 311 350 346 288 394 228 c 1
 314 168 245 106 153 18 c 1
 142 28 l 1
EndSplineSet
EndChar

StartChar: onequarter
Encoding: 380 188 124
Width: 846
GlyphClass: 2
Flags: MW
HStem: -18 21G<244 244> 0 24<554 611 611 617 707 760 548 611> 112 26<492 500 500 500 536 652 724 816> 280 24<108 170 115 170 170 176 268 316> 576 21<194 197> 672 20G<338 360 360 360>
VStem: 338 22<692 692> 727 72<416 416> 761 11<321 321>
LayerCount: 2
Fore
SplineSet
492 112 m 1x7e80
 500 138 l 1
 630 259 l 2
 680 306 720 366 727 416 c 1
 799 416 l 1x7f
 790 383 780 356 724 306 c 2
 536 138 l 1
 659 138 l 1
 688 238 l 1
 724 260 749 293 761 321 c 1
 772 321 l 1
 724 138 l 1
 824 138 l 1
 816 112 l 1
 716 112 l 1
 697 40 l 2
 694 28 694 24 707 24 c 2
 766 24 l 1
 760 0 l 1
 548 0 l 1
 554 24 l 1
 611 24 l 2
 623 24 629 28 632 40 c 2
 652 112 l 1
 492 112 l 1x7e80
108 280 m 1
 115 304 l 1
 170 304 l 2
 182 304 188 308 191 319 c 2
 271 601 l 1
 250 589 222 581 197 576 c 1
 194 597 l 1
 236 605 299 633 338 692 c 1
 360 692 l 1
 255 319 l 2
 252 308 256 304 268 304 c 2
 323 304 l 1
 316 280 l 1
 108 280 l 1
218 0 m 1
 658 702 l 1
 684 684 l 1
 244 -18 l 1xbe
 218 0 l 1
EndSplineSet
EndChar

StartChar: onehalf
Encoding: 381 189 125
Width: 846
GlyphClass: 2
Flags: MW
HStem: -18 21G<244 244> -10 67<651.5 692 651.5 692.5> 248 63<595 603 595 619.5> 280 24<108 170 115 170 170 176 268 316> 398 24<660 710.5> 576 21<194 197> 672 20G<338 360 360 360>
VStem: 338 22<692 692> 472 32<39 46.5> 560 30<322.5 335> 758 64<288 338.5>
LayerCount: 2
Fore
SplineSet
663 -10 m 0x6fe0
 600 -10 574 70 539 70 c 0
 527 70 504 70 504 45 c 0
 504 33 516 26 516 14 c 0
 516 4 512 -9 495 -9 c 0
 480 -9 472 -2 472 14 c 0
 472 79 513 113 569 140 c 2
 653 185 l 2
 701 209 758 258 758 318 c 0
 758 359 739 398 682 398 c 0
 634 398 590 356 590 326 c 0
 590 319 592 311 598 311 c 0
 608 311 610 319 622 319 c 0
 638 319 650 310 650 291 c 0
 650 269 632 248 607 248 c 0
 577 248 560 272 560 303 c 0
 560 367 625 422 695 422 c 0
 773 422 822 377 822 314 c 0
 822 237 743 199 685 172 c 2
 586 125 l 2
 568 117 552 108 552 97 c 0
 552 77 626 57 677 57 c 0
 707 57 736 78 748 98 c 2
 760 123 l 1
 771 123 l 1
 752 70 722 -10 663 -10 c 0x6fe0
108 280 m 1x1fe0
 115 304 l 1
 170 304 l 2
 182 304 188 308 191 319 c 2
 271 601 l 1
 250 589 222 581 197 576 c 1
 194 597 l 1
 236 605 299 633 338 692 c 1
 360 692 l 1
 255 319 l 2
 252 308 256 304 268 304 c 2
 323 304 l 1
 316 280 l 1
 108 280 l 1x1fe0
218 0 m 1
 658 702 l 1
 684 684 l 1
 244 -18 l 1x8fe0
 218 0 l 1
EndSplineSet
EndChar

StartChar: threequarters
Encoding: 382 190 126
Width: 846
GlyphClass: 2
Flags: MW
HStem: -18 21G<244 244> 0 24<554 611 611 617 707 760 548 611> 112 26<492 500 500 500 536 652 724 816> 270 24<163 218 163 225.5> 361 70<128.5 144> 473 43<182 193.5> 492 24<224.5 256 256 259> 562 60<194 198 194 214.5> 682 20<253.5 296>
VStem: 76 35<338.5 356 333.5 390> 160 31<629 636> 296 64<390 445 373 451> 342 58<592 641 575.5 643.5> 727 72<416 416> 761 11<321 321>
LayerCount: 2
Fore
SplineSet
492 112 m 1x79e2
 500 138 l 1
 630 259 l 2
 680 306 720 366 727 416 c 1
 799 416 l 1x79e4
 790 383 780 356 724 306 c 2
 536 138 l 1
 659 138 l 1
 688 238 l 1
 724 260 749 293 761 321 c 1
 772 321 l 1
 724 138 l 1
 824 138 l 1
 816 112 l 1
 716 112 l 1
 697 40 l 2
 694 28 694 24 707 24 c 2
 766 24 l 1
 760 0 l 1
 548 0 l 1
 554 24 l 1
 611 24 l 2
 623 24 629 28 632 40 c 2
 652 112 l 1
 492 112 l 1x79e2
196 622 m 0
 200 622 209 626 213 626 c 0
 232 626 238 614 238 600 c 0
 238 581 227 562 202 562 c 0
 174 562 160 583 160 607 c 0
 160 665 221 702 278 702 c 0
 347 702 400 672 400 610 c 0x3be8
 400 541 329 511 290 506 c 1
 289 502 l 1
 322 492 360 473 360 417 c 0
 360 329 268 270 183 270 c 0
 118 270 76 309 76 368 c 0
 76 412 110 431 132 431 c 0
 161 431 168 411 168 393 c 0
 168 375 155 361 133 361 c 0
 124 361 111 361 111 351 c 0
 111 316 142 294 184 294 c 0
 252 294 296 356 296 424 c 0
 296 478 282 492 236 492 c 0x3bf0
 213 492 205 473 182 473 c 0
 168 473 160 482 160 494 c 0
 160 503 166 516 182 516 c 2x3df0
 256 516 l 2
 302 516 342 566 342 618 c 0x3be8
 342 669 318 682 274 682 c 0
 233 682 191 661 191 632 c 0
 191 626 192 622 196 622 c 0
218 0 m 1x79e0
 658 702 l 1
 684 684 l 1
 244 -18 l 1xb9e0
 218 0 l 1x79e0
EndSplineSet
EndChar

StartChar: questiondown
Encoding: 383 191 127
Width: 436
GlyphClass: 2
Flags: MW
HStem: -248 30<132 197.5> 262 30<233 271> 334 124<296 332>
VStem: -4 72<-132 -74 -132 -57> 158 20<181.5 202 180 220> 252 124<378 414> 302 48<-137.5 -127.5> 310 42<194 228.5>
LayerCount: 2
Fore
SplineSet
252 396 m 0xfc
 252 432 278 458 314 458 c 0
 350 458 376 432 376 396 c 0
 376 360 350 334 314 334 c 0
 278 334 252 360 252 396 c 0xfc
-4 -88 m 0
 -4 -26 46 29 106 58 c 2
 239 122 l 2
 282 146 310 178 310 210 c 0
 310 247 284 262 258 262 c 0
 198 262 178 220 178 184 c 0
 178 176 182 162 188 155 c 1
 176 146 l 1
 168 154 158 171 158 192 c 0
 158 248 204 292 262 292 c 0
 310 292 352 258 352 204 c 0xf9
 352 153 316 109 270 82 c 2
 146 8 l 2
 102 -16 68 -50 68 -98 c 0
 68 -166 100 -218 164 -218 c 0
 273 -218 302 -161 302 -135 c 0
 302 -120 292 -116 285 -112 c 0
 259 -97 258 -87 258 -65 c 0
 258 -50 271 -32 297 -32 c 0
 329 -32 350 -52 350 -95 c 0xfa
 350 -180 240 -248 155 -248 c 0
 46 -248 -4 -177 -4 -88 c 0
EndSplineSet
EndChar

StartChar: Agrave
Encoding: 384 192 128
Width: 728
GlyphClass: 2
Flags: MW
HStem: 0 32<-44 1 -36 1 1 31 201 248 368 430 430 441.5 608 656> 244 32<285 472 285 472 263 472> 692 20G<536 560 560 560>
VStem: 444 77<893 893 893 900> 472 88<78 244 244 244 276 552 552 552>
LayerCount: 2
Fore
SplineSet
444 895 m 0xf0
 444 905 449 930 479 930 c 0
 496 930 512 920 521 893 c 2
 562 771 l 1
 547 762 l 1
 459 859 l 2
 450 869 444 884 444 895 c 0xf0
285 276 m 1
 472 276 l 1
 472 552 l 1xe8
 285 276 l 1
-44 0 m 1
 -36 32 l 1
 1 32 l 2
 61 32 104 70 125 104 c 2
 536 712 l 1
 560 712 l 1
 560 75 l 2
 563 40 581 32 608 32 c 2
 664 32 l 1
 656 0 l 1
 360 0 l 1
 368 32 l 1
 430 32 l 2
 453 32 472 37 472 78 c 2
 472 244 l 1
 263 244 l 1
 195 144 l 2
 181 124 161 90 161 66 c 0
 161 48 170 32 201 32 c 2
 256 32 l 1
 248 0 l 1
 -44 0 l 1
EndSplineSet
Substitution2: "'c2sc' Capitals to Small Capitals lookup 2 subtable" agrave.sc
EndChar

StartChar: Aacute
Encoding: 385 193 129
Width: 728
GlyphClass: 2
Flags: MW
HStem: 0 32<-44 1 -36 1 1 31 201 248 368 430 430 441.5 608 656> 244 32<285 472 285 472 263 472> 692 20G<536 560 560 560>
VStem: 472 88<78 244 244 244 276 552 552 552>
LayerCount: 2
Fore
SplineSet
538 774 m 1
 644 897 l 2
 662 918 676 924 692 924 c 0
 715 924 720 908 720 895 c 0
 720 869 698 855 688 849 c 2
 550 762 l 1
 538 774 l 1
285 276 m 1
 472 276 l 1
 472 552 l 1
 285 276 l 1
-44 0 m 1
 -36 32 l 1
 1 32 l 2
 61 32 104 70 125 104 c 2
 536 712 l 1
 560 712 l 1
 560 75 l 2
 563 40 581 32 608 32 c 2
 664 32 l 1
 656 0 l 1
 360 0 l 1
 368 32 l 1
 430 32 l 2
 453 32 472 37 472 78 c 2
 472 244 l 1
 263 244 l 1
 195 144 l 2
 181 124 161 90 161 66 c 0
 161 48 170 32 201 32 c 2
 256 32 l 1
 248 0 l 1
 -44 0 l 1
EndSplineSet
Substitution2: "'c2sc' Capitals to Small Capitals lookup 2 subtable" aacute.sc
EndChar

StartChar: Acircumflex
Encoding: 386 194 130
Width: 728
GlyphClass: 2
Flags: MW
HStem: 0 32<-44 1 -36 1 1 31 201 248 368 430 430 441.5 608 656> 244 32<285 472 285 472 263 472> 692 20G<536 560 560 560>
VStem: 472 88<78 244 244 244 276 552 552 552>
LayerCount: 2
Fore
SplineSet
396 778 m 1
 477 818 533 870 572 920 c 1
 612 920 l 1
 625 870 653 818 712 778 c 1
 698 762 l 1
 667 774 607 820 576 858 c 1
 523 820 439 774 402 762 c 1
 396 778 l 1
285 276 m 1
 472 276 l 1
 472 552 l 1
 285 276 l 1
-44 0 m 1
 -36 32 l 1
 1 32 l 2
 61 32 104 70 125 104 c 2
 536 712 l 1
 560 712 l 1
 560 75 l 2
 563 40 581 32 608 32 c 2
 664 32 l 1
 656 0 l 1
 360 0 l 1
 368 32 l 1
 430 32 l 2
 453 32 472 37 472 78 c 2
 472 244 l 1
 263 244 l 1
 195 144 l 2
 181 124 161 90 161 66 c 0
 161 48 170 32 201 32 c 2
 256 32 l 1
 248 0 l 1
 -44 0 l 1
EndSplineSet
Substitution2: "'c2sc' Capitals to Small Capitals lookup 2 subtable" acircumflex.sc
EndChar

StartChar: Atilde
Encoding: 387 195 131
Width: 728
GlyphClass: 2
Flags: MW
HStem: 0 32<-44 1 -36 1 1 31 201 248 368 430 430 441.5 608 656> 244 32<285 472 285 472 263 472> 692 20G<536 560 560 560> 812 52<639.5 669> 850 52<475 504.5>
VStem: 416 20<808 810> 472 88<78 244 244 244 276 552 552 552> 708 20<904 906>
LayerCount: 2
Fore
SplineSet
642 812 m 0xf7
 591 812 529 850 480 850 c 0
 456 850 441 834 436 808 c 1
 416 810 l 1
 420 857 448 902 502 902 c 0xef
 553 902 615 864 664 864 c 0
 688 864 703 880 708 906 c 1
 728 904 l 1
 724 857 696 812 642 812 c 0xf7
285 276 m 1
 472 276 l 1
 472 552 l 1
 285 276 l 1
-44 0 m 1
 -36 32 l 1
 1 32 l 2
 61 32 104 70 125 104 c 2
 536 712 l 1
 560 712 l 1
 560 75 l 2
 563 40 581 32 608 32 c 2
 664 32 l 1
 656 0 l 1
 360 0 l 1
 368 32 l 1
 430 32 l 2
 453 32 472 37 472 78 c 2
 472 244 l 1
 263 244 l 1
 195 144 l 2
 181 124 161 90 161 66 c 0
 161 48 170 32 201 32 c 2
 256 32 l 1
 248 0 l 1
 -44 0 l 1
EndSplineSet
MultipleSubs2: "Multiple Substitution lookup 32 subtable" A tildecomb
EndChar

StartChar: Adieresis
Encoding: 388 196 132
Width: 728
GlyphClass: 2
Flags: MW
HStem: 0 32<-44 1 -36 1 1 31 201 248 368 430 430 441.5 608 656> 244 32<285 472 285 472 263 472> 692 20G<536 560 560 560> 798 104<461 491 665 695>
VStem: 424 104<835 865> 472 88<78 244 244 244 276 552 552 552> 628 104<835 865>
LayerCount: 2
Fore
SplineSet
628 850 m 0xf2
 628 880 650 902 680 902 c 0
 710 902 732 880 732 850 c 0
 732 820 710 798 680 798 c 0
 650 798 628 820 628 850 c 0xf2
424 850 m 0xfa
 424 880 446 902 476 902 c 0
 506 902 528 880 528 850 c 0
 528 820 506 798 476 798 c 0
 446 798 424 820 424 850 c 0xfa
285 276 m 1
 472 276 l 1
 472 552 l 1xf6
 285 276 l 1
-44 0 m 1
 -36 32 l 1
 1 32 l 2
 61 32 104 70 125 104 c 2
 536 712 l 1
 560 712 l 1
 560 75 l 2
 563 40 581 32 608 32 c 2
 664 32 l 1
 656 0 l 1
 360 0 l 1
 368 32 l 1
 430 32 l 2
 453 32 472 37 472 78 c 2
 472 244 l 1
 263 244 l 1
 195 144 l 2
 181 124 161 90 161 66 c 0
 161 48 170 32 201 32 c 2
 256 32 l 1
 248 0 l 1
 -44 0 l 1
EndSplineSet
MultipleSubs2: "Multiple Substitution lookup 32 subtable" A uni0308
Substitution2: "'c2sc' Capitals to Small Capitals lookup 2 subtable" adieresis.sc
EndChar

StartChar: Aring
Encoding: 389 197 133
Width: 728
GlyphClass: 2
Flags: MW
HStem: 0 32<-44 1 -36 1 1 31 201 248 368 430 430 441.5 608 656> 244 32<285 472 285 472 263 472> 692 20G<536 560 560 560> 754 24<532 574 532 580> 924 24<532 574>
VStem: 456 24<831 873 831 879> 472 88<78 244 244 244 276 552 552 552> 626 24<831 873>
LayerCount: 2
Fore
SplineSet
456 852 m 0xfd
 456 906 499 948 553 948 c 0
 607 948 650 906 650 852 c 0
 650 798 607 754 553 754 c 0
 499 754 456 798 456 852 c 0xfd
480 852 m 0
 480 810 511 778 553 778 c 0
 595 778 626 810 626 852 c 0
 626 894 595 924 553 924 c 0
 511 924 480 894 480 852 c 0
285 276 m 1
 472 276 l 1
 472 552 l 1xfb
 285 276 l 1
-44 0 m 1
 -36 32 l 1
 1 32 l 2
 61 32 104 70 125 104 c 2
 536 712 l 1
 560 712 l 1
 560 75 l 2
 563 40 581 32 608 32 c 2
 664 32 l 1
 656 0 l 1
 360 0 l 1
 368 32 l 1
 430 32 l 2
 453 32 472 37 472 78 c 2
 472 244 l 1
 263 244 l 1
 195 144 l 2
 181 124 161 90 161 66 c 0
 161 48 170 32 201 32 c 2
 256 32 l 1
 248 0 l 1
 -44 0 l 1
EndSplineSet
MultipleSubs2: "Multiple Substitution lookup 32 subtable" A uni030A
EndChar

StartChar: AE
Encoding: 390 198 134
Width: 1010
GlyphClass: 2
LigCaretCntFixed: 1
Flags: MW
HStem: 0 32<-44 3 -36 3 3 31.5 195 235 318 393 393 402.5 538 724 724 738.5> 245 32<305 478 281 486> 352 32<608 700 599 716> 680 32<502 540 494 1054 704.5 714 714 878>
VStem: 750 25<202 202> 837 25<526 526>
AnchorPoint: "Anchor-2" 452 0 basechar 0
AnchorPoint: "Anchor-1" 770 782 basechar 0
AnchorPoint: "Anchor-0" 764 762 basechar 0
LayerCount: 2
Fore
SplineSet
-44 0 m 1
 -36 32 l 1
 3 32 l 2
 60 32 98 71 124 104 c 2
 514 591 l 2
 539 621 563 646 563 665 c 0
 563 675 556 680 540 680 c 2
 494 680 l 1
 502 712 l 1
 1054 712 l 1
 1008 484 l 1
 983 484 l 1
 983 484 986 505 986 532 c 0
 986 650 944 680 878 680 c 2
 714 680 l 2
 695 680 685 672 680 653 c 2
 608 384 l 1
 716 384 l 2
 800 384 822 468 837 526 c 1
 862 526 l 1
 775 202 l 1
 750 202 l 1
 755 224 760 252 760 277 c 0
 760 320 747 352 700 352 c 2
 599 352 l 1
 519 59 l 2
 518 54 517 50 517 47 c 0
 517 37 523 32 538 32 c 2
 724 32 l 2
 753 32 807 45 848 84 c 0
 911 146 954 268 954 268 c 1
 978 268 l 1
 894 0 l 1
 310 0 l 1
 318 32 l 1
 393 32 l 2
 412 32 423 41 428 59 c 2
 478 245 l 1
 281 245 l 1
 200 144 l 2
 191 131 159 94 159 61 c 0
 159 46 168 32 195 32 c 2
 243 32 l 1
 235 0 l 1
 -44 0 l 1
305 277 m 1
 486 277 l 1
 579 620 l 1
 305 277 l 1
EndSplineSet
Ligature2: "'rlig' Required Ligatures lookup 23 subtable" A afii301 E
Ligature2: "'rlig' Required Ligatures lookup 23 subtable" A afii301 e
Substitution2: "'c2sc' Capitals to Small Capitals lookup 2 subtable" ae.sc
LCarets2: 1 544
EndChar

StartChar: Ccedilla
Encoding: 391 199 135
Width: 670
GlyphClass: 2
Flags: MW
HStem: -238 24<205 241 205 253> -18 32<300 304 300 300> 698 32<432.5 502 379 538> 702 20G<677 700 700 700>
VStem: 92 96<167 263 113 369> 138 43<-187 -179.5 -196.5 -151> 263 30<-56 -40.5> 295 57<-158.5 -114> 613 23<416 425.5> 677 23<722 722>
LayerCount: 2
Fore
SplineSet
614 479 m 0xdbc0
 614 519 606 698 470 698 c 0
 395 698 332 660 266 536 c 0
 225 459 188 330 188 196 c 0xebc0
 188 30 262 14 321 14 c 0
 438 14 540 126 581 242 c 1
 612 231 l 1
 570 106 472 -18 304 -18 c 2
 300 -18 l 1
 296 -23 293 -31 293 -38 c 0
 293 -74 352 -76 352 -131 c 0
 352 -194 289 -238 217 -238 c 0
 177 -238 138 -210 138 -164 c 0
 138 -138 157 -114 181 -114 c 0
 201 -114 213 -124 213 -143 c 0
 213 -177 181 -170 181 -189 c 0xe7c0
 181 -204 189 -214 221 -214 c 0
 261 -214 295 -178 295 -139 c 0
 295 -89 263 -74 263 -45 c 0
 263 -36 265 -26 270 -15 c 1
 183 2 92 82 92 252 c 0
 92 486 284 730 474 730 c 0xebc0
 530 730 567 702 585 684 c 2
 603 666 l 2
 616 654 621 649 632 649 c 0
 664 649 672 701 677 722 c 1
 700 722 l 1
 636 416 l 1
 613 416 l 1
 613 435 614 456 614 479 c 0xdbc0
EndSplineSet
Ligature2: "'ccmp' Glyph Composition/Decomposition lookup 4 subtable" C uni0327
Substitution2: "'c2sc' Capitals to Small Capitals lookup 2 subtable" ccedilla.sc
EndChar

StartChar: Egrave
Encoding: 392 200 136
Width: 700
GlyphClass: 2
Flags: MW
HStem: 0 32<-10 74 -2 74 74 83.5 218 404 404 418.5> 352 32<287 380 279 395> 680 32<182 250 174 734 385 394 394 558>
VStem: 372 77<893 893 893 900> 430 25<202 202> 516 25<526 526>
LayerCount: 2
Fore
SplineSet
372 895 m 0xf4
 372 905 377 930 407 930 c 0
 424 930 440 920 449 893 c 2
 490 771 l 1
 475 762 l 1
 387 859 l 2
 378 869 372 884 372 895 c 0xf4
-10 0 m 1
 -2 32 l 1
 74 32 l 2
 93 32 103 41 108 59 c 2
 269 653 l 2
 270 657 271 662 271 665 c 0
 271 676 264 680 250 680 c 2
 174 680 l 1
 182 712 l 1
 734 712 l 1
 688 484 l 1
 663 484 l 1
 663 484 666 505 666 532 c 0
 666 650 624 680 558 680 c 2
 394 680 l 2
 376 680 365 672 360 653 c 2
 287 384 l 1
 395 384 l 2
 479 384 501 468 516 526 c 1
 541 526 l 1
 455 202 l 1
 430 202 l 1xec
 435 224 440 252 440 277 c 0
 440 320 427 352 380 352 c 2
 279 352 l 1
 199 59 l 2
 198 55 197 51 197 48 c 0
 197 37 204 32 218 32 c 2
 404 32 l 2
 433 32 487 45 528 84 c 0
 591 146 634 268 634 268 c 1
 658 268 l 1
 574 0 l 1
 -10 0 l 1
EndSplineSet
Substitution2: "'c2sc' Capitals to Small Capitals lookup 2 subtable" egrave.sc
EndChar

StartChar: Eacute
Encoding: 393 201 137
Width: 700
GlyphClass: 2
Flags: MW
HStem: 0 32<-10 74 -2 74 74 83.5 218 404 404 418.5> 352 32<287 380 279 395> 680 32<182 250 174 734 385 394 394 558>
VStem: 430 25<202 202> 516 25<526 526>
LayerCount: 2
Fore
SplineSet
466 774 m 1
 572 897 l 2
 590 918 604 924 620 924 c 0
 643 924 648 908 648 895 c 0
 648 869 626 855 616 849 c 2
 478 762 l 1
 466 774 l 1
-10 0 m 1
 -2 32 l 1
 74 32 l 2
 93 32 103 41 108 59 c 2
 269 653 l 2
 270 657 271 662 271 665 c 0
 271 676 264 680 250 680 c 2
 174 680 l 1
 182 712 l 1
 734 712 l 1
 688 484 l 1
 663 484 l 1
 663 484 666 505 666 532 c 0
 666 650 624 680 558 680 c 2
 394 680 l 2
 376 680 365 672 360 653 c 2
 287 384 l 1
 395 384 l 2
 479 384 501 468 516 526 c 1
 541 526 l 1
 455 202 l 1
 430 202 l 1
 435 224 440 252 440 277 c 0
 440 320 427 352 380 352 c 2
 279 352 l 1
 199 59 l 2
 198 55 197 51 197 48 c 0
 197 37 204 32 218 32 c 2
 404 32 l 2
 433 32 487 45 528 84 c 0
 591 146 634 268 634 268 c 1
 658 268 l 1
 574 0 l 1
 -10 0 l 1
EndSplineSet
Substitution2: "'c2sc' Capitals to Small Capitals lookup 2 subtable" eacute.sc
EndChar

StartChar: Ecircumflex
Encoding: 394 202 138
Width: 700
GlyphClass: 2
Flags: MW
HStem: 0 32<-10 74 -2 74 74 83.5 218 404 404 418.5> 352 32<287 380 279 395> 680 32<182 250 174 734 385 394 394 558>
VStem: 430 25<202 202> 516 25<526 526>
LayerCount: 2
Fore
SplineSet
324 778 m 1
 405 818 461 870 500 920 c 1
 540 920 l 1
 553 870 581 818 640 778 c 1
 626 762 l 1
 595 774 535 820 504 858 c 1
 451 820 367 774 330 762 c 1
 324 778 l 1
-10 0 m 1
 -2 32 l 1
 74 32 l 2
 93 32 103 41 108 59 c 2
 269 653 l 2
 270 657 271 662 271 665 c 0
 271 676 264 680 250 680 c 2
 174 680 l 1
 182 712 l 1
 734 712 l 1
 688 484 l 1
 663 484 l 1
 663 484 666 505 666 532 c 0
 666 650 624 680 558 680 c 2
 394 680 l 2
 376 680 365 672 360 653 c 2
 287 384 l 1
 395 384 l 2
 479 384 501 468 516 526 c 1
 541 526 l 1
 455 202 l 1
 430 202 l 1
 435 224 440 252 440 277 c 0
 440 320 427 352 380 352 c 2
 279 352 l 1
 199 59 l 2
 198 55 197 51 197 48 c 0
 197 37 204 32 218 32 c 2
 404 32 l 2
 433 32 487 45 528 84 c 0
 591 146 634 268 634 268 c 1
 658 268 l 1
 574 0 l 1
 -10 0 l 1
EndSplineSet
Substitution2: "'c2sc' Capitals to Small Capitals lookup 2 subtable" ecircumflex.sc
EndChar

StartChar: Edieresis
Encoding: 395 203 139
Width: 700
GlyphClass: 2
Flags: MW
HStem: 0 32<-10 74 -2 74 74 83.5 218 404 404 418.5> 352 32<287 380 279 395> 680 32<182 250 174 734 385 394 394 558> 798 104<389 419 593 623>
VStem: 352 104<835 865> 430 25<202 202> 516 25<526 526> 556 104<835 865>
LayerCount: 2
Fore
SplineSet
556 850 m 0xf3
 556 880 578 902 608 902 c 0
 638 902 660 880 660 850 c 0
 660 820 638 798 608 798 c 0
 578 798 556 820 556 850 c 0xf3
352 850 m 0xfb
 352 880 374 902 404 902 c 0
 434 902 456 880 456 850 c 0
 456 820 434 798 404 798 c 0
 374 798 352 820 352 850 c 0xfb
-10 0 m 1
 -2 32 l 1
 74 32 l 2
 93 32 103 41 108 59 c 2
 269 653 l 2
 270 657 271 662 271 665 c 0
 271 676 264 680 250 680 c 2
 174 680 l 1
 182 712 l 1
 734 712 l 1
 688 484 l 1
 663 484 l 1
 663 484 666 505 666 532 c 0
 666 650 624 680 558 680 c 2
 394 680 l 2
 376 680 365 672 360 653 c 2
 287 384 l 1
 395 384 l 2
 479 384 501 468 516 526 c 1
 541 526 l 1
 455 202 l 1
 430 202 l 1xf7
 435 224 440 252 440 277 c 0
 440 320 427 352 380 352 c 2
 279 352 l 1
 199 59 l 2
 198 55 197 51 197 48 c 0
 197 37 204 32 218 32 c 2
 404 32 l 2
 433 32 487 45 528 84 c 0
 591 146 634 268 634 268 c 1
 658 268 l 1
 574 0 l 1
 -10 0 l 1
EndSplineSet
MultipleSubs2: "Multiple Substitution lookup 32 subtable" E uni0308
Substitution2: "'c2sc' Capitals to Small Capitals lookup 2 subtable" edieresis.sc
EndChar

StartChar: Igrave
Encoding: 396 204 140
Width: 400
GlyphClass: 2
Flags: MW
HStem: 0 32<-10 74 -2 74 74 83.5 218 286> 680 32<182 250 174 478 385 394 394 470>
VStem: 240 77<893 893 893 900>
LayerCount: 2
Fore
SplineSet
240 895 m 0
 240 905 245 930 275 930 c 0
 292 930 308 920 317 893 c 2
 358 771 l 1
 343 762 l 1
 255 859 l 2
 246 869 240 884 240 895 c 0
-10 0 m 1
 -2 32 l 1
 74 32 l 2
 93 32 103 41 108 59 c 2
 269 653 l 2
 270 657 271 662 271 665 c 0
 271 676 264 680 250 680 c 2
 174 680 l 1
 182 712 l 1
 478 712 l 1
 470 680 l 1
 394 680 l 2
 376 680 365 672 360 653 c 2
 199 59 l 2
 198 55 197 51 197 48 c 0
 197 37 204 32 218 32 c 2
 294 32 l 1
 286 0 l 1
 -10 0 l 1
EndSplineSet
Substitution2: "'c2sc' Capitals to Small Capitals lookup 2 subtable" igrave.sc
EndChar

StartChar: Iacute
Encoding: 397 205 141
Width: 400
GlyphClass: 2
Flags: MW
HStem: 0 32<-10 74 -2 74 74 83.5 218 286> 680 32<182 250 174 478 385 394 394 470>
LayerCount: 2
Fore
SplineSet
334 774 m 1
 440 897 l 2
 458 918 472 924 488 924 c 0
 511 924 516 908 516 895 c 0
 516 869 494 855 484 849 c 2
 346 762 l 1
 334 774 l 1
-10 0 m 1
 -2 32 l 1
 74 32 l 2
 93 32 103 41 108 59 c 2
 269 653 l 2
 270 657 271 662 271 665 c 0
 271 676 264 680 250 680 c 2
 174 680 l 1
 182 712 l 1
 478 712 l 1
 470 680 l 1
 394 680 l 2
 376 680 365 672 360 653 c 2
 199 59 l 2
 198 55 197 51 197 48 c 0
 197 37 204 32 218 32 c 2
 294 32 l 1
 286 0 l 1
 -10 0 l 1
EndSplineSet
Substitution2: "'c2sc' Capitals to Small Capitals lookup 2 subtable" iacute.sc
EndChar

StartChar: Icircumflex
Encoding: 398 206 142
Width: 400
GlyphClass: 2
Flags: MW
HStem: 0 32<-10 74 -2 74 74 83.5 218 286> 680 32<182 250 174 478 385 394 394 470>
LayerCount: 2
Fore
SplineSet
192 778 m 1
 273 818 329 870 368 920 c 1
 408 920 l 1
 421 870 449 818 508 778 c 1
 494 762 l 1
 463 774 403 820 372 858 c 1
 319 820 235 774 198 762 c 1
 192 778 l 1
-10 0 m 1
 -2 32 l 1
 74 32 l 2
 93 32 103 41 108 59 c 2
 269 653 l 2
 270 657 271 662 271 665 c 0
 271 676 264 680 250 680 c 2
 174 680 l 1
 182 712 l 1
 478 712 l 1
 470 680 l 1
 394 680 l 2
 376 680 365 672 360 653 c 2
 199 59 l 2
 198 55 197 51 197 48 c 0
 197 37 204 32 218 32 c 2
 294 32 l 1
 286 0 l 1
 -10 0 l 1
EndSplineSet
Substitution2: "'c2sc' Capitals to Small Capitals lookup 2 subtable" icircumflex.sc
EndChar

StartChar: Idieresis
Encoding: 399 207 143
Width: 400
GlyphClass: 2
Flags: MW
HStem: 0 32<-10 74 -2 74 74 83.5 218 286> 680 32<182 250 174 478 385 394 394 470> 798 104<257 287 461 491>
VStem: 220 104<835 865> 424 104<835 865>
LayerCount: 2
Fore
SplineSet
424 850 m 0
 424 880 446 902 476 902 c 0
 506 902 528 880 528 850 c 0
 528 820 506 798 476 798 c 0
 446 798 424 820 424 850 c 0
220 850 m 0
 220 880 242 902 272 902 c 0
 302 902 324 880 324 850 c 0
 324 820 302 798 272 798 c 0
 242 798 220 820 220 850 c 0
-10 0 m 1
 -2 32 l 1
 74 32 l 2
 93 32 103 41 108 59 c 2
 269 653 l 2
 270 657 271 662 271 665 c 0
 271 676 264 680 250 680 c 2
 174 680 l 1
 182 712 l 1
 478 712 l 1
 470 680 l 1
 394 680 l 2
 376 680 365 672 360 653 c 2
 199 59 l 2
 198 55 197 51 197 48 c 0
 197 37 204 32 218 32 c 2
 294 32 l 1
 286 0 l 1
 -10 0 l 1
EndSplineSet
MultipleSubs2: "Multiple Substitution lookup 32 subtable" I uni0308
Substitution2: "'c2sc' Capitals to Small Capitals lookup 2 subtable" idieresis.sc
EndChar

StartChar: Eth
Encoding: 400 208 144
Width: 748
GlyphClass: 2
Flags: MW
HStem: 0 32<-2 74 74 83.5 218 334 -10 74> 356 36<84 188 76 198 289 412> 680 32<183 250 174 504 385 394 394 482>
VStem: 630 96<382 528 349 547>
LayerCount: 2
Fore
SplineSet
726 453 m 0
 726 245 566 0 334 0 c 2
 -10 0 l 1
 -2 32 l 1
 74 32 l 2
 93 32 103 41 108 59 c 2
 188 356 l 1
 76 356 l 1
 84 392 l 1
 198 392 l 1
 269 653 l 2
 270 657 271 662 271 665 c 0
 271 676 264 680 250 680 c 2
 174 680 l 1
 183 712 l 1
 504 712 l 2
 647 712 726 603 726 453 c 0
344 32 m 2
 527 32 630 264 630 500 c 0
 630 594 596 680 482 680 c 2
 394 680 l 2
 376 680 365 672 360 653 c 2
 289 392 l 1
 420 392 l 1
 412 356 l 1
 280 356 l 1
 199 59 l 2
 198 55 197 51 197 48 c 0
 197 37 204 32 218 32 c 2
 344 32 l 2
EndSplineSet
EndChar

StartChar: Ntilde
Encoding: 401 209 145
Width: 790
GlyphClass: 2
Flags: MW
HStem: -18 21G<533 573 533 533> 0 32<-10 46 -2 46 46 68.5 220 260> 680 32<182 261 174 364 614 654 809.5 828 828 876> 812 52<635.5 665> 850 52<471 500.5>
VStem: 412 20<808 810> 704 20<904 906>
LayerCount: 2
Fore
SplineSet
638 812 m 0x36
 587 812 525 850 476 850 c 0
 452 850 437 834 432 808 c 1
 412 810 l 1
 416 857 444 902 498 902 c 0x2e
 549 902 611 864 660 864 c 0
 684 864 699 880 704 906 c 1
 724 904 l 1
 720 857 692 812 638 812 c 0x36
-10 0 m 1x66
 -2 32 l 1
 46 32 l 2x66
 91 32 124 76 137 126 c 2
 280 653 l 2
 281 657 282 661 282 664 c 0
 282 675 275 680 261 680 c 2
 174 680 l 1
 182 712 l 1
 364 712 l 1
 573 129 l 1
 698 586 l 2
 703 603 705 617 705 629 c 0
 705 664 687 680 654 680 c 2
 606 680 l 1
 614 712 l 1
 884 712 l 1
 876 680 l 1
 828 680 l 2
 791 680 753 646 737 586 c 2
 573 -18 l 1
 533 -18 l 1xa6
 312 603 l 1
 307 603 l 1
 176 126 l 2
 172 111 170 96 170 83 c 0
 170 53 182 32 220 32 c 2
 268 32 l 1
 260 0 l 1
 -10 0 l 1x66
EndSplineSet
Substitution2: "'c2sc' Capitals to Small Capitals lookup 2 subtable" ntilde.sc
EndChar

StartChar: Ograve
Encoding: 402 210 146
Width: 710
GlyphClass: 2
Flags: MW
HStem: -18 32<273 396> 698 32<382 505>
VStem: 92 96<176 316 133 383> 388 77<893 893 893 900> 590 96<396 534 327 579>
LayerCount: 2
Fore
SplineSet
388 895 m 0
 388 905 393 930 423 930 c 0
 440 930 456 920 465 893 c 2
 506 771 l 1
 491 762 l 1
 403 859 l 2
 394 869 388 884 388 895 c 0
466 698 m 0
 296 698 188 440 188 192 c 0
 188 74 234 14 312 14 c 0
 482 14 590 272 590 520 c 0
 590 638 544 698 466 698 c 0
92 248 m 0
 92 518 290 730 474 730 c 0
 606 730 686 606 686 462 c 0
 686 192 488 -18 304 -18 c 0
 172 -18 92 104 92 248 c 0
EndSplineSet
Substitution2: "'c2sc' Capitals to Small Capitals lookup 2 subtable" ograve.sc
EndChar

StartChar: Oacute
Encoding: 403 211 147
Width: 710
GlyphClass: 2
Flags: MW
HStem: -18 32<273 396> 698 32<382 505>
VStem: 92 96<176 316 133 383> 590 96<396 534 327 579>
LayerCount: 2
Fore
SplineSet
482 774 m 1
 588 897 l 2
 606 918 620 924 636 924 c 0
 659 924 664 908 664 895 c 0
 664 869 642 855 632 849 c 2
 494 762 l 1
 482 774 l 1
466 698 m 0
 296 698 188 440 188 192 c 0
 188 74 234 14 312 14 c 0
 482 14 590 272 590 520 c 0
 590 638 544 698 466 698 c 0
92 248 m 0
 92 518 290 730 474 730 c 0
 606 730 686 606 686 462 c 0
 686 192 488 -18 304 -18 c 0
 172 -18 92 104 92 248 c 0
EndSplineSet
Substitution2: "'c2sc' Capitals to Small Capitals lookup 2 subtable" oacute.sc
EndChar

StartChar: Ocircumflex
Encoding: 404 212 148
Width: 710
GlyphClass: 2
Flags: MW
HStem: -18 32<273 396> 698 32<382 505>
VStem: 92 96<176 316 133 383> 590 96<396 534 327 579>
LayerCount: 2
Fore
SplineSet
340 778 m 1
 421 818 477 870 516 920 c 1
 556 920 l 1
 569 870 597 818 656 778 c 1
 642 762 l 1
 611 774 551 820 520 858 c 1
 467 820 383 774 346 762 c 1
 340 778 l 1
466 698 m 0
 296 698 188 440 188 192 c 0
 188 74 234 14 312 14 c 0
 482 14 590 272 590 520 c 0
 590 638 544 698 466 698 c 0
92 248 m 0
 92 518 290 730 474 730 c 0
 606 730 686 606 686 462 c 0
 686 192 488 -18 304 -18 c 0
 172 -18 92 104 92 248 c 0
EndSplineSet
Substitution2: "'c2sc' Capitals to Small Capitals lookup 2 subtable" ocircumflex.sc
EndChar

StartChar: Otilde
Encoding: 405 213 149
Width: 710
GlyphClass: 2
Flags: MW
HStem: -18 32<273 396> 698 32<382 505> 812 52<589.5 619> 850 52<425 454.5>
VStem: 92 96<176 316 133 383> 366 20<808 810> 590 96<396 534 327 579> 658 20<904 906>
LayerCount: 2
Fore
SplineSet
592 812 m 0xed
 541 812 479 850 430 850 c 0
 406 850 391 834 386 808 c 1
 366 810 l 1
 370 857 398 902 452 902 c 0xdd
 503 902 565 864 614 864 c 0
 638 864 653 880 658 906 c 1
 678 904 l 1
 674 857 646 812 592 812 c 0xed
466 698 m 0
 296 698 188 440 188 192 c 0
 188 74 234 14 312 14 c 0
 482 14 590 272 590 520 c 0xce
 590 638 544 698 466 698 c 0
92 248 m 0
 92 518 290 730 474 730 c 0
 606 730 686 606 686 462 c 0
 686 192 488 -18 304 -18 c 0
 172 -18 92 104 92 248 c 0
EndSplineSet
MultipleSubs2: "Multiple Substitution lookup 32 subtable" O tildecomb
EndChar

StartChar: Odieresis
Encoding: 406 214 150
Width: 710
GlyphClass: 2
Flags: MW
HStem: -18 32<273 396> 698 32<382 505> 798 104<405 435 609 639>
VStem: 92 96<176 316 133 383> 368 104<835 865> 572 104<835 865> 590 96<396 534 327 579>
LayerCount: 2
Fore
SplineSet
572 850 m 0xfc
 572 880 594 902 624 902 c 0
 654 902 676 880 676 850 c 0
 676 820 654 798 624 798 c 0
 594 798 572 820 572 850 c 0xfc
368 850 m 0
 368 880 390 902 420 902 c 0
 450 902 472 880 472 850 c 0
 472 820 450 798 420 798 c 0
 390 798 368 820 368 850 c 0
466 698 m 0
 296 698 188 440 188 192 c 0
 188 74 234 14 312 14 c 0
 482 14 590 272 590 520 c 0xfa
 590 638 544 698 466 698 c 0
92 248 m 0
 92 518 290 730 474 730 c 0
 606 730 686 606 686 462 c 0
 686 192 488 -18 304 -18 c 0
 172 -18 92 104 92 248 c 0
EndSplineSet
MultipleSubs2: "Multiple Substitution lookup 32 subtable" O uni0308
Substitution2: "'c2sc' Capitals to Small Capitals lookup 2 subtable" odieresis.sc
EndChar

StartChar: multiply
Encoding: 407 215 151
Width: 940
GlyphClass: 2
Flags: W
LayerCount: 2
Fore
SplineSet
164 -18 m 1
 447 264 l 1
 164 546 l 1
 196 578 l 1
 478 295 l 1
 760 578 l 1
 792 546 l 1
 509 264 l 1
 792 -18 l 1
 760 -50 l 1
 478 233 l 1
 196 -50 l 1
 164 -18 l 1
EndSplineSet
EndChar

StartChar: Oslash
Encoding: 408 216 152
Width: 710
GlyphClass: 2
Flags: MW
HStem: -18 32<282 396> 698 32<382 496.5>
VStem: 92 96<220 316 187 383> 590 96<396 490 327 524.5>
AnchorPoint: "Anchor-2" 310 0 basechar 0
AnchorPoint: "Anchor-1" 500 782 basechar 0
AnchorPoint: "Anchor-0" 494 762 basechar 0
LayerCount: 2
Fore
SplineSet
44 6 m 1
 127 96 l 1
 104 139 92 192 92 248 c 0
 92 518 290 730 474 730 c 0
 542 730 597 697 633 645 c 1
 712 730 l 1
 736 706 l 1
 652 614 l 1
 674 571 686 518 686 462 c 0
 686 192 488 -18 304 -18 c 0
 236 -18 182 14 145 66 c 1
 68 -18 l 1
 44 6 l 1
312 14 m 0
 482 14 590 272 590 520 c 0
 590 529 590 538 589 547 c 1
 195 120 l 1
 211 50 252 14 312 14 c 0
466 698 m 0
 296 698 188 440 188 192 c 0
 188 182 188 172 189 163 c 1
 583 590 l 1
 568 662 527 698 466 698 c 0
EndSplineSet
EndChar

StartChar: Ugrave
Encoding: 409 217 153
Width: 784
GlyphClass: 2
Flags: MW
HStem: -18 32<323.5 434.5 323.5 444> 680 32<164 232 156 460 366.5 376 376 452 610 650 803 824 824 872>
VStem: 130 84<123.5 163 109.5 185.5> 438 77<893 893 893 900>
LayerCount: 2
Fore
SplineSet
438 895 m 0
 438 905 443 930 473 930 c 0
 490 930 506 920 515 893 c 2
 556 771 l 1
 541 762 l 1
 453 859 l 2
 444 869 438 884 438 895 c 0
130 176 m 0
 130 195 134 217 139 238 c 2
 251 653 l 2
 252 657 253 661 253 664 c 0
 253 675 246 680 232 680 c 2
 156 680 l 1
 164 712 l 1
 460 712 l 1
 452 680 l 1
 376 680 l 2
 357 680 347 672 342 653 c 2
 223 211 l 2
 218 190 214 172 214 154 c 0
 214 65 278 14 369 14 c 0
 500 14 564 108 588 198 c 2
 695 588 l 2
 698 600 701 620 701 630 c 0
 701 653 691 680 650 680 c 2
 602 680 l 1
 610 712 l 1
 880 712 l 1
 872 680 l 1
 824 680 l 2
 782 680 747 639 733 586 c 2
 629 208 l 2
 595 83 527 -18 361 -18 c 0
 202 -18 130 71 130 176 c 0
EndSplineSet
Substitution2: "'c2sc' Capitals to Small Capitals lookup 2 subtable" ugrave.sc
EndChar

StartChar: Uacute
Encoding: 410 218 154
Width: 784
GlyphClass: 2
Flags: MW
HStem: -18 32<323.5 434.5 323.5 444> 680 32<164 232 156 460 366.5 376 376 452 610 650 803 824 824 872>
VStem: 130 84<123.5 163 109.5 185.5>
LayerCount: 2
Fore
SplineSet
532 774 m 1
 638 897 l 2
 656 918 670 924 686 924 c 0
 709 924 714 908 714 895 c 0
 714 869 692 855 682 849 c 2
 544 762 l 1
 532 774 l 1
130 176 m 0
 130 195 134 217 139 238 c 2
 251 653 l 2
 252 657 253 661 253 664 c 0
 253 675 246 680 232 680 c 2
 156 680 l 1
 164 712 l 1
 460 712 l 1
 452 680 l 1
 376 680 l 2
 357 680 347 672 342 653 c 2
 223 211 l 2
 218 190 214 172 214 154 c 0
 214 65 278 14 369 14 c 0
 500 14 564 108 588 198 c 2
 695 588 l 2
 698 600 701 620 701 630 c 0
 701 653 691 680 650 680 c 2
 602 680 l 1
 610 712 l 1
 880 712 l 1
 872 680 l 1
 824 680 l 2
 782 680 747 639 733 586 c 2
 629 208 l 2
 595 83 527 -18 361 -18 c 0
 202 -18 130 71 130 176 c 0
EndSplineSet
Substitution2: "'c2sc' Capitals to Small Capitals lookup 2 subtable" uacute.sc
EndChar

StartChar: Ucircumflex
Encoding: 411 219 155
Width: 784
GlyphClass: 2
Flags: MW
HStem: -18 32<323.5 434.5 323.5 444> 680 32<164 232 156 460 366.5 376 376 452 610 650 803 824 824 872>
VStem: 130 84<123.5 163 109.5 185.5>
LayerCount: 2
Fore
SplineSet
390 778 m 1
 471 818 527 870 566 920 c 1
 606 920 l 1
 619 870 647 818 706 778 c 1
 692 762 l 1
 661 774 601 820 570 858 c 1
 517 820 433 774 396 762 c 1
 390 778 l 1
130 176 m 0
 130 195 134 217 139 238 c 2
 251 653 l 2
 252 657 253 661 253 664 c 0
 253 675 246 680 232 680 c 2
 156 680 l 1
 164 712 l 1
 460 712 l 1
 452 680 l 1
 376 680 l 2
 357 680 347 672 342 653 c 2
 223 211 l 2
 218 190 214 172 214 154 c 0
 214 65 278 14 369 14 c 0
 500 14 564 108 588 198 c 2
 695 588 l 2
 698 600 701 620 701 630 c 0
 701 653 691 680 650 680 c 2
 602 680 l 1
 610 712 l 1
 880 712 l 1
 872 680 l 1
 824 680 l 2
 782 680 747 639 733 586 c 2
 629 208 l 2
 595 83 527 -18 361 -18 c 0
 202 -18 130 71 130 176 c 0
EndSplineSet
Substitution2: "'c2sc' Capitals to Small Capitals lookup 2 subtable" ucircumflex.sc
EndChar

StartChar: Udieresis
Encoding: 412 220 156
Width: 784
GlyphClass: 2
Flags: MW
HStem: -18 32<323.5 434.5 323.5 444> 680 32<164 232 156 460 366.5 376 376 452 610 650 803 824 824 872> 798 104<455 485 659 689>
VStem: 130 84<123.5 163 109.5 185.5> 418 104<835 865> 622 104<835 865>
LayerCount: 2
Fore
SplineSet
622 850 m 0
 622 880 644 902 674 902 c 0
 704 902 726 880 726 850 c 0
 726 820 704 798 674 798 c 0
 644 798 622 820 622 850 c 0
418 850 m 0
 418 880 440 902 470 902 c 0
 500 902 522 880 522 850 c 0
 522 820 500 798 470 798 c 0
 440 798 418 820 418 850 c 0
130 176 m 0
 130 195 134 217 139 238 c 2
 251 653 l 2
 252 657 253 661 253 664 c 0
 253 675 246 680 232 680 c 2
 156 680 l 1
 164 712 l 1
 460 712 l 1
 452 680 l 1
 376 680 l 2
 357 680 347 672 342 653 c 2
 223 211 l 2
 218 190 214 172 214 154 c 0
 214 65 278 14 369 14 c 0
 500 14 564 108 588 198 c 2
 695 588 l 2
 698 600 701 620 701 630 c 0
 701 653 691 680 650 680 c 2
 602 680 l 1
 610 712 l 1
 880 712 l 1
 872 680 l 1
 824 680 l 2
 782 680 747 639 733 586 c 2
 629 208 l 2
 595 83 527 -18 361 -18 c 0
 202 -18 130 71 130 176 c 0
EndSplineSet
MultipleSubs2: "Multiple Substitution lookup 32 subtable" U uni0308
Substitution2: "'c2sc' Capitals to Small Capitals lookup 2 subtable" udieresis.sc
EndChar

StartChar: Yacute
Encoding: 413 221 157
Width: 720
GlyphClass: 2
Flags: MW
HStem: 0 32<106 214 114 214 214 223 356 448> 680 32<122 188 114 438 357 371 371 430 534 569 749.5 775 775 822>
LayerCount: 2
Fore
SplineSet
478 774 m 1
 584 897 l 2
 602 918 616 924 632 924 c 0
 655 924 660 908 660 895 c 0
 660 869 638 855 628 849 c 2
 490 762 l 1
 478 774 l 1
106 0 m 1
 114 32 l 1
 214 32 l 2
 232 32 242 40 247 58 c 2
 317 318 l 1
 238 636 l 2
 227 669 215 680 188 680 c 2
 114 680 l 1
 122 712 l 1
 438 712 l 1
 430 680 l 1
 371 680 l 2
 343 680 327 663 327 645 c 0
 327 641 327 637 329 633 c 2
 395 355 l 1
 567 553 l 2
 586 575 617 609 617 641 c 0
 617 661 608 680 569 680 c 2
 526 680 l 1
 534 712 l 1
 830 712 l 1
 822 680 l 1
 775 680 l 2
 724 680 683 639 656 607 c 2
 411 329 l 1
 338 58 l 2
 336 54 336 49 336 46 c 0
 336 36 342 32 356 32 c 2
 456 32 l 1
 448 0 l 1
 106 0 l 1
EndSplineSet
EndChar

StartChar: Thorn
Encoding: 414 222 158
Width: 678
GlyphClass: 2
Flags: MW
HStem: 0 32<-10 74 -2 74 74 83.5 218 322> 194 32<245 358 236 379> 546 32<349 358 358 466> 680 32<183 250 174 514 383.5 394 394 506>
VStem: 558 96<373 469 361 477>
LayerCount: 2
Fore
SplineSet
-10 0 m 1
 -2 32 l 1
 74 32 l 2
 93 32 103 41 108 59 c 2
 269 653 l 2
 270 657 271 662 271 665 c 0
 271 676 264 680 250 680 c 2
 174 680 l 1
 183 712 l 1
 514 712 l 1
 506 680 l 1
 394 680 l 2
 373 680 365 672 360 653 c 2
 340 578 l 1
 501 578 l 2
 590 578 654 518 654 420 c 0
 654 302 540 194 358 194 c 2
 236 194 l 1
 199 59 l 2
 198 54 197 50 197 47 c 0
 197 37 203 32 218 32 c 2
 330 32 l 1
 322 0 l 1
 -10 0 l 1
379 226 m 2
 472 226 558 308 558 438 c 0
 558 516 513 546 466 546 c 2
 358 546 l 2
 340 546 329 538 324 519 c 2
 245 226 l 1
 379 226 l 2
EndSplineSet
EndChar

StartChar: germandbls
Encoding: 415 223 159
Width: 480
GlyphClass: 2
Flags: MW
HStem: -12 24<212.5 264.5 212.5 296> 418 28<258 288 250 296> 696 24<356 398.5>
VStem: 137 44<44 62 33.5 79> 362 72<212.5 307.5 212.5 311> 442 64<570 636.5>
LayerCount: 2
Fore
SplineSet
239 108 m 0
 239 56 181 81 181 43 c 0
 181 24 199 12 226 12 c 0
 303 12 362 146 362 270 c 0
 362 352 344 418 288 418 c 2
 250 418 l 1
 258 446 l 1
 296 446 l 2
 385 446 442 533 442 607 c 0
 442 666 423 696 374 696 c 0
 338 696 270 669 238 553 c 2
 32 -205 l 1
 -34 -205 l 1
 163 525 l 2
 202 667 309 720 382 720 c 0
 480 720 506 663 506 611 c 0
 506 518 417 446 331 434 c 1
 330 430 l 1
 373 424 434 361 434 254 c 0
 434 171 374 -12 218 -12 c 0
 171 -12 137 22 137 66 c 0
 137 92 150 144 202 144 c 0
 228 144 239 124 239 108 c 0
EndSplineSet
Substitution2: "'smcp' Lowercase to Small Capitals lookup 1 subtable" germandbls.sc
EndChar

StartChar: agrave
Encoding: 416 224 160
Width: 536
GlyphClass: 2
Flags: MW
HStem: -12 24<142 189> -12 34<373 396> 424 20G<395 461 461 461> 432 24<235.5 296 217 297.5>
VStem: 42 72<84.5 150.5 68.5 210.5> 230 76<637 637 637 645> 304 58<40.5 100>
LayerCount: 2
Fore
SplineSet
230 640 m 0x0c
 230 650 236 676 266 676 c 0
 287 676 297 664 306 637 c 2
 346 518 l 1
 329 508 l 1
 244 605 l 2
 235 615 230 629 230 640 c 0x0c
42 125 m 0
 42 296 157 456 277 456 c 0x9a
 315 456 354 432 369 368 c 1
 373 366 l 1
 395 444 l 1
 461 444 l 1
 376 129 l 2
 372 113 362 73 362 49 c 0
 362 32 366 22 380 22 c 0
 418 22 459 92 489 182 c 1
 509 176 l 1
 481 94 430 -12 362 -12 c 0x6a
 310 -12 304 50 304 90 c 0
 304 110 305 117 305 117 c 1
 302 119 l 1
 282 76 224 -12 154 -12 c 0x8a
 82 -12 42 44 42 125 c 0
277 432 m 0
 194 432 114 216 114 85 c 0
 114 52 124 12 160 12 c 0
 265 12 344 256 344 340 c 0
 344 400 318 432 277 432 c 0
EndSplineSet
Substitution2: "'smcp' Lowercase to Small Capitals lookup 1 subtable" agrave.sc
EndChar

StartChar: aacute
Encoding: 417 225 161
Width: 536
GlyphClass: 2
Flags: MW
HStem: -12 24<142 189> -12 34<373 396> 424 20G<395 461 461 461> 432 24<235.5 296 217 297.5>
VStem: 42 72<84.5 150.5 68.5 210.5> 304 58<40.5 100>
LayerCount: 2
Fore
SplineSet
308 520 m 1x0c
 414 643 l 2
 432 664 446 670 462 670 c 0
 484 670 490 654 490 641 c 0
 490 616 469 602 458 595 c 2
 320 508 l 1
 308 520 l 1x0c
42 125 m 0
 42 296 157 456 277 456 c 0x9c
 315 456 354 432 369 368 c 1
 373 366 l 1
 395 444 l 1
 461 444 l 1
 376 129 l 2
 372 113 362 73 362 49 c 0
 362 32 366 22 380 22 c 0
 418 22 459 92 489 182 c 1
 509 176 l 1
 481 94 430 -12 362 -12 c 0x6c
 310 -12 304 50 304 90 c 0
 304 110 305 117 305 117 c 1
 302 119 l 1
 282 76 224 -12 154 -12 c 0x8c
 82 -12 42 44 42 125 c 0
277 432 m 0
 194 432 114 216 114 85 c 0
 114 52 124 12 160 12 c 0
 265 12 344 256 344 340 c 0
 344 400 318 432 277 432 c 0
EndSplineSet
Substitution2: "'smcp' Lowercase to Small Capitals lookup 1 subtable" aacute.sc
EndChar

StartChar: acircumflex
Encoding: 418 226 162
Width: 536
GlyphClass: 2
Flags: MW
HStem: -12 24<142 189> -12 34<373 396> 424 20G<395 461 461 461> 432 24<235.5 296 217 297.5>
VStem: 42 72<84.5 150.5 68.5 210.5> 304 58<40.5 100>
LayerCount: 2
Fore
SplineSet
194 521 m 1x0c
 271 562 318 626 346 672 c 1
 386 672 l 1
 390 626 403 562 456 521 c 1
 444 508 l 1
 407 530 372 562 347 600 c 1
 300 562 248 530 200 508 c 1
 194 521 l 1x0c
42 125 m 0
 42 296 157 456 277 456 c 0x9c
 315 456 354 432 369 368 c 1
 373 366 l 1
 395 444 l 1
 461 444 l 1
 376 129 l 2
 372 113 362 73 362 49 c 0
 362 32 366 22 380 22 c 0
 418 22 459 92 489 182 c 1
 509 176 l 1
 481 94 430 -12 362 -12 c 0x6c
 310 -12 304 50 304 90 c 0
 304 110 305 117 305 117 c 1
 302 119 l 1
 282 76 224 -12 154 -12 c 0x8c
 82 -12 42 44 42 125 c 0
277 432 m 0
 194 432 114 216 114 85 c 0
 114 52 124 12 160 12 c 0
 265 12 344 256 344 340 c 0
 344 400 318 432 277 432 c 0
EndSplineSet
Substitution2: "'smcp' Lowercase to Small Capitals lookup 1 subtable" acircumflex.sc
EndChar

StartChar: atilde
Encoding: 419 227 163
Width: 536
GlyphClass: 2
Flags: MW
HStem: -12 24<142 189> -12 34<373 396> 424 20G<395 461 461 461> 432 24<235.5 296 217 297.5> 556 54<407 437> 596 54<267 297>
VStem: 42 72<84.5 150.5 68.5 210.5> 214 22<556 580> 304 58<40.5 100> 468 22<626 650>
LayerCount: 2
Fore
SplineSet
214 556 m 1x0bc0
 214 604 240 650 294 650 c 0x07c0
 356 650 382 610 432 610 c 0x0bc0
 456 610 464 626 468 650 c 1
 490 650 l 1x07c0
 490 602 464 556 410 556 c 0x0bc0
 348 556 322 596 272 596 c 0x07c0
 248 596 240 580 236 556 c 1
 214 556 l 1x0bc0
42 125 m 0
 42 296 157 456 277 456 c 0x93c0
 315 456 354 432 369 368 c 1
 373 366 l 1
 395 444 l 1
 461 444 l 1
 376 129 l 2
 372 113 362 73 362 49 c 0
 362 32 366 22 380 22 c 0
 418 22 459 92 489 182 c 1
 509 176 l 1
 481 94 430 -12 362 -12 c 0x63c0
 310 -12 304 50 304 90 c 0
 304 110 305 117 305 117 c 1
 302 119 l 1
 282 76 224 -12 154 -12 c 0x83c0
 82 -12 42 44 42 125 c 0
277 432 m 0
 194 432 114 216 114 85 c 0
 114 52 124 12 160 12 c 0
 265 12 344 256 344 340 c 0
 344 400 318 432 277 432 c 0
EndSplineSet
MultipleSubs2: "Multiple Substitution lookup 32 subtable" a tildecomb
EndChar

StartChar: adieresis
Encoding: 420 228 164
Width: 536
GlyphClass: 2
Flags: MW
HStem: -12 24<142 189> -12 34<373 396> 424 20G<395 461 461 461> 432 24<235.5 296 217 297.5> 548 96<241 267 429 455>
VStem: 42 72<84.5 150.5 68.5 210.5> 206 96<583 609> 304 58<40.5 100> 394 96<583 609>
LayerCount: 2
Fore
SplineSet
394 596 m 0x0f80
 394 622 416 644 442 644 c 0
 468 644 490 622 490 596 c 0
 490 570 468 548 442 548 c 0
 416 548 394 570 394 596 c 0x0f80
206 596 m 0
 206 622 228 644 254 644 c 0
 280 644 302 622 302 596 c 0
 302 570 280 548 254 548 c 0
 228 548 206 570 206 596 c 0
42 125 m 0
 42 296 157 456 277 456 c 0x9f80
 315 456 354 432 369 368 c 1
 373 366 l 1
 395 444 l 1
 461 444 l 1
 376 129 l 2
 372 113 362 73 362 49 c 0
 362 32 366 22 380 22 c 0
 418 22 459 92 489 182 c 1
 509 176 l 1
 481 94 430 -12 362 -12 c 0x6f80
 310 -12 304 50 304 90 c 0
 304 110 305 117 305 117 c 1
 302 119 l 1
 282 76 224 -12 154 -12 c 0x8f80
 82 -12 42 44 42 125 c 0
277 432 m 0
 194 432 114 216 114 85 c 0
 114 52 124 12 160 12 c 0
 265 12 344 256 344 340 c 0
 344 400 318 432 277 432 c 0
EndSplineSet
MultipleSubs2: "Multiple Substitution lookup 32 subtable" a uni0308
Substitution2: "'smcp' Lowercase to Small Capitals lookup 1 subtable" adieresis.sc
EndChar

StartChar: aring
Encoding: 421 229 165
Width: 536
GlyphClass: 2
Flags: MW
HStem: -12 24<142 189> -12 34<373 396> 424 20G<395 461 461 461> 432 24<235.5 296 217 297.5> 500 24<326 368 326 374> 670 24<326 368>
VStem: 42 72<84.5 150.5 68.5 210.5> 250 24<577 619 577 625> 304 58<40.5 100> 420 24<577 619>
LayerCount: 2
Fore
SplineSet
250 598 m 0x0fc0
 250 652 293 694 347 694 c 0
 401 694 444 652 444 598 c 0
 444 544 401 500 347 500 c 0
 293 500 250 544 250 598 c 0x0fc0
274 598 m 0
 274 556 305 524 347 524 c 0
 389 524 420 556 420 598 c 0
 420 640 389 670 347 670 c 0
 305 670 274 640 274 598 c 0
42 125 m 0
 42 296 157 456 277 456 c 0x9fc0
 315 456 354 432 369 368 c 1
 373 366 l 1
 395 444 l 1
 461 444 l 1
 376 129 l 2
 372 113 362 73 362 49 c 0
 362 32 366 22 380 22 c 0
 418 22 459 92 489 182 c 1
 509 176 l 1
 481 94 430 -12 362 -12 c 0x6fc0
 310 -12 304 50 304 90 c 0
 304 110 305 117 305 117 c 1
 302 119 l 1
 282 76 224 -12 154 -12 c 0x8fc0
 82 -12 42 44 42 125 c 0
277 432 m 0
 194 432 114 216 114 85 c 0
 114 52 124 12 160 12 c 0
 265 12 344 256 344 340 c 0
 344 400 318 432 277 432 c 0
EndSplineSet
MultipleSubs2: "Multiple Substitution lookup 32 subtable" a uni030A
EndChar

StartChar: ae
Encoding: 422 230 166
Width: 684
GlyphClass: 2
LigCaretCntFixed: 1
Flags: MW
HStem: -12 24<142 189 441 488> 424 20G<395 461 461 461> 432 24<235.5 296 217 297.5 552.5 575>
VStem: 42 72<84.5 150.5 68.5 210.5> 608 48<353 399.5 353 400>
AnchorPoint: "Anchor-2" 296 0 basechar 0
AnchorPoint: "Anchor-1" 444 528 basechar 0
AnchorPoint: "Anchor-0" 438 508 basechar 0
LayerCount: 2
Fore
SplineSet
277 432 m 0xb8
 194 432 114 216 114 85 c 0
 114 52 124 12 160 12 c 0
 265 12 344 256 344 340 c 0
 344 400 318 432 277 432 c 0xb8
408 240 m 1
 437 242 495 246 537 265 c 0
 577 283 608 325 608 379 c 0
 608 421 586 432 564 432 c 0
 468 432 409 242 408 240 c 1
42 125 m 0
 42 296 157 456 277 456 c 0xb8
 315 456 354 432 369 368 c 1
 373 366 l 1
 395 444 l 1
 461 444 l 1xd8
 439 366 l 1
 446 368 l 1
 488 428 530 456 575 456 c 0
 623 456 656 424 656 375 c 0
 656 331 630 232 402 215 c 1
 393 189 379 145 379 101 c 0
 379 22 425 12 457 12 c 0
 546 12 605 133 613 155 c 1
 634 148 l 1
 604 62 524 -12 452 -12 c 0
 327 -12 310 78 305 117 c 1
 302 119 l 1
 282 76 224 -12 154 -12 c 0
 82 -12 42 44 42 125 c 0
EndSplineSet
Ligature2: "'rlig' Required Ligatures lookup 23 subtable" a afii301 e
Substitution2: "'smcp' Lowercase to Small Capitals lookup 1 subtable" ae.sc
LCarets2: 1 352
EndChar

StartChar: ccedilla
Encoding: 423 231 167
Width: 424
GlyphClass: 2
Flags: MW
HStem: -212 22<101 137 101 145.5> -154 57<84.5 92.5 70 93> -12 24<184 186 184 184> 432 24<259 305>
VStem: 41 37<-170 -162 -171.5 -137> 52 72<117.5 152.5 66 196.5> 148 26<-52 -41.5> 172 50<-148 -116.5> 333 53<336 406>
LayerCount: 2
Fore
SplineSet
172 -136 m 0xf980
 172 -97 148 -76 148 -47 c 0
 148 -36 152 -22 159 -9 c 1
 92 6 52 77 52 158 c 0
 52 235 80 318 140 381 c 0
 183 426 228 456 290 456 c 0
 333 456 386 432 386 356 c 0
 386 316 360 286 329 286 c 0
 302 286 290 307 290 324 c 0
 290 348 307 365 322 376 c 0
 332 384 333 394 333 402 c 0
 333 410 324 432 286 432 c 0
 185 432 124 207 124 98 c 0
 124 34 159 12 191 12 c 0
 289 12 339 133 347 155 c 1
 368 148 l 1
 338 62 269 -12 186 -12 c 2
 184 -12 l 1
 178 -21 l 2
 175 -26 174 -31 174 -36 c 0xf680
 174 -68 222 -81 222 -126 c 0
 222 -174 176 -212 115 -212 c 0
 81 -212 41 -192 41 -148 c 0
 41 -126 57 -97 83 -97 c 0
 102 -97 111 -110 111 -128 c 0
 111 -142 99 -154 87 -154 c 0
 82 -154 78 -159 78 -165 c 0
 78 -178 85 -190 117 -190 c 0
 157 -190 172 -160 172 -136 c 0xf980
EndSplineSet
Ligature2: "'ccmp' Glyph Composition/Decomposition lookup 4 subtable" c uni0327
Substitution2: "'smcp' Lowercase to Small Capitals lookup 1 subtable" ccedilla.sc
EndChar

StartChar: egrave
Encoding: 424 232 168
Width: 410
GlyphClass: 2
Flags: MW
HStem: -12 24<175 227.5> 432 24<261.5 302>
VStem: 52 72<112.5 119 66 240> 220 76<637 637 637 645> 333 48<344 398.5>
LayerCount: 2
Fore
SplineSet
220 640 m 0
 220 650 226 676 256 676 c 0
 277 676 287 664 296 637 c 2
 336 518 l 1
 319 508 l 1
 234 605 l 2
 225 615 220 629 220 640 c 0
52 158 m 0
 52 322 177 456 290 456 c 0
 338 456 381 436 381 372 c 0
 381 316 340 275 280 247 c 0
 229 223 174 218 138 215 c 1
 132 191 124 140 124 98 c 0
 124 34 159 12 191 12 c 0
 289 12 339 133 347 155 c 1
 368 148 l 1
 338 62 269 -12 186 -12 c 0
 103 -12 52 67 52 158 c 0
144 240 m 1
 190 243 333 253 333 378 c 0
 333 419 313 432 291 432 c 0
 232 432 182 364 164 313 c 0
 159 298 146 249 144 240 c 1
EndSplineSet
Substitution2: "'smcp' Lowercase to Small Capitals lookup 1 subtable" egrave.sc
EndChar

StartChar: eacute
Encoding: 425 233 169
Width: 410
GlyphClass: 2
Flags: MW
HStem: -12 24<175 227.5> 432 24<261.5 302>
VStem: 52 72<112.5 119 66 240> 333 48<344 398.5>
LayerCount: 2
Fore
SplineSet
298 520 m 1
 404 643 l 2
 422 664 436 670 452 670 c 0
 474 670 480 654 480 641 c 0
 480 616 459 602 448 595 c 2
 310 508 l 1
 298 520 l 1
52 158 m 0
 52 322 177 456 290 456 c 0
 338 456 381 436 381 372 c 0
 381 316 340 275 280 247 c 0
 229 223 174 218 138 215 c 1
 132 191 124 140 124 98 c 0
 124 34 159 12 191 12 c 0
 289 12 339 133 347 155 c 1
 368 148 l 1
 338 62 269 -12 186 -12 c 0
 103 -12 52 67 52 158 c 0
144 240 m 1
 190 243 333 253 333 378 c 0
 333 419 313 432 291 432 c 0
 232 432 182 364 164 313 c 0
 159 298 146 249 144 240 c 1
EndSplineSet
Substitution2: "'smcp' Lowercase to Small Capitals lookup 1 subtable" eacute.sc
EndChar

StartChar: ecircumflex
Encoding: 426 234 170
Width: 410
GlyphClass: 2
Flags: MW
HStem: -12 24<175 227.5> 432 24<261.5 302>
VStem: 52 72<112.5 119 66 240> 333 48<344 398.5>
LayerCount: 2
Fore
SplineSet
184 521 m 1
 261 562 308 626 336 672 c 1
 376 672 l 1
 380 626 393 562 446 521 c 1
 434 508 l 1
 397 530 362 562 337 600 c 1
 290 562 238 530 190 508 c 1
 184 521 l 1
52 158 m 0
 52 322 177 456 290 456 c 0
 338 456 381 436 381 372 c 0
 381 316 340 275 280 247 c 0
 229 223 174 218 138 215 c 1
 132 191 124 140 124 98 c 0
 124 34 159 12 191 12 c 0
 289 12 339 133 347 155 c 1
 368 148 l 1
 338 62 269 -12 186 -12 c 0
 103 -12 52 67 52 158 c 0
144 240 m 1
 190 243 333 253 333 378 c 0
 333 419 313 432 291 432 c 0
 232 432 182 364 164 313 c 0
 159 298 146 249 144 240 c 1
EndSplineSet
Substitution2: "'smcp' Lowercase to Small Capitals lookup 1 subtable" ecircumflex.sc
EndChar

StartChar: edieresis
Encoding: 427 235 171
Width: 410
GlyphClass: 2
Flags: MW
HStem: -12 24<175 227.5> 432 24<261.5 302> 548 96<231 257 419 445>
VStem: 52 72<112.5 119 66 240> 196 96<583 609> 333 48<344 398.5> 384 96<583 609>
LayerCount: 2
Fore
SplineSet
384 596 m 0
 384 622 406 644 432 644 c 0
 458 644 480 622 480 596 c 0
 480 570 458 548 432 548 c 0
 406 548 384 570 384 596 c 0
196 596 m 0
 196 622 218 644 244 644 c 0
 270 644 292 622 292 596 c 0
 292 570 270 548 244 548 c 0
 218 548 196 570 196 596 c 0
52 158 m 0
 52 322 177 456 290 456 c 0
 338 456 381 436 381 372 c 0
 381 316 340 275 280 247 c 0
 229 223 174 218 138 215 c 1
 132 191 124 140 124 98 c 0
 124 34 159 12 191 12 c 0
 289 12 339 133 347 155 c 1
 368 148 l 1
 338 62 269 -12 186 -12 c 0
 103 -12 52 67 52 158 c 0
144 240 m 1
 190 243 333 253 333 378 c 0
 333 419 313 432 291 432 c 0
 232 432 182 364 164 313 c 0
 159 298 146 249 144 240 c 1
EndSplineSet
MultipleSubs2: "Multiple Substitution lookup 32 subtable" e uni0308
Substitution2: "'smcp' Lowercase to Small Capitals lookup 1 subtable" edieresis.sc
EndChar

StartChar: igrave
Encoding: 428 236 172
Width: 334
GlyphClass: 2
Flags: MW
HStem: -12 30<164 193.5> 426 30<153.5 183>
VStem: 97 52<50 59 41.5 98.5> 132 76<637 637 637 645> 197 52<385 392 345.5 402.5>
LayerCount: 2
Fore
SplineSet
132 640 m 0xd0
 132 650 138 676 168 676 c 0
 189 676 199 664 208 637 c 2
 248 518 l 1
 231 508 l 1
 146 605 l 2
 137 615 132 629 132 640 c 0xd0
36 268 m 1
 68 362 121 456 186 456 c 0
 219 456 249 424 249 360 c 0
 249 331 239 281 229 258 c 2
 165 109 l 2
 160 98 149 68 149 50 c 0
 149 33 156 18 172 18 c 0
 224 18 271 130 290 182 c 1
 310 176 l 1
 278 82 226 -12 161 -12 c 0
 128 -12 97 16 97 84 c 0
 97 113 106 160 117 186 c 2
 181 335 l 2
 186 346 197 376 197 394 c 0xe8
 197 411 191 426 175 426 c 0
 123 426 75 314 56 262 c 1
 36 268 l 1
EndSplineSet
Substitution2: "'smcp' Lowercase to Small Capitals lookup 1 subtable" igrave.sc
EndChar

StartChar: iacute
Encoding: 429 237 173
Width: 334
GlyphClass: 2
Flags: MW
HStem: -12 30<164 193.5> 426 30<153.5 183>
VStem: 97 52<50 59 41.5 98.5> 197 52<385 392 345.5 402.5>
LayerCount: 2
Fore
SplineSet
210 520 m 1
 316 643 l 2
 334 664 348 670 364 670 c 0
 386 670 392 654 392 641 c 0
 392 616 371 602 360 595 c 2
 222 508 l 1
 210 520 l 1
36 268 m 1
 68 362 121 456 186 456 c 0
 219 456 249 424 249 360 c 0
 249 331 239 281 229 258 c 2
 165 109 l 2
 160 98 149 68 149 50 c 0
 149 33 156 18 172 18 c 0
 224 18 271 130 290 182 c 1
 310 176 l 1
 278 82 226 -12 161 -12 c 0
 128 -12 97 16 97 84 c 0
 97 113 106 160 117 186 c 2
 181 335 l 2
 186 346 197 376 197 394 c 0
 197 411 191 426 175 426 c 0
 123 426 75 314 56 262 c 1
 36 268 l 1
EndSplineSet
Substitution2: "'smcp' Lowercase to Small Capitals lookup 1 subtable" iacute.sc
EndChar

StartChar: icircumflex
Encoding: 430 238 174
Width: 334
GlyphClass: 2
Flags: MW
HStem: -12 30<164 193.5> 426 30<153.5 183>
VStem: 97 52<50 59 41.5 98.5> 197 52<385 392 345.5 402.5>
LayerCount: 2
Fore
SplineSet
96 521 m 1
 173 562 220 626 248 672 c 1
 288 672 l 1
 292 626 305 562 358 521 c 1
 346 508 l 1
 309 530 274 562 249 600 c 1
 202 562 150 530 102 508 c 1
 96 521 l 1
36 268 m 1
 68 362 121 456 186 456 c 0
 219 456 249 424 249 360 c 0
 249 331 239 281 229 258 c 2
 165 109 l 2
 160 98 149 68 149 50 c 0
 149 33 156 18 172 18 c 0
 224 18 271 130 290 182 c 1
 310 176 l 1
 278 82 226 -12 161 -12 c 0
 128 -12 97 16 97 84 c 0
 97 113 106 160 117 186 c 2
 181 335 l 2
 186 346 197 376 197 394 c 0
 197 411 191 426 175 426 c 0
 123 426 75 314 56 262 c 1
 36 268 l 1
EndSplineSet
Substitution2: "'smcp' Lowercase to Small Capitals lookup 1 subtable" icircumflex.sc
EndChar

StartChar: idieresis
Encoding: 431 239 175
Width: 334
GlyphClass: 2
Flags: MW
HStem: -12 30<164 193.5> 426 30<153.5 183> 548 96<155 181 319 345>
VStem: 97 52<50 59 41.5 98.5> 120 96<583 609> 197 52<385 392 345.5 402.5> 284 96<583 609>
LayerCount: 2
Fore
SplineSet
284 596 m 0xe2
 284 622 306 644 332 644 c 0
 358 644 380 622 380 596 c 0
 380 570 358 548 332 548 c 0
 306 548 284 570 284 596 c 0xe2
120 596 m 0xea
 120 622 142 644 168 644 c 0
 194 644 216 622 216 596 c 0
 216 570 194 548 168 548 c 0
 142 548 120 570 120 596 c 0xea
36 268 m 1
 68 362 121 456 186 456 c 0
 219 456 249 424 249 360 c 0
 249 331 239 281 229 258 c 2
 165 109 l 2
 160 98 149 68 149 50 c 0
 149 33 156 18 172 18 c 0
 224 18 271 130 290 182 c 1
 310 176 l 1
 278 82 226 -12 161 -12 c 0
 128 -12 97 16 97 84 c 0
 97 113 106 160 117 186 c 2
 181 335 l 2
 186 346 197 376 197 394 c 0xf6
 197 411 191 426 175 426 c 0
 123 426 75 314 56 262 c 1
 36 268 l 1
EndSplineSet
MultipleSubs2: "Multiple Substitution lookup 32 subtable" dotlessi uni0308
Substitution2: "'smcp' Lowercase to Small Capitals lookup 1 subtable" idieresis.sc
EndChar

StartChar: eth
Encoding: 432 240 176
Width: 494
GlyphClass: 2
Flags: MW
HStem: -12 24<168 220 168 266> 432 24<234.5 310 229 312> 682 20G<265 354 354 354>
VStem: 52 72<104 149 78 234> 354 98<311 366> 380 72<311 450>
LayerCount: 2
Fore
SplineSet
452 397 m 0xf8
 452 225 346 -12 186 -12 c 0
 122 -12 52 44 52 164 c 0
 52 304 164 456 294 456 c 0
 326 456 354 441 371 424 c 1
 380 428 l 1xf4
 380 472 365 523 350 559 c 1
 226 513 l 1
 216 540 l 1
 337 584 l 1
 317 628 290 668 265 702 c 1
 354 702 l 1
 375 671 392 640 405 609 c 1
 526 653 l 1
 536 626 l 1
 416 582 l 1
 423 564 l 2
 440 518 452 442 452 397 c 0xf8
290 432 m 0
 179 432 124 194 124 104 c 0
 124 52 146 12 190 12 c 0
 250 12 283 74 307 130 c 0
 334 193 354 276 354 340 c 0xf8
 354 392 334 432 290 432 c 0
EndSplineSet
EndChar

StartChar: ntilde
Encoding: 433 241 177
Width: 572
GlyphClass: 2
Flags: MW
HStem: -12 30<402 431.5> 0 21G<84 150 84 84> 422 34<145 171.5> 556 54<435 465> 596 54<295 325>
VStem: 183 58<340 403.5> 242 22<556 580> 335 52<50 59 41.5 98.5> 435 52<385 392 345.5 402.5> 496 22<626 650>
LayerCount: 2
Fore
SplineSet
242 556 m 1x37c0
 242 604 268 650 322 650 c 0x2fc0
 384 650 410 610 460 610 c 0x37c0
 484 610 492 626 496 650 c 1
 518 650 l 1x2fc0
 518 602 492 556 438 556 c 0x37c0
 376 556 350 596 300 596 c 0x2fc0
 276 596 268 580 264 556 c 1
 242 556 l 1x37c0
36 268 m 1
 57 328 107 456 183 456 c 0
 234 456 241 394 241 354 c 0
 241 326 224 255 215 233 c 1
 218 230 l 1
 253 293 327 456 422 456 c 0
 461 456 487 424 487 360 c 0
 487 331 477 281 467 258 c 2
 403 109 l 2
 398 98 387 68 387 50 c 0
 387 33 394 18 410 18 c 0
 462 18 509 130 528 182 c 1
 548 176 l 1
 516 82 464 -12 399 -12 c 0xa7c0
 366 -12 335 16 335 84 c 0
 335 113 344 160 355 186 c 2
 419 335 l 2
 424 346 435 376 435 394 c 0
 435 411 429 426 413 426 c 0
 374 426 332 391 286 313 c 0
 230 219 187 123 170 66 c 2
 150 0 l 1
 84 0 l 1x67c0
 168 310 l 2
 172 326 183 370 183 395 c 0
 183 412 179 422 164 422 c 0
 123 422 82 339 56 262 c 1
 36 268 l 1
EndSplineSet
Substitution2: "'smcp' Lowercase to Small Capitals lookup 1 subtable" ntilde.sc
EndChar

StartChar: ograve
Encoding: 434 242 178
Width: 462
GlyphClass: 2
Flags: MW
HStem: -12 24<168 220 168 251> 432 24<234.5 312>
VStem: 52 72<104 149 78 234> 222 76<637 637 637 645> 354 72<308 340 210 366>
LayerCount: 2
Fore
SplineSet
222 640 m 0
 222 650 228 676 258 676 c 0
 279 676 289 664 298 637 c 2
 338 518 l 1
 321 508 l 1
 236 605 l 2
 227 615 222 629 222 640 c 0
290 432 m 0
 179 432 124 194 124 104 c 0
 124 52 146 12 190 12 c 0
 250 12 283 74 307 130 c 0
 334 193 354 276 354 340 c 0
 354 392 334 432 290 432 c 0
52 164 m 0
 52 304 164 456 294 456 c 0
 358 456 426 400 426 280 c 0
 426 140 316 -12 186 -12 c 0
 122 -12 52 44 52 164 c 0
EndSplineSet
Substitution2: "'smcp' Lowercase to Small Capitals lookup 1 subtable" ograve.sc
EndChar

StartChar: oacute
Encoding: 435 243 179
Width: 462
GlyphClass: 2
Flags: MW
HStem: -12 24<168 220 168 251> 432 24<234.5 312>
VStem: 52 72<104 149 78 234> 354 72<308 340 210 366>
LayerCount: 2
Fore
SplineSet
300 520 m 1
 406 643 l 2
 424 664 438 670 454 670 c 0
 476 670 482 654 482 641 c 0
 482 616 461 602 450 595 c 2
 312 508 l 1
 300 520 l 1
290 432 m 0
 179 432 124 194 124 104 c 0
 124 52 146 12 190 12 c 0
 250 12 283 74 307 130 c 0
 334 193 354 276 354 340 c 0
 354 392 334 432 290 432 c 0
52 164 m 0
 52 304 164 456 294 456 c 0
 358 456 426 400 426 280 c 0
 426 140 316 -12 186 -12 c 0
 122 -12 52 44 52 164 c 0
EndSplineSet
Substitution2: "'smcp' Lowercase to Small Capitals lookup 1 subtable" oacute.sc
EndChar

StartChar: ocircumflex
Encoding: 436 244 180
Width: 462
GlyphClass: 2
Flags: MW
HStem: -12 24<168 220 168 251> 432 24<234.5 312>
VStem: 52 72<104 149 78 234> 354 72<308 340 210 366>
LayerCount: 2
Fore
SplineSet
186 521 m 1
 263 562 310 626 338 672 c 1
 378 672 l 1
 382 626 395 562 448 521 c 1
 436 508 l 1
 399 530 364 562 339 600 c 1
 292 562 240 530 192 508 c 1
 186 521 l 1
290 432 m 0
 179 432 124 194 124 104 c 0
 124 52 146 12 190 12 c 0
 250 12 283 74 307 130 c 0
 334 193 354 276 354 340 c 0
 354 392 334 432 290 432 c 0
52 164 m 0
 52 304 164 456 294 456 c 0
 358 456 426 400 426 280 c 0
 426 140 316 -12 186 -12 c 0
 122 -12 52 44 52 164 c 0
EndSplineSet
Substitution2: "'smcp' Lowercase to Small Capitals lookup 1 subtable" ocircumflex.sc
EndChar

StartChar: otilde
Encoding: 437 245 181
Width: 462
GlyphClass: 2
Flags: MW
HStem: -12 24<168 220 168 251> 432 24<234.5 312> 556 54<399 429> 596 54<259 289>
VStem: 52 72<104 149 78 234> 206 22<556 580> 354 72<308 340 210 366> 460 22<626 650>
LayerCount: 2
Fore
SplineSet
206 556 m 1xef
 206 604 232 650 286 650 c 0xdf
 348 650 374 610 424 610 c 0xef
 448 610 456 626 460 650 c 1
 482 650 l 1xdf
 482 602 456 556 402 556 c 0xef
 340 556 314 596 264 596 c 0xdf
 240 596 232 580 228 556 c 1
 206 556 l 1xef
290 432 m 0
 179 432 124 194 124 104 c 0
 124 52 146 12 190 12 c 0
 250 12 283 74 307 130 c 0
 334 193 354 276 354 340 c 0
 354 392 334 432 290 432 c 0
52 164 m 0
 52 304 164 456 294 456 c 0
 358 456 426 400 426 280 c 0
 426 140 316 -12 186 -12 c 0
 122 -12 52 44 52 164 c 0
EndSplineSet
MultipleSubs2: "Multiple Substitution lookup 32 subtable" o tildecomb
EndChar

StartChar: odieresis
Encoding: 438 246 182
Width: 462
GlyphClass: 2
Flags: MW
HStem: -12 24<168 220 168 251> 432 24<234.5 312> 548 96<233 259 421 447>
VStem: 52 72<104 149 78 234> 198 96<583 609> 354 72<308 340 210 366> 386 96<583 609>
LayerCount: 2
Fore
SplineSet
386 596 m 0xfa
 386 622 408 644 434 644 c 0
 460 644 482 622 482 596 c 0
 482 570 460 548 434 548 c 0
 408 548 386 570 386 596 c 0xfa
198 596 m 0
 198 622 220 644 246 644 c 0
 272 644 294 622 294 596 c 0
 294 570 272 548 246 548 c 0
 220 548 198 570 198 596 c 0
290 432 m 0
 179 432 124 194 124 104 c 0
 124 52 146 12 190 12 c 0
 250 12 283 74 307 130 c 0
 334 193 354 276 354 340 c 0xfc
 354 392 334 432 290 432 c 0
52 164 m 0
 52 304 164 456 294 456 c 0
 358 456 426 400 426 280 c 0
 426 140 316 -12 186 -12 c 0
 122 -12 52 44 52 164 c 0
EndSplineSet
MultipleSubs2: "Multiple Substitution lookup 32 subtable" o uni0308
Substitution2: "'smcp' Lowercase to Small Capitals lookup 1 subtable" odieresis.sc
EndChar

StartChar: divide
Encoding: 439 247 183
Width: 940
GlyphClass: 2
Flags: MW
HStem: -56 124<460 496> 244 40<56 900 56 900> 456 124<460 496>
VStem: 416 124<-12 24 500 536>
LayerCount: 2
Fore
SplineSet
416 518 m 0
 416 554 442 580 478 580 c 0
 514 580 540 554 540 518 c 0
 540 482 514 456 478 456 c 0
 442 456 416 482 416 518 c 0
416 6 m 0
 416 42 442 68 478 68 c 0
 514 68 540 42 540 6 c 0
 540 -30 514 -56 478 -56 c 0
 442 -56 416 -30 416 6 c 0
56 244 m 1
 56 284 l 1
 900 284 l 1
 900 244 l 1
 56 244 l 1
EndSplineSet
EndChar

StartChar: oslash
Encoding: 440 248 184
Width: 462
GlyphClass: 2
Flags: MW
HStem: -12 24<171.5 220 171.5 251> 432 24<235 309>
VStem: 52 72<113 234> 354 72<210 325>
AnchorPoint: "Anchor-2" 191 0 basechar 0
AnchorPoint: "Anchor-1" 320 528 basechar 0
AnchorPoint: "Anchor-0" 314 508 basechar 0
LayerCount: 2
Fore
SplineSet
24 4 m 1
 75 60 l 1
 61 87 52 121 52 164 c 0
 52 304 164 456 294 456 c 0
 329 456 366 439 392 403 c 1
 440 456 l 1
 458 438 l 1
 405 381 l 1
 418 354 426 321 426 280 c 0
 426 140 316 -12 186 -12 c 0
 151 -12 115 4 89 39 c 1
 42 -12 l 1
 24 4 l 1
124 113 m 1
 353 361 l 1
 348 403 328 432 290 432 c 0
 180 432 127 201 124 113 c 1
126 79 m 1
 132 40 153 12 190 12 c 0
 250 12 283 74 307 130 c 0
 332 188 351 264 354 325 c 1
 126 79 l 1
EndSplineSet
EndChar

StartChar: ugrave
Encoding: 441 249 185
Width: 572
GlyphClass: 2
Flags: MW
HStem: -12 30<163 190.5 163 209.5> 424 20G<434 500 500 500> 426 30<152.5 182>
VStem: 97 52<52 59 41.5 98.5> 197 52<385 394 345.5 402.5> 256 76<637 637 637 645> 343 58<40.5 104>
LayerCount: 2
Fore
SplineSet
256 640 m 0x9e
 256 650 262 676 292 676 c 0
 313 676 323 664 332 637 c 2
 372 518 l 1
 355 508 l 1
 270 605 l 2
 261 615 256 629 256 640 c 0x9e
36 268 m 1
 68 362 120 456 185 456 c 0xbe
 218 456 249 428 249 360 c 0
 249 331 240 284 229 258 c 2
 165 109 l 2
 160 98 149 68 149 50 c 0
 149 33 155 18 171 18 c 0
 210 18 252 53 298 131 c 0
 354 225 397 321 414 378 c 2
 434 444 l 1
 500 444 l 1xde
 416 134 l 2
 412 118 401 74 401 49 c 0
 401 32 405 22 420 22 c 0
 461 22 502 105 528 182 c 1
 548 176 l 1
 527 116 477 -12 401 -12 c 0
 350 -12 343 50 343 90 c 0
 343 118 360 189 369 211 c 1
 366 214 l 1
 331 151 257 -12 162 -12 c 0
 123 -12 97 20 97 84 c 0
 97 113 107 163 117 186 c 2
 181 335 l 2
 186 346 197 376 197 394 c 0
 197 411 190 426 174 426 c 0xbe
 122 426 75 314 56 262 c 1
 36 268 l 1
EndSplineSet
Substitution2: "'smcp' Lowercase to Small Capitals lookup 1 subtable" ugrave.sc
EndChar

StartChar: uacute
Encoding: 442 250 186
Width: 572
GlyphClass: 2
Flags: MW
HStem: -12 30<163 190.5 163 209.5> 424 20G<434 500 500 500> 426 30<152.5 182>
VStem: 97 52<52 59 41.5 98.5> 197 52<385 394 345.5 402.5> 343 58<40.5 104>
LayerCount: 2
Fore
SplineSet
334 520 m 1x9c
 440 643 l 2
 458 664 472 670 488 670 c 0
 510 670 516 654 516 641 c 0
 516 616 495 602 484 595 c 2
 346 508 l 1
 334 520 l 1x9c
36 268 m 1
 68 362 120 456 185 456 c 0xbc
 218 456 249 428 249 360 c 0
 249 331 240 284 229 258 c 2
 165 109 l 2
 160 98 149 68 149 50 c 0
 149 33 155 18 171 18 c 0
 210 18 252 53 298 131 c 0
 354 225 397 321 414 378 c 2
 434 444 l 1
 500 444 l 1xdc
 416 134 l 2
 412 118 401 74 401 49 c 0
 401 32 405 22 420 22 c 0
 461 22 502 105 528 182 c 1
 548 176 l 1
 527 116 477 -12 401 -12 c 0
 350 -12 343 50 343 90 c 0
 343 118 360 189 369 211 c 1
 366 214 l 1
 331 151 257 -12 162 -12 c 0
 123 -12 97 20 97 84 c 0
 97 113 107 163 117 186 c 2
 181 335 l 2
 186 346 197 376 197 394 c 0
 197 411 190 426 174 426 c 0xbc
 122 426 75 314 56 262 c 1
 36 268 l 1
EndSplineSet
Substitution2: "'smcp' Lowercase to Small Capitals lookup 1 subtable" uacute.sc
EndChar

StartChar: ucircumflex
Encoding: 443 251 187
Width: 572
GlyphClass: 2
Flags: MW
HStem: -12 30<163 190.5 163 209.5> 424 20G<434 500 500 500> 426 30<152.5 182>
VStem: 97 52<52 59 41.5 98.5> 197 52<385 394 345.5 402.5> 343 58<40.5 104>
LayerCount: 2
Fore
SplineSet
220 521 m 1x9c
 297 562 344 626 372 672 c 1
 412 672 l 1
 416 626 429 562 482 521 c 1
 470 508 l 1
 433 530 398 562 373 600 c 1
 326 562 274 530 226 508 c 1
 220 521 l 1x9c
36 268 m 1
 68 362 120 456 185 456 c 0xbc
 218 456 249 428 249 360 c 0
 249 331 240 284 229 258 c 2
 165 109 l 2
 160 98 149 68 149 50 c 0
 149 33 155 18 171 18 c 0
 210 18 252 53 298 131 c 0
 354 225 397 321 414 378 c 2
 434 444 l 1
 500 444 l 1xdc
 416 134 l 2
 412 118 401 74 401 49 c 0
 401 32 405 22 420 22 c 0
 461 22 502 105 528 182 c 1
 548 176 l 1
 527 116 477 -12 401 -12 c 0
 350 -12 343 50 343 90 c 0
 343 118 360 189 369 211 c 1
 366 214 l 1
 331 151 257 -12 162 -12 c 0
 123 -12 97 20 97 84 c 0
 97 113 107 163 117 186 c 2
 181 335 l 2
 186 346 197 376 197 394 c 0
 197 411 190 426 174 426 c 0xbc
 122 426 75 314 56 262 c 1
 36 268 l 1
EndSplineSet
Substitution2: "'smcp' Lowercase to Small Capitals lookup 1 subtable" ucircumflex.sc
EndChar

StartChar: udieresis
Encoding: 444 252 188
Width: 572
GlyphClass: 2
Flags: MW
HStem: -12 30<163 190.5 163 209.5> 424 20G<434 500 500 500> 426 30<152.5 182> 548 96<267 293 455 481>
VStem: 97 52<52 59 41.5 98.5> 197 52<385 394 345.5 402.5> 232 96<583 609> 343 58<40.5 104> 420 96<583 609>
LayerCount: 2
Fore
SplineSet
420 596 m 0x9980
 420 622 442 644 468 644 c 0
 494 644 516 622 516 596 c 0
 516 570 494 548 468 548 c 0
 442 548 420 570 420 596 c 0x9980
232 596 m 0x9b80
 232 622 254 644 280 644 c 0
 306 644 328 622 328 596 c 0
 328 570 306 548 280 548 c 0
 254 548 232 570 232 596 c 0x9b80
36 268 m 1
 68 362 120 456 185 456 c 0xbd80
 218 456 249 428 249 360 c 0
 249 331 240 284 229 258 c 2
 165 109 l 2
 160 98 149 68 149 50 c 0
 149 33 155 18 171 18 c 0
 210 18 252 53 298 131 c 0
 354 225 397 321 414 378 c 2
 434 444 l 1
 500 444 l 1xdd80
 416 134 l 2
 412 118 401 74 401 49 c 0
 401 32 405 22 420 22 c 0
 461 22 502 105 528 182 c 1
 548 176 l 1
 527 116 477 -12 401 -12 c 0
 350 -12 343 50 343 90 c 0
 343 118 360 189 369 211 c 1
 366 214 l 1
 331 151 257 -12 162 -12 c 0
 123 -12 97 20 97 84 c 0
 97 113 107 163 117 186 c 2
 181 335 l 2
 186 346 197 376 197 394 c 0
 197 411 190 426 174 426 c 0xbd80
 122 426 75 314 56 262 c 1
 36 268 l 1
EndSplineSet
MultipleSubs2: "Multiple Substitution lookup 32 subtable" u uni0308
Substitution2: "'smcp' Lowercase to Small Capitals lookup 1 subtable" udieresis.sc
EndChar

StartChar: yacute
Encoding: 445 253 189
Width: 512
GlyphClass: 2
Flags: MW
HStem: -248 24<117 155.5 117 221.5> -12 24<172 205.5> 424 20G<435 501 501 501> 426 30<152.5 182>
VStem: 24 66<-201 -130> 97 52<52 59 37 98.5> 197 52<385 394 345.5 402.5>
LayerCount: 2
Fore
SplineSet
330 520 m 1xce
 436 643 l 2
 454 664 468 670 484 670 c 0
 506 670 512 654 512 641 c 0
 512 616 491 602 480 595 c 2
 342 508 l 1
 330 520 l 1xce
24 -150 m 0
 24 -110 52 -90 78 -90 c 0
 106 -90 118 -112 118 -130 c 0
 118 -148 109 -162 99 -170 c 0
 92 -176 90 -180 90 -192 c 0
 90 -210 101 -224 133 -224 c 0
 178 -224 208 -213 243 -170 c 0
 282 -122 300 -50 309 -16 c 2
 352 145 l 1
 346 147 l 1
 307 68 237 -12 174 -12 c 0
 132 -12 97 20 97 84 c 0
 97 113 107 163 117 186 c 2
 181 335 l 2
 186 346 197 376 197 394 c 0
 197 411 190 426 174 426 c 0
 122 426 75 314 56 262 c 1
 36 268 l 1
 68 362 120 456 185 456 c 0xde
 218 456 249 428 249 360 c 0
 249 331 240 284 229 258 c 2
 165 109 l 2
 160 98 149 68 149 50 c 0
 149 24 160 12 184 12 c 0
 262 12 368 202 402 324 c 2
 435 444 l 1
 501 444 l 1xee
 383 0 l 2
 367 -57 299 -248 144 -248 c 0
 74 -248 24 -212 24 -150 c 0
EndSplineSet
EndChar

StartChar: thorn
Encoding: 446 254 190
Width: 540
GlyphClass: 2
Flags: MW
HStem: -232 28<-67 7 7 15 117 231 -75 7> -12 24<248 308.5 246.5 327> 432 24<355 402> 688 24<166 247 159 343>
VStem: 430 72<293.5 359.5 233.5 375.5>
LayerCount: 2
Fore
SplineSet
384 432 m 0
 279 432 200 188 200 104 c 0
 200 44 226 12 267 12 c 0
 350 12 430 228 430 359 c 0
 430 392 420 432 384 432 c 0
502 319 m 0
 502 148 387 -12 267 -12 c 0
 229 -12 190 12 175 76 c 1
 171 78 l 1
 102 -182 l 2
 101 -186 100 -189 100 -192 c 0
 100 -200 105 -204 117 -204 c 2
 239 -204 l 1
 231 -232 l 1
 -75 -232 l 1
 -67 -204 l 1
 7 -204 l 2
 23 -204 30 -198 34 -182 c 2
 263 666 l 2
 264 670 265 673 265 676 c 0
 265 685 259 688 247 688 c 2
 159 688 l 1
 166 712 l 1
 343 712 l 1
 238 327 l 1
 242 325 l 1
 262 368 320 456 390 456 c 0
 462 456 502 400 502 319 c 0
EndSplineSet
EndChar

StartChar: ydieresis
Encoding: 447 255 191
Width: 512
GlyphClass: 2
Flags: MW
HStem: -248 24<117 155.5 117 221.5> -12 24<172 205.5> 424 20G<435 501 501 501> 426 30<152.5 182> 548 96<263 289 451 477>
VStem: 24 66<-201 -130> 97 52<52 59 37 98.5> 197 52<385 394 345.5 402.5> 228 96<583 609> 416 96<583 609>
LayerCount: 2
Fore
SplineSet
416 596 m 0xce40
 416 622 438 644 464 644 c 0
 490 644 512 622 512 596 c 0
 512 570 490 548 464 548 c 0
 438 548 416 570 416 596 c 0xce40
228 596 m 0xcec0
 228 622 250 644 276 644 c 0
 302 644 324 622 324 596 c 0
 324 570 302 548 276 548 c 0
 250 548 228 570 228 596 c 0xcec0
24 -150 m 0
 24 -110 52 -90 78 -90 c 0
 106 -90 118 -112 118 -130 c 0
 118 -148 109 -162 99 -170 c 0
 92 -176 90 -180 90 -192 c 0
 90 -210 101 -224 133 -224 c 0
 178 -224 208 -213 243 -170 c 0
 282 -122 300 -50 309 -16 c 2
 352 145 l 1
 346 147 l 1
 307 68 237 -12 174 -12 c 0
 132 -12 97 20 97 84 c 0
 97 113 107 163 117 186 c 2
 181 335 l 2
 186 346 197 376 197 394 c 0
 197 411 190 426 174 426 c 0
 122 426 75 314 56 262 c 1
 36 268 l 1
 68 362 120 456 185 456 c 0xdf40
 218 456 249 428 249 360 c 0
 249 331 240 284 229 258 c 2
 165 109 l 2
 160 98 149 68 149 50 c 0
 149 24 160 12 184 12 c 0
 262 12 368 202 402 324 c 2
 435 444 l 1
 501 444 l 1xef40
 383 0 l 2
 367 -57 299 -248 144 -248 c 0
 74 -248 24 -212 24 -150 c 0
EndSplineSet
MultipleSubs2: "Multiple Substitution lookup 32 subtable" y uni0308
EndChar

StartChar: Amacron
Encoding: 448 256 192
Width: 728
GlyphClass: 2
Flags: MW
HStem: 0 32<-44 1 -36 1 1 31 201 248 368 430 430 441.5 608 656> 244 32<285 472 285 472 263 472> 692 20G<536 560 560 560> 822 40<414 738 424 728>
VStem: 472 88<78 244 244 244 276 552 552 552>
LayerCount: 2
Fore
SplineSet
414 822 m 1
 424 862 l 1
 738 862 l 1
 728 822 l 1
 414 822 l 1
285 276 m 1
 472 276 l 1
 472 552 l 1
 285 276 l 1
-44 0 m 1
 -36 32 l 1
 1 32 l 2
 61 32 104 70 125 104 c 2
 536 712 l 1
 560 712 l 1
 560 75 l 2
 563 40 581 32 608 32 c 2
 664 32 l 1
 656 0 l 1
 360 0 l 1
 368 32 l 1
 430 32 l 2
 453 32 472 37 472 78 c 2
 472 244 l 1
 263 244 l 1
 195 144 l 2
 181 124 161 90 161 66 c 0
 161 48 170 32 201 32 c 2
 256 32 l 1
 248 0 l 1
 -44 0 l 1
EndSplineSet
MultipleSubs2: "Multiple Substitution lookup 32 subtable" A macroncmb
Substitution2: "'c2sc' Capitals to Small Capitals lookup 2 subtable" amacron.sc
EndChar

StartChar: amacron
Encoding: 449 257 193
Width: 536
GlyphClass: 2
Flags: MW
HStem: -12 24<142 189> -12 34<373 396> 424 20G<395 461 461 461> 432 24<235.5 296 217 297.5> 546 40<180 504 190 494>
VStem: 42 72<84.5 150.5 68.5 210.5> 304 58<40.5 100>
LayerCount: 2
Fore
SplineSet
180 546 m 1x0e
 190 586 l 1
 504 586 l 1
 494 546 l 1
 180 546 l 1x0e
42 125 m 0
 42 296 157 456 277 456 c 0x9e
 315 456 354 432 369 368 c 1
 373 366 l 1
 395 444 l 1
 461 444 l 1
 376 129 l 2
 372 113 362 73 362 49 c 0
 362 32 366 22 380 22 c 0
 418 22 459 92 489 182 c 1
 509 176 l 1
 481 94 430 -12 362 -12 c 0x6e
 310 -12 304 50 304 90 c 0
 304 110 305 117 305 117 c 1
 302 119 l 1
 282 76 224 -12 154 -12 c 0x8e
 82 -12 42 44 42 125 c 0
277 432 m 0
 194 432 114 216 114 85 c 0
 114 52 124 12 160 12 c 0
 265 12 344 256 344 340 c 0
 344 400 318 432 277 432 c 0
EndSplineSet
MultipleSubs2: "Multiple Substitution lookup 32 subtable" a macroncmb
Substitution2: "'smcp' Lowercase to Small Capitals lookup 1 subtable" amacron.sc
EndChar

StartChar: Abreve
Encoding: 450 258 194
Width: 728
GlyphClass: 2
Flags: MW
HStem: 0 32<-44 1 -36 1 1 31 201 248 368 430 430 441.5 608 656> 244 32<285 472 285 472 263 472> 692 20G<536 560 560 560> 762 46<540 612 540 615>
VStem: 448 33<849.5 908> 472 88<78 244 244 244 276 552 552 552> 727 28<916 916>
LayerCount: 2
Fore
SplineSet
448 877 m 0xfa
 448 891 450 904 453 916 c 1
 481 916 l 1
 481 908 l 2
 481 861 505 808 575 808 c 0
 649 808 704 868 727 916 c 1
 755 916 l 1
 739 856 668 762 562 762 c 0
 477 762 448 822 448 877 c 0xfa
285 276 m 1
 472 276 l 1
 472 552 l 1xf6
 285 276 l 1
-44 0 m 1
 -36 32 l 1
 1 32 l 2
 61 32 104 70 125 104 c 2
 536 712 l 1
 560 712 l 1
 560 75 l 2
 563 40 581 32 608 32 c 2
 664 32 l 1
 656 0 l 1
 360 0 l 1
 368 32 l 1
 430 32 l 2
 453 32 472 37 472 78 c 2
 472 244 l 1
 263 244 l 1
 195 144 l 2
 181 124 161 90 161 66 c 0
 161 48 170 32 201 32 c 2
 256 32 l 1
 248 0 l 1
 -44 0 l 1
EndSplineSet
MultipleSubs2: "Multiple Substitution lookup 32 subtable" A brevecmb
EndChar

StartChar: abreve
Encoding: 451 259 195
Width: 536
GlyphClass: 2
Flags: MW
HStem: -12 24<142 189> -12 34<373 396> 424 20G<395 461 461 461> 432 24<235.5 296 217 297.5> 526 40<313 386>
VStem: 42 72<84.5 150.5 68.5 210.5> 234 25<630.5 640.5> 304 58<40.5 100> 492 22<666 666>
LayerCount: 2
Fore
SplineSet
234 635 m 0x0f80
 234 646 236 657 238 666 c 1
 260 666 l 1
 259 661 259 655 259 650 c 0
 259 611 277 566 349 566 c 0
 431 566 475 624 492 666 c 1
 514 666 l 1
 501 618 434 526 338 526 c 0
 260 526 234 587 234 635 c 0x0f80
42 125 m 0
 42 296 157 456 277 456 c 0x9f80
 315 456 354 432 369 368 c 1
 373 366 l 1
 395 444 l 1
 461 444 l 1
 376 129 l 2
 372 113 362 73 362 49 c 0
 362 32 366 22 380 22 c 0
 418 22 459 92 489 182 c 1
 509 176 l 1
 481 94 430 -12 362 -12 c 0x6f80
 310 -12 304 50 304 90 c 0
 304 110 305 117 305 117 c 1
 302 119 l 1
 282 76 224 -12 154 -12 c 0x8f80
 82 -12 42 44 42 125 c 0
277 432 m 0
 194 432 114 216 114 85 c 0
 114 52 124 12 160 12 c 0
 265 12 344 256 344 340 c 0
 344 400 318 432 277 432 c 0
EndSplineSet
MultipleSubs2: "Multiple Substitution lookup 32 subtable" a brevecmb
EndChar

StartChar: Aogonek
Encoding: 452 260 196
Width: 728
GlyphClass: 2
Flags: MW
HStem: -247 64<438 463.5 438 474.5> 0 32<-36 1 1 31 201 248 -44 1 368 430 430 441.5 608 656> 244 32<285 472 285 472 263 472> 692 20G<536 560 560 560>
VStem: 358 56<-161 -134> 472 88<78 244 244 244 276 552 552 552>
LayerCount: 2
Fore
SplineSet
285 276 m 1
 472 276 l 1
 472 552 l 1
 285 276 l 1
446 -183 m 0
 481 -183 481 -156 512 -156 c 0
 528 -156 537 -168 537 -184 c 0
 537 -210 506 -247 443 -247 c 0
 406 -247 358 -226 358 -169 c 0
 358 -99 431 -40 485 -5 c 1
 484 0 l 1
 360 0 l 1
 368 32 l 1
 430 32 l 2
 453 32 472 37 472 78 c 2
 472 244 l 1
 263 244 l 1
 195 144 l 2
 181 124 161 90 161 66 c 0
 161 48 170 32 201 32 c 2
 256 32 l 1
 248 0 l 1
 -44 0 l 1
 -36 32 l 1
 1 32 l 2
 61 32 104 70 125 104 c 2
 536 712 l 1
 560 712 l 1
 560 75 l 2
 563 40 581 32 608 32 c 2
 664 32 l 1
 656 0 l 1
 536 0 l 1
 470 -38 414 -94 414 -148 c 0
 414 -174 430 -183 446 -183 c 0
EndSplineSet
Ligature2: "'ccmp' Glyph Composition/Decomposition lookup 4 subtable" afii10017 uni0328
Ligature2: "'ccmp' Glyph Composition/Decomposition lookup 4 subtable" A uni0328
EndChar

StartChar: aogonek
Encoding: 453 261 197
Width: 536
GlyphClass: 2
Flags: MW
HStem: -220 57<319 346 319 354> -12 24<142 189> 424 20G<395 461 461 461> 432 24<235.5 296 217 297.5>
VStem: 42 72<84.5 150.5 68.5 210.5> 260 44<-138 -124.5> 304 58<40.5 100>
LayerCount: 2
Fore
SplineSet
277 432 m 0xd8
 194 432 114 216 114 85 c 0
 114 52 124 12 160 12 c 0
 265 12 344 256 344 340 c 0
 344 400 318 432 277 432 c 0xd8
328 -163 m 0
 364 -163 365 -134 391 -134 c 0
 405 -134 412 -143 412 -156 c 0
 412 -179 384 -220 324 -220 c 0
 292 -220 260 -196 260 -154 c 0xec
 260 -95 303 -51 351 -15 c 1
 351 -10 l 1
 309 -2 304 52 304 90 c 0
 304 110 305 117 305 117 c 1
 302 119 l 1
 282 76 224 -12 154 -12 c 0
 82 -12 42 44 42 125 c 0
 42 296 157 456 277 456 c 0xda
 315 456 354 432 369 368 c 1
 373 366 l 1
 395 444 l 1
 461 444 l 1
 376 129 l 2
 372 113 362 73 362 49 c 0xea
 362 32 366 22 380 22 c 0
 418 22 459 92 489 182 c 1
 509 176 l 1
 485 106 448 26 394 -6 c 0
 344 -35 304 -87 304 -130 c 0xec
 304 -146 310 -163 328 -163 c 0
EndSplineSet
Ligature2: "'ccmp' Glyph Composition/Decomposition lookup 4 subtable" afii10065 uni0328
Ligature2: "'ccmp' Glyph Composition/Decomposition lookup 4 subtable" a uni0328
EndChar

StartChar: Cacute
Encoding: 454 262 198
Width: 670
GlyphClass: 2
Flags: MW
HStem: -18 32<291.5 379.5 291.5 388> 698 32<432.5 502 379 538> 702 20G<677 700 700 700>
VStem: 92 96<156 263 113 369> 613 23<416 416> 677 23<722 722>
LayerCount: 2
Fore
SplineSet
476 774 m 1x9c
 582 897 l 2
 600 918 614 924 630 924 c 0
 653 924 658 908 658 895 c 0
 658 869 636 855 626 849 c 2
 488 762 l 1
 476 774 l 1x9c
614 479 m 0
 614 519 606 698 470 698 c 0
 395 698 332 660 266 536 c 0
 225 459 188 330 188 196 c 0
 188 30 262 14 321 14 c 0
 438 14 540 126 581 242 c 1
 612 231 l 1
 570 106 472 -18 304 -18 c 0
 208 -18 92 60 92 252 c 0
 92 486 284 730 474 730 c 0xdc
 530 730 567 702 585 684 c 2
 603 666 l 2
 615 654 621 649 632 649 c 0
 661 649 674 702 677 722 c 1
 700 722 l 1xbc
 636 416 l 1
 613 416 l 1
 614 436 614 456 614 479 c 0
EndSplineSet
EndChar

StartChar: cacute
Encoding: 455 263 199
Width: 424
GlyphClass: 2
Flags: MW
HStem: -12 24<175 227.5> 432 24<259 305>
VStem: 52 72<112.5 152.5 66 196.5> 333 53<336 406>
LayerCount: 2
Fore
SplineSet
300 520 m 1
 406 643 l 2
 424 664 438 670 454 670 c 0
 476 670 482 654 482 641 c 0
 482 616 461 602 450 595 c 2
 312 508 l 1
 300 520 l 1
286 432 m 0
 185 432 124 207 124 98 c 0
 124 34 159 12 191 12 c 0
 289 12 339 133 347 155 c 1
 368 148 l 1
 338 62 269 -12 186 -12 c 0
 103 -12 52 67 52 158 c 0
 52 235 80 318 140 381 c 0
 183 426 228 456 290 456 c 0
 333 456 386 432 386 356 c 0
 386 316 360 286 329 286 c 0
 302 286 290 307 290 324 c 0
 290 348 307 365 322 376 c 0
 332 384 333 394 333 402 c 0
 333 410 324 432 286 432 c 0
EndSplineSet
EndChar

StartChar: Ccircumflex
Encoding: 456 264 200
Width: 670
GlyphClass: 2
Flags: MW
HStem: -18 32<291.5 379.5 291.5 388> 698 32<432.5 502 379 538> 702 20G<677 700 700 700>
VStem: 92 96<156 263 113 369> 613 23<416 416> 677 23<722 722>
LayerCount: 2
Fore
SplineSet
334 778 m 1x9c
 415 818 471 870 510 920 c 1
 550 920 l 1
 563 870 591 818 650 778 c 1
 636 762 l 1
 605 774 545 820 514 858 c 1
 461 820 377 774 340 762 c 1
 334 778 l 1x9c
614 479 m 0
 614 519 606 698 470 698 c 0
 395 698 332 660 266 536 c 0
 225 459 188 330 188 196 c 0
 188 30 262 14 321 14 c 0
 438 14 540 126 581 242 c 1
 612 231 l 1
 570 106 472 -18 304 -18 c 0
 208 -18 92 60 92 252 c 0
 92 486 284 730 474 730 c 0xdc
 530 730 567 702 585 684 c 2
 603 666 l 2
 615 654 621 649 632 649 c 0
 661 649 674 702 677 722 c 1
 700 722 l 1xbc
 636 416 l 1
 613 416 l 1
 614 436 614 456 614 479 c 0
EndSplineSet
EndChar

StartChar: ccircumflex
Encoding: 457 265 201
Width: 424
GlyphClass: 2
Flags: MW
HStem: -12 24<175 227.5> 432 24<259 305>
VStem: 52 72<112.5 152.5 66 196.5> 333 53<336 406>
LayerCount: 2
Fore
SplineSet
186 521 m 1
 263 562 310 626 338 672 c 1
 378 672 l 1
 382 626 395 562 448 521 c 1
 436 508 l 1
 399 530 364 562 339 600 c 1
 292 562 240 530 192 508 c 1
 186 521 l 1
286 432 m 0
 185 432 124 207 124 98 c 0
 124 34 159 12 191 12 c 0
 289 12 339 133 347 155 c 1
 368 148 l 1
 338 62 269 -12 186 -12 c 0
 103 -12 52 67 52 158 c 0
 52 235 80 318 140 381 c 0
 183 426 228 456 290 456 c 0
 333 456 386 432 386 356 c 0
 386 316 360 286 329 286 c 0
 302 286 290 307 290 324 c 0
 290 348 307 365 322 376 c 0
 332 384 333 394 333 402 c 0
 333 410 324 432 286 432 c 0
EndSplineSet
EndChar

StartChar: Cdotaccent
Encoding: 458 266 202
Width: 670
GlyphClass: 2
Flags: MW
HStem: -18 32<291.5 379.5 291.5 388> 698 32<432.5 502 379 538> 702 20G<677 700 700 700> 798 104<501 531>
VStem: 92 96<156 263 113 369> 464 104<835 865> 613 23<416 416> 677 23<722 722>
LayerCount: 2
Fore
SplineSet
464 850 m 0x9f
 464 880 486 902 516 902 c 0
 546 902 568 880 568 850 c 0
 568 820 546 798 516 798 c 0
 486 798 464 820 464 850 c 0x9f
614 479 m 0
 614 519 606 698 470 698 c 0
 395 698 332 660 266 536 c 0
 225 459 188 330 188 196 c 0
 188 30 262 14 321 14 c 0
 438 14 540 126 581 242 c 1
 612 231 l 1
 570 106 472 -18 304 -18 c 0
 208 -18 92 60 92 252 c 0
 92 486 284 730 474 730 c 0xdf
 530 730 567 702 585 684 c 2
 603 666 l 2
 615 654 621 649 632 649 c 0
 661 649 674 702 677 722 c 1
 700 722 l 1xbf
 636 416 l 1
 613 416 l 1
 614 436 614 456 614 479 c 0
EndSplineSet
EndChar

StartChar: cdotaccent
Encoding: 459 267 203
Width: 424
GlyphClass: 2
Flags: MW
HStem: -12 24<175 227.5> 432 24<259 305> 544 104<325 355>
VStem: 52 72<112.5 152.5 66 196.5> 290 96<315.5 394> 333 53<336 406>
LayerCount: 2
Fore
SplineSet
288 596 m 0xf0
 288 626 310 648 340 648 c 0
 370 648 392 626 392 596 c 0
 392 566 370 544 340 544 c 0
 310 544 288 566 288 596 c 0xf0
286 432 m 0
 185 432 124 207 124 98 c 0
 124 34 159 12 191 12 c 0
 289 12 339 133 347 155 c 1
 368 148 l 1
 338 62 269 -12 186 -12 c 0
 103 -12 52 67 52 158 c 0
 52 235 80 318 140 381 c 0
 183 426 228 456 290 456 c 0
 333 456 386 432 386 356 c 0
 386 316 360 286 329 286 c 0
 302 286 290 307 290 324 c 0xf8
 290 348 307 365 322 376 c 0
 332 384 333 394 333 402 c 0xf4
 333 410 324 432 286 432 c 0
EndSplineSet
EndChar

StartChar: Ccaron
Encoding: 460 268 204
Width: 670
GlyphClass: 2
Flags: MW
HStem: -18 32<291.5 379.5 291.5 388> 698 32<432.5 502 379 538> 702 20G<677 700 700 700>
VStem: 92 96<156 263 113 369> 613 23<416 416> 677 23<722 722>
LayerCount: 2
Fore
SplineSet
366 906 m 1x9c
 381 920 l 1
 503 824 l 1
 677 920 l 1
 686 906 l 1
 507 762 l 1
 467 762 l 1
 366 906 l 1x9c
614 479 m 0
 614 519 606 698 470 698 c 0
 395 698 332 660 266 536 c 0
 225 459 188 330 188 196 c 0
 188 30 262 14 321 14 c 0
 438 14 540 126 581 242 c 1
 612 231 l 1
 570 106 472 -18 304 -18 c 0
 208 -18 92 60 92 252 c 0
 92 486 284 730 474 730 c 0xdc
 530 730 567 702 585 684 c 2
 603 666 l 2
 615 654 621 649 632 649 c 0
 661 649 674 702 677 722 c 1
 700 722 l 1xbc
 636 416 l 1
 613 416 l 1
 614 436 614 456 614 479 c 0
EndSplineSet
EndChar

StartChar: ccaron
Encoding: 461 269 205
Width: 424
GlyphClass: 2
Flags: MW
HStem: -12 24<175 227.5> 432 24<259 305>
VStem: 52 72<112.5 152.5 66 196.5> 333 53<336 406>
LayerCount: 2
Fore
SplineSet
222 661 m 1
 238 672 l 1
 330 572 l 1
 476 672 l 1
 486 661 l 1
 333 508 l 1
 293 508 l 1
 222 661 l 1
286 432 m 0
 185 432 124 207 124 98 c 0
 124 34 159 12 191 12 c 0
 289 12 339 133 347 155 c 1
 368 148 l 1
 338 62 269 -12 186 -12 c 0
 103 -12 52 67 52 158 c 0
 52 235 80 318 140 381 c 0
 183 426 228 456 290 456 c 0
 333 456 386 432 386 356 c 0
 386 316 360 286 329 286 c 0
 302 286 290 307 290 324 c 0
 290 348 307 365 322 376 c 0
 332 384 333 394 333 402 c 0
 333 410 324 432 286 432 c 0
EndSplineSet
EndChar

StartChar: Dcaron
Encoding: 462 270 206
Width: 750
GlyphClass: 2
Flags: MW
HStem: 0 32<-2 74 74 83.5 218 334 -10 74> 680 32<183 250 174 504 385 394 394 482>
VStem: 630 96<382 528 349 547>
LayerCount: 2
Fore
SplineSet
336 906 m 1
 351 920 l 1
 473 824 l 1
 647 920 l 1
 656 906 l 1
 477 762 l 1
 437 762 l 1
 336 906 l 1
726 453 m 0
 726 245 566 0 334 0 c 2
 -10 0 l 1
 -2 32 l 1
 74 32 l 2
 93 32 103 41 108 59 c 2
 269 653 l 2
 270 657 271 662 271 665 c 0
 271 676 264 680 250 680 c 2
 174 680 l 1
 183 712 l 1
 504 712 l 2
 647 712 726 603 726 453 c 0
344 32 m 2
 527 32 630 264 630 500 c 0
 630 594 596 680 482 680 c 2
 394 680 l 2
 376 680 365 672 360 653 c 2
 199 59 l 2
 198 55 197 51 197 48 c 0
 197 37 204 32 218 32 c 2
 344 32 l 2
EndSplineSet
EndChar

StartChar: dcaron
Encoding: 463 271 207
Width: 622
GlyphClass: 2
Flags: MW
HStem: -12 24<142 189> -12 34<373 396> 432 24<235.5 297.5> 688 24<357 438 350 534> 710 20G<624 653.5>
VStem: 42 72<84.5 150.5 68.5 187> 304 58<40.5 100> 650 44<616.5 630.5>
LayerCount: 2
Fore
SplineSet
650 611 m 0x2f
 650 650 590 634 590 685 c 0
 590 715 611 730 637 730 c 0
 670 730 694 700 694 663 c 0
 694 570 629 516 558 488 c 1
 550 506 l 1
 601 526 650 561 650 611 c 0x2f
277 432 m 0
 194 432 114 216 114 85 c 0
 114 52 124 12 160 12 c 0xa7
 265 12 344 256 344 340 c 0
 344 400 318 432 277 432 c 0
42 125 m 0
 42 249 141 456 283 456 c 0
 321 456 358 427 369 368 c 1
 373 366 l 1
 454 666 l 2
 454 667 455 670 455 673 c 0
 455 680 452 688 438 688 c 2
 350 688 l 1
 357 712 l 1
 534 712 l 1
 376 129 l 2
 372 113 362 73 362 49 c 0
 362 32 366 22 380 22 c 0
 418 22 460 94 489 182 c 1
 509 176 l 1
 480 94 430 -12 362 -12 c 0x77
 310 -12 304 50 304 90 c 0
 304 110 305 117 305 117 c 1
 302 119 l 1
 282 76 224 -12 154 -12 c 0
 82 -12 42 44 42 125 c 0
EndSplineSet
Ligature2: "'ccmp' Glyph Composition/Decomposition lookup 4 subtable" d uni030C
EndChar

StartChar: Dcroat
Encoding: 464 272 208
Width: 748
GlyphClass: 2
Flags: MW
HStem: 0 32<-2 74 74 83.5 218 334 -10 74> 356 36<84 188 76 198 289 412> 680 32<183 250 174 504 385 394 394 482>
VStem: 630 96<382 528 349 547>
LayerCount: 2
Fore
SplineSet
726 453 m 0
 726 245 566 0 334 0 c 2
 -10 0 l 1
 -2 32 l 1
 74 32 l 2
 93 32 103 41 108 59 c 2
 188 356 l 1
 76 356 l 1
 84 392 l 1
 198 392 l 1
 269 653 l 2
 270 657 271 662 271 665 c 0
 271 676 264 680 250 680 c 2
 174 680 l 1
 183 712 l 1
 504 712 l 2
 647 712 726 603 726 453 c 0
344 32 m 2
 527 32 630 264 630 500 c 0
 630 594 596 680 482 680 c 2
 394 680 l 2
 376 680 365 672 360 653 c 2
 289 392 l 1
 420 392 l 1
 412 356 l 1
 280 356 l 1
 199 59 l 2
 198 55 197 51 197 48 c 0
 197 37 204 32 218 32 c 2
 344 32 l 2
EndSplineSet
EndChar

StartChar: dcroat
Encoding: 465 273 209
Width: 530
GlyphClass: 2
Flags: MW
HStem: -12 24<142 189> -12 34<373 396> 432 24<235.5 297.5> 556 28<248 424 241 432 499 571> 688 24<357 438 350 534>
VStem: 42 72<84.5 150.5 68.5 187> 304 58<40.5 99.5>
LayerCount: 2
Fore
SplineSet
42 125 m 0xbe
 42 249 141 456 283 456 c 0
 321 456 358 427 369 368 c 1
 373 366 l 1
 424 556 l 1
 241 556 l 1
 248 584 l 1
 432 584 l 1
 454 666 l 2
 454 667 455 670 455 673 c 0
 455 680 452 688 438 688 c 2
 350 688 l 1
 357 712 l 1
 534 712 l 1
 499 584 l 1
 578 584 l 1
 571 556 l 1
 492 556 l 1
 376 129 l 2
 372 113 362 73 362 49 c 0
 362 32 366 22 380 22 c 0
 418 22 460 94 489 182 c 1
 509 176 l 1
 480 94 430 -12 362 -12 c 0x7e
 310 -12 304 50 304 90 c 0
 304 109 305 117 305 117 c 1
 302 119 l 1
 282 76 224 -12 154 -12 c 0
 82 -12 42 44 42 125 c 0xbe
277 432 m 0
 194 432 114 216 114 85 c 0
 114 52 124 12 160 12 c 0xbe
 265 12 344 256 344 340 c 0
 344 400 318 432 277 432 c 0
EndSplineSet
EndChar

StartChar: Emacron
Encoding: 466 274 210
Width: 700
GlyphClass: 2
Flags: MW
HStem: 0 32<-10 74 -2 74 74 83.5 218 404 404 418.5> 352 32<287 380 279 395> 680 32<182 250 174 734 385 394 394 558> 822 40<342 666 352 656>
VStem: 430 25<202 202> 516 25<526 526>
LayerCount: 2
Fore
SplineSet
342 822 m 1
 352 862 l 1
 666 862 l 1
 656 822 l 1
 342 822 l 1
-10 0 m 1
 -2 32 l 1
 74 32 l 2
 93 32 103 41 108 59 c 2
 269 653 l 2
 270 657 271 662 271 665 c 0
 271 676 264 680 250 680 c 2
 174 680 l 1
 182 712 l 1
 734 712 l 1
 688 484 l 1
 663 484 l 1
 663 484 666 505 666 532 c 0
 666 650 624 680 558 680 c 2
 394 680 l 2
 376 680 365 672 360 653 c 2
 287 384 l 1
 395 384 l 2
 479 384 501 468 516 526 c 1
 541 526 l 1
 455 202 l 1
 430 202 l 1
 435 224 440 252 440 277 c 0
 440 320 427 352 380 352 c 2
 279 352 l 1
 199 59 l 2
 198 55 197 51 197 48 c 0
 197 37 204 32 218 32 c 2
 404 32 l 2
 433 32 487 45 528 84 c 0
 591 146 634 268 634 268 c 1
 658 268 l 1
 574 0 l 1
 -10 0 l 1
EndSplineSet
MultipleSubs2: "Multiple Substitution lookup 32 subtable" E macroncmb
EndChar

StartChar: emacron
Encoding: 467 275 211
Width: 410
GlyphClass: 2
Flags: MW
HStem: -12 24<175 227.5> 432 24<261.5 302> 546 40<170 494 180 484>
VStem: 52 72<112.5 119 66 240> 333 48<344 398.5>
LayerCount: 2
Fore
SplineSet
170 546 m 1
 180 586 l 1
 494 586 l 1
 484 546 l 1
 170 546 l 1
52 158 m 0
 52 322 177 456 290 456 c 0
 338 456 381 436 381 372 c 0
 381 316 340 275 280 247 c 0
 229 223 174 218 138 215 c 1
 132 191 124 140 124 98 c 0
 124 34 159 12 191 12 c 0
 289 12 339 133 347 155 c 1
 368 148 l 1
 338 62 269 -12 186 -12 c 0
 103 -12 52 67 52 158 c 0
144 240 m 1
 190 243 333 253 333 378 c 0
 333 419 313 432 291 432 c 0
 232 432 182 364 164 313 c 0
 159 298 146 249 144 240 c 1
EndSplineSet
MultipleSubs2: "Multiple Substitution lookup 32 subtable" e macroncmb
EndChar

StartChar: Ebreve
Encoding: 468 276 212
Width: 700
GlyphClass: 2
Flags: MW
HStem: 0 32<-10 74 -2 74 74 83.5 218 404 404 418.5> 352 32<287 380 279 395> 680 32<182 250 174 734 385 394 394 558> 762 46<468 540 468 543>
VStem: 376 33<849.5 908> 430 25<202 202> 516 25<526 526> 655 28<916 916>
LayerCount: 2
Fore
SplineSet
376 877 m 0
 376 891 378 904 381 916 c 1
 409 916 l 1
 409 908 l 2
 409 861 433 808 503 808 c 0
 577 808 632 868 655 916 c 1
 683 916 l 1
 667 856 596 762 490 762 c 0
 405 762 376 822 376 877 c 0
-10 0 m 1
 -2 32 l 1
 74 32 l 2
 93 32 103 41 108 59 c 2
 269 653 l 2
 270 657 271 662 271 665 c 0
 271 676 264 680 250 680 c 2
 174 680 l 1
 182 712 l 1
 734 712 l 1
 688 484 l 1
 663 484 l 1
 663 484 666 505 666 532 c 0
 666 650 624 680 558 680 c 2
 394 680 l 2
 376 680 365 672 360 653 c 2
 287 384 l 1
 395 384 l 2
 479 384 501 468 516 526 c 1
 541 526 l 1
 455 202 l 1
 430 202 l 1
 435 224 440 252 440 277 c 0
 440 320 427 352 380 352 c 2
 279 352 l 1
 199 59 l 2
 198 55 197 51 197 48 c 0
 197 37 204 32 218 32 c 2
 404 32 l 2
 433 32 487 45 528 84 c 0
 591 146 634 268 634 268 c 1
 658 268 l 1
 574 0 l 1
 -10 0 l 1
EndSplineSet
MultipleSubs2: "Multiple Substitution lookup 32 subtable" E brevecmb
EndChar

StartChar: ebreve
Encoding: 469 277 213
Width: 410
GlyphClass: 2
Flags: MW
HStem: -12 24<175 227.5> 432 24<261.5 302> 526 40<303 376>
VStem: 52 72<112.5 119 66 240> 224 25<630.5 640.5> 333 48<344 398.5> 482 22<666 666>
LayerCount: 2
Fore
SplineSet
224 635 m 0
 224 646 226 657 228 666 c 1
 250 666 l 1
 249 661 249 655 249 650 c 0
 249 611 267 566 339 566 c 0
 421 566 465 624 482 666 c 1
 504 666 l 1
 491 618 424 526 328 526 c 0
 250 526 224 587 224 635 c 0
52 158 m 0
 52 322 177 456 290 456 c 0
 338 456 381 436 381 372 c 0
 381 316 340 275 280 247 c 0
 229 223 174 218 138 215 c 1
 132 191 124 140 124 98 c 0
 124 34 159 12 191 12 c 0
 289 12 339 133 347 155 c 1
 368 148 l 1
 338 62 269 -12 186 -12 c 0
 103 -12 52 67 52 158 c 0
144 240 m 1
 190 243 333 253 333 378 c 0
 333 419 313 432 291 432 c 0
 232 432 182 364 164 313 c 0
 159 298 146 249 144 240 c 1
EndSplineSet
MultipleSubs2: "Multiple Substitution lookup 32 subtable" e brevecmb
EndChar

StartChar: Edotaccent
Encoding: 470 278 214
Width: 700
GlyphClass: 2
Flags: MW
HStem: 0 32<-10 74 -2 74 74 83.5 218 404 404 418.5> 352 32<287 380 279 395> 680 32<182 250 174 734 385 394 394 558> 798 104<491 521>
VStem: 430 25<202 202> 454 104<835 865> 516 25<526 526>
LayerCount: 2
Fore
SplineSet
454 850 m 0xf4
 454 880 476 902 506 902 c 0
 536 902 558 880 558 850 c 0
 558 820 536 798 506 798 c 0
 476 798 454 820 454 850 c 0xf4
-10 0 m 1
 -2 32 l 1
 74 32 l 2
 93 32 103 41 108 59 c 2
 269 653 l 2
 270 657 271 662 271 665 c 0
 271 676 264 680 250 680 c 2
 174 680 l 1
 182 712 l 1
 734 712 l 1
 688 484 l 1
 663 484 l 1
 663 484 666 505 666 532 c 0
 666 650 624 680 558 680 c 2xf4
 394 680 l 2
 376 680 365 672 360 653 c 2
 287 384 l 1
 395 384 l 2
 479 384 501 468 516 526 c 1
 541 526 l 1
 455 202 l 1
 430 202 l 1xfa
 435 224 440 252 440 277 c 0
 440 320 427 352 380 352 c 2
 279 352 l 1
 199 59 l 2
 198 55 197 51 197 48 c 0
 197 37 204 32 218 32 c 2
 404 32 l 2
 433 32 487 45 528 84 c 0
 591 146 634 268 634 268 c 1
 658 268 l 1
 574 0 l 1
 -10 0 l 1
EndSplineSet
EndChar

StartChar: edotaccent
Encoding: 471 279 215
Width: 410
GlyphClass: 2
Flags: MW
HStem: -12 24<175 227.5> 432 24<261.5 302> 544 104<323 353>
VStem: 52 72<112.5 119 66 240> 286 104<581 611> 333 48<344 398.5>
LayerCount: 2
Fore
SplineSet
286 596 m 0xf8
 286 626 308 648 338 648 c 0
 368 648 390 626 390 596 c 0
 390 566 368 544 338 544 c 0
 308 544 286 566 286 596 c 0xf8
52 158 m 0
 52 322 177 456 290 456 c 0
 338 456 381 436 381 372 c 0xf4
 381 316 340 275 280 247 c 0
 229 223 174 218 138 215 c 1
 132 191 124 140 124 98 c 0
 124 34 159 12 191 12 c 0
 289 12 339 133 347 155 c 1
 368 148 l 1
 338 62 269 -12 186 -12 c 0
 103 -12 52 67 52 158 c 0
144 240 m 1
 190 243 333 253 333 378 c 0
 333 419 313 432 291 432 c 0
 232 432 182 364 164 313 c 0
 159 298 146 249 144 240 c 1
EndSplineSet
EndChar

StartChar: Eogonek
Encoding: 472 280 216
Width: 700
GlyphClass: 2
Flags: MW
HStem: -247 64<390 415.5 390 426.5> 0 32<-2 74 74 83.5 218 404 404 418.5 -10 74> 352 32<287 380 279 395> 680 32<182 250 174 734 385 394 394 558>
VStem: 310 56<-161 -134> 430 25<202 202> 516 25<526 526>
LayerCount: 2
Fore
SplineSet
398 -183 m 0
 433 -183 433 -156 464 -156 c 0
 480 -156 489 -168 489 -184 c 0
 489 -210 458 -247 395 -247 c 0
 358 -247 310 -226 310 -169 c 0
 310 -99 383 -40 437 -5 c 1
 436 0 l 1
 -10 0 l 1
 -2 32 l 1
 74 32 l 2
 93 32 103 41 108 59 c 2
 269 653 l 2
 270 657 271 662 271 665 c 0
 271 676 264 680 250 680 c 2
 174 680 l 1
 182 712 l 1
 734 712 l 1
 688 484 l 1
 663 484 l 1
 663 484 666 505 666 532 c 0
 666 650 624 680 558 680 c 2
 394 680 l 2
 376 680 365 672 360 653 c 2
 287 384 l 1
 395 384 l 2
 479 384 501 468 516 526 c 1
 541 526 l 1
 455 202 l 1
 430 202 l 1
 435 224 440 252 440 277 c 0
 440 320 427 352 380 352 c 2
 279 352 l 1
 199 59 l 2
 198 55 197 51 197 48 c 0
 197 37 204 32 218 32 c 2
 404 32 l 2
 433 32 487 45 528 84 c 0
 591 146 634 268 634 268 c 1
 658 268 l 1
 574 0 l 1
 488 0 l 1
 422 -38 366 -94 366 -148 c 0
 366 -174 382 -183 398 -183 c 0
EndSplineSet
Ligature2: "'ccmp' Glyph Composition/Decomposition lookup 4 subtable" afii10022 uni0328
Ligature2: "'ccmp' Glyph Composition/Decomposition lookup 4 subtable" E uni0328
EndChar

StartChar: eogonek
Encoding: 473 281 217
Width: 410
GlyphClass: 2
Flags: MW
HStem: -220 57<175 202 175 210> -12 24<175 189.5> 432 24<261.5 302>
VStem: 52 72<112.5 119 66 240> 116 44<-138 -124> 333 48<344 398.5>
LayerCount: 2
Fore
SplineSet
144 240 m 1xe4
 190 243 333 253 333 378 c 0
 333 419 313 432 291 432 c 0
 232 432 182 364 164 313 c 0
 159 298 146 249 144 240 c 1xe4
184 -163 m 0
 220 -163 221 -134 247 -134 c 0
 261 -134 268 -143 268 -156 c 0
 268 -179 240 -220 180 -220 c 0
 148 -220 116 -196 116 -154 c 0xec
 116 -94 163 -47 208 -13 c 1
 207 -10 l 1
 200 -11 193 -12 186 -12 c 0
 103 -12 52 67 52 158 c 0
 52 322 177 456 290 456 c 0
 338 456 381 436 381 372 c 0
 381 316 340 275 280 247 c 0
 229 223 174 218 138 215 c 1
 132 191 124 140 124 98 c 0xf4
 124 34 159 12 191 12 c 0
 289 12 339 133 347 155 c 1
 368 148 l 1
 351 100 322 55 286 26 c 0
 242 -10 160 -62 160 -130 c 0xec
 160 -146 166 -163 184 -163 c 0
EndSplineSet
Ligature2: "'ccmp' Glyph Composition/Decomposition lookup 4 subtable" afii10070 uni0328
Ligature2: "'ccmp' Glyph Composition/Decomposition lookup 4 subtable" e uni0328
EndChar

StartChar: Ecaron
Encoding: 474 282 218
Width: 700
GlyphClass: 2
Flags: MW
HStem: 0 32<-10 74 -2 74 74 83.5 218 404 404 418.5> 352 32<287 380 279 395> 680 32<182 250 174 734 385 394 394 558>
VStem: 430 25<202 202> 516 25<526 526>
LayerCount: 2
Fore
SplineSet
356 906 m 1
 371 920 l 1
 493 824 l 1
 667 920 l 1
 676 906 l 1
 497 762 l 1
 457 762 l 1
 356 906 l 1
-10 0 m 1
 -2 32 l 1
 74 32 l 2
 93 32 103 41 108 59 c 2
 269 653 l 2
 270 657 271 662 271 665 c 0
 271 676 264 680 250 680 c 2
 174 680 l 1
 182 712 l 1
 734 712 l 1
 688 484 l 1
 663 484 l 1
 663 484 666 505 666 532 c 0
 666 650 624 680 558 680 c 2
 394 680 l 2
 376 680 365 672 360 653 c 2
 287 384 l 1
 395 384 l 2
 479 384 501 468 516 526 c 1
 541 526 l 1
 455 202 l 1
 430 202 l 1
 435 224 440 252 440 277 c 0
 440 320 427 352 380 352 c 2
 279 352 l 1
 199 59 l 2
 198 55 197 51 197 48 c 0
 197 37 204 32 218 32 c 2
 404 32 l 2
 433 32 487 45 528 84 c 0
 591 146 634 268 634 268 c 1
 658 268 l 1
 574 0 l 1
 -10 0 l 1
EndSplineSet
EndChar

StartChar: ecaron
Encoding: 475 283 219
Width: 410
GlyphClass: 2
Flags: MW
HStem: -12 24<175 227.5> 432 24<261.5 302>
VStem: 52 72<112.5 119 66 240> 333 48<344 398.5>
LayerCount: 2
Fore
SplineSet
220 661 m 1
 236 672 l 1
 328 572 l 1
 474 672 l 1
 484 661 l 1
 331 508 l 1
 291 508 l 1
 220 661 l 1
52 158 m 0
 52 322 177 456 290 456 c 0
 338 456 381 436 381 372 c 0
 381 316 340 275 280 247 c 0
 229 223 174 218 138 215 c 1
 132 191 124 140 124 98 c 0
 124 34 159 12 191 12 c 0
 289 12 339 133 347 155 c 1
 368 148 l 1
 338 62 269 -12 186 -12 c 0
 103 -12 52 67 52 158 c 0
144 240 m 1
 190 243 333 253 333 378 c 0
 333 419 313 432 291 432 c 0
 232 432 182 364 164 313 c 0
 159 298 146 249 144 240 c 1
EndSplineSet
EndChar

